<svg width="12" height="31" viewBox="0 0 12 31" fill="none" xmlns="http://www.w3.org/2000/svg">
<path d="M11.3087 16.2246C11.3087 13.9395 10.4298 12.5625 9.69739 11.8301C9.46301 11.5957 9.19934 11.2734 9.14075 10.8633L8.14465 3.09961C8.14465 3.09961 8.90637 2.16211 8.73059 1.48828C8.58411 0.84375 7.96887 0.375 7.26575 0.375H4.01379C3.31067 0.375 2.69543 0.84375 2.54895 1.48828C2.40247 2.19141 3.13489 3.07031 3.13489 3.07031L2.16809 10.8633C2.1095 11.2734 1.84583 11.5957 1.61145 11.8301C0.879028 12.5625 0.00012207 13.9395 0.00012207 16.2246C0.00012207 18.4219 0.00012207 22.582 0.00012207 25.1895V27.3574C0.00012207 28.1191 0.00012207 29.6719 2.02161 30.1992C2.57825 30.3457 4.24817 30.4043 5.65442 30.4043C7.03137 30.4043 8.73059 30.3457 9.28723 30.1992C10.6642 29.8477 11.3087 28.9102 11.3087 27.3574V25.5703C11.3087 23.0215 11.3087 18.5098 11.3087 16.2246ZM2.60754 12.8262C2.9884 12.4453 3.45715 11.8887 3.57434 11.0391L4.57043 3.27539V3.24609H6.797V3.27539V3.33398L7.76379 11.0391C7.88098 11.8887 8.37903 12.4746 8.73059 12.8262C9.22864 13.3242 9.84387 14.291 9.90247 15.873L1.40637 17.5723C1.40637 17.0742 1.40637 16.6055 1.40637 16.2246C1.40637 14.4082 2.0509 13.3828 2.60754 12.8262ZM8.93567 28.8223C8.70129 28.8809 7.52942 28.9688 5.65442 28.9688C3.80872 28.9688 2.60754 28.8809 2.37317 28.8223C1.49426 28.5879 1.37708 28.1777 1.37708 27.3281V26.4492L9.90247 24.7207C9.90247 25.0137 9.90247 25.2773 9.90247 25.541V27.3281C9.90247 28.2656 9.66809 28.6465 8.93567 28.8223Z" fill="#B5443B"/>
</svg>
