<svg width="170" height="53" viewBox="0 0 170 53" fill="none" xmlns="http://www.w3.org/2000/svg">
<path d="M39.1489 28.0708C39.1489 22.1394 43.3857 17.1494 49.4113 17.1494C56.0018 17.1494 59.3913 22.3277 59.3913 28.4474C59.3913 28.7299 59.3912 29.5772 59.2971 29.7655H43.9506C44.5155 33.155 46.9634 35.1321 49.8821 35.1321C52.2358 35.1321 53.9305 34.1906 55.6252 32.6842L58.4497 35.1321C56.4726 37.4859 53.7422 38.9923 49.8821 38.9923C43.8564 39.0864 39.1489 34.6614 39.1489 28.0708ZM54.7779 26.6586C54.4954 23.5516 52.6124 21.1979 49.4113 21.1979C46.3985 21.1979 44.5155 23.3633 43.9506 26.6586H54.7779Z" fill="#807976"/>
<path d="M60.709 28.1666C60.709 22.2351 65.2282 17.2451 71.6304 17.2451C75.6789 17.2451 78.1268 18.6574 79.9157 20.917L76.9028 24.1181C75.4906 22.5175 73.89 21.4819 71.4421 21.4819C67.9586 21.4819 65.5107 24.4947 65.5107 28.2607C65.5107 32.0267 68.1469 35.0396 71.7246 35.0396C73.89 35.0396 75.5847 34.0039 77.1853 32.4033L80.0098 35.2279C77.9385 37.5816 75.4906 39.088 71.4421 39.088C65.2282 39.088 60.709 34.1922 60.709 28.1666Z" fill="#807976"/>
<path d="M80.104 28.1666C80.104 22.2351 84.9057 17.2451 91.3079 17.2451C97.8043 17.2451 102.512 22.1409 102.512 28.1666C102.512 34.098 97.7101 39.088 91.3079 39.088C84.9057 39.088 80.104 34.1922 80.104 28.1666ZM97.616 28.1666C97.616 24.4947 94.9798 21.3877 91.2138 21.3877C87.3536 21.3877 84.8115 24.4006 84.8115 28.1666C84.8115 31.8384 87.4477 34.9454 91.2138 34.9454C95.1681 34.9454 97.616 31.8384 97.616 28.1666Z" fill="#807976"/>
<path d="M102.889 35.8867L105.054 32.6856C107.22 34.3803 109.762 35.3218 111.927 35.3218C113.998 35.3218 115.128 34.3803 115.128 32.968C115.128 31.3675 113.057 30.8967 110.891 30.2377C110.797 30.2377 110.609 30.1435 110.515 30.1435C107.408 29.202 104.018 27.978 104.018 23.9296C104.018 19.8811 107.22 17.5273 111.456 17.5273C114.093 17.5273 116.917 18.4688 119.083 19.8811L117.105 23.2705C115.034 22.1407 112.963 21.2934 111.174 21.2934C109.385 21.2934 108.161 22.2349 108.161 23.4588C108.161 24.8711 110.232 25.5301 112.398 26.2833C112.492 26.2833 112.68 26.3775 112.774 26.3775C115.881 27.319 119.271 28.7312 119.271 32.5914C119.271 37.0165 115.881 39.1819 111.456 39.1819C108.726 38.9936 105.525 37.958 102.889 35.8867Z" fill="#807976"/>
<path d="M120.589 28.1666C120.589 22.2351 125.391 17.2451 131.793 17.2451C138.195 17.2451 142.997 22.1409 142.997 28.1666C142.997 34.098 138.195 39.088 131.793 39.088C125.202 39.088 120.589 34.1922 120.589 28.1666ZM138.101 28.1666C138.101 24.4947 135.465 21.3877 131.699 21.3877C127.838 21.3877 125.296 24.4006 125.296 28.1666C125.296 31.8384 127.933 34.9454 131.699 34.9454C135.653 34.9454 138.101 31.8384 138.101 28.1666Z" fill="#807976"/>
<path d="M145.915 21.8574H143.279V17.8089H145.915V16.2083C145.915 13.8546 147.045 8.67627 156.177 8.67627V12.8189C154.483 12.8189 150.623 12.8189 150.623 16.5849V17.7147H156.177V21.7632H150.717V38.7103H145.915V21.8574Z" fill="#807976"/>
<path d="M159.096 32.7785V21.7629V17.9027C159.096 17.9027 159.096 14.2309 159.096 13.1011C160.132 13.1952 162.862 13.8543 163.898 14.7016C163.898 16.1139 163.898 18.091 163.898 18.091H167.099V22.1395H163.898V32.1194C163.898 33.9083 164.839 34.7557 166.534 34.7557C167.57 34.7557 168.605 34.4732 169.547 34.0966V37.9568C168.417 38.6158 166.911 38.9924 165.31 38.9924C161.544 38.9924 159.096 37.3919 159.096 32.7785Z" fill="#807976"/>
<path d="M40.7495 45.49H41.5027L42.8208 49.5385L44.1389 45.49H44.798L46.1161 49.5385L47.4342 45.49H48.1874L46.3985 50.5742H45.7395L44.4214 46.714L43.1033 50.5742H42.4442L40.7495 45.49Z" fill="#807976"/>
<path d="M48.376 48.9736C48.376 47.9379 49.3175 47.2789 50.4473 47.2789C51.1063 47.2789 51.4829 47.373 52.0478 47.5613V47.4672C52.0478 46.5257 51.4829 46.149 50.6356 46.149C49.9765 46.149 49.5999 46.2432 49.035 46.5257L48.7526 45.8666C49.3175 45.5841 49.7882 45.49 50.5414 45.49C51.2005 45.49 51.8595 45.5841 52.142 46.0549C52.5186 46.4315 52.7069 46.8081 52.7069 47.4672V50.5741H51.9537V49.8209C51.5771 50.1975 51.0122 50.7624 50.1648 50.7624C49.3175 50.5741 48.376 50.0092 48.376 48.9736ZM52.0478 48.597V48.0321C51.6712 47.9379 51.1063 47.7496 50.6356 47.7496C49.6941 47.7496 49.2233 48.1262 49.2233 48.7853C49.2233 49.4443 49.7882 49.8209 50.5414 49.8209C51.3888 50.0092 52.0478 49.3502 52.0478 48.597Z" fill="#807976"/>
<path d="M53.9305 49.0688V46.056H53.2715V45.397H53.9305V43.7964H54.6837V45.397H56.2843V46.056H54.6837V49.0688C54.6837 49.7279 55.0603 49.822 55.437 49.822C55.7194 49.822 56.0018 49.822 56.1901 49.7279V50.3869C55.9077 50.4811 55.6252 50.6694 55.2486 50.6694C54.4954 50.5752 53.9305 50.1045 53.9305 49.0688Z" fill="#807976"/>
<path d="M58.9206 49.915C59.5797 49.915 60.0504 49.6325 60.5212 49.2559L61.0861 49.6325C60.5212 50.1974 59.9563 50.574 59.0148 50.574C57.6025 50.574 56.5669 49.5384 56.5669 47.9379C56.5669 46.5257 57.6025 45.3018 59.0148 45.3018C60.427 45.3018 61.3685 46.4315 61.3685 47.9379C61.3685 48.032 61.3685 48.032 61.3685 48.2203H57.2259C57.2259 49.3501 57.9791 49.915 58.9206 49.915ZM60.3329 47.6554C60.2387 46.714 59.6738 45.9608 58.7323 45.9608C57.7908 45.9608 57.1318 46.714 57.0376 47.6554H60.3329Z" fill="#807976"/>
<path d="M61.9336 45.4899H62.6868V46.808C63.0634 46.0548 63.7224 45.3958 64.7581 45.3958V46.1489C63.7224 46.1489 62.7809 46.9021 62.7809 48.5027V50.4798H62.0277V45.584H61.9336V45.4899Z" fill="#807976"/>
<path d="M67.4878 45.4899H68.241V46.5255C68.6176 45.8665 69.2766 45.3958 70.2181 45.3958C71.3479 45.3958 72.5719 46.3372 72.5719 48.0319C72.5719 49.7266 71.4421 50.6681 70.2181 50.6681C69.2766 50.6681 68.6176 50.1032 68.241 49.6324V52.0803H67.4878V45.4899ZM71.7245 47.9378C71.7245 46.808 70.9713 45.9606 69.9357 45.9606C68.9942 45.9606 68.1469 46.7138 68.1469 47.9378C68.1469 49.1617 69.0883 49.9149 69.9357 49.9149C70.9713 49.9149 71.7245 49.2558 71.7245 47.9378Z" fill="#807976"/>
<path d="M73.3256 45.4899H74.0788V46.808C74.4554 46.0548 75.1145 45.3958 76.1501 45.3958V46.1489C75.1145 46.1489 74.173 46.9021 74.173 48.5027V50.4798H73.2314V45.4899H73.3256Z" fill="#807976"/>
<path d="M76.1504 47.9379C76.1504 46.5257 77.2802 45.3018 78.7866 45.3018C80.3872 45.3018 81.4228 46.4315 81.4228 47.9379C81.4228 49.4442 80.293 50.574 78.7866 50.574C77.186 50.574 76.1504 49.3501 76.1504 47.9379ZM80.5755 47.9379C80.5755 46.9023 79.8223 45.9608 78.7866 45.9608C77.7509 45.9608 76.9977 46.9023 76.9977 47.9379C76.9977 48.9735 77.7509 49.915 78.7866 49.915C79.8223 49.915 80.5755 49.0677 80.5755 47.9379Z" fill="#807976"/>
<path d="M82.2699 46.1491H81.6108V45.49H82.2699V45.1134C82.2699 44.5485 82.364 44.0778 82.6465 43.7953C82.9289 43.5128 83.3056 43.4187 83.6822 43.4187C84.0588 43.4187 84.247 43.4187 84.4353 43.5129V44.1719C84.1529 44.0778 83.8705 44.0778 83.6822 44.0778C83.1173 44.0778 82.7407 44.4544 82.7407 45.1134V45.49H84.3412V46.1491H82.7407V50.3859H81.9874V46.1491H82.2699Z" fill="#807976"/>
<path d="M86.9777 49.915C87.6368 49.915 88.1075 49.6325 88.5783 49.2559L89.1432 49.6325C88.5783 50.1974 88.0134 50.574 87.0719 50.574C85.6597 50.574 84.624 49.5384 84.624 47.9379C84.624 46.5257 85.6597 45.3018 86.9777 45.3018C88.39 45.3018 89.3315 46.4315 89.3315 47.9379C89.3315 48.032 89.3315 48.032 89.3315 48.2203H85.2831C85.2831 49.3501 86.0363 49.915 86.9777 49.915ZM88.4841 47.6554C88.39 46.714 87.8251 45.9608 86.8836 45.9608C85.9421 45.9608 85.2831 46.714 85.1889 47.6554H88.4841Z" fill="#807976"/>
<path d="M89.4248 49.9151L89.8014 49.3502C90.3663 49.7268 90.9312 50.0092 91.4962 50.0092C92.1552 50.0092 92.5318 49.7268 92.5318 49.256C92.5318 48.7853 91.8728 48.597 91.2137 48.3145C90.4605 48.0321 89.519 47.7496 89.519 46.9023C89.519 46.0549 90.2722 45.49 91.2137 45.49C91.8728 45.49 92.5318 45.7724 93.0026 46.0549L92.626 46.6198C92.0611 46.3373 91.5903 46.0549 91.2137 46.0549C90.5546 46.0549 90.2722 46.3374 90.2722 46.8081C90.2722 47.373 90.9312 47.4672 91.5903 47.7496C92.3435 48.0321 93.1909 48.3145 93.1909 49.1619C93.1909 50.0092 92.4377 50.7624 91.402 50.7624C90.8371 50.5741 90.0839 50.2917 89.4248 49.9151Z" fill="#807976"/>
<path d="M93.5684 49.9151L93.945 49.3502C94.5099 49.7268 95.0748 50.0092 95.6397 50.0092C96.2987 50.0092 96.6753 49.7268 96.6753 49.256C96.6753 48.7853 96.0163 48.597 95.3572 48.3145C94.604 48.0321 93.6625 47.7496 93.6625 46.9023C93.6625 46.0549 94.4157 45.49 95.3572 45.49C96.0163 45.49 96.6753 45.7724 97.1461 46.0549L96.7695 46.6198C96.2046 46.3373 95.7338 46.0549 95.3572 46.0549C94.6982 46.0549 94.4157 46.3374 94.4157 46.8081C94.4157 47.373 95.0748 47.4672 95.7338 47.7496C96.487 48.0321 97.3344 48.3145 97.3344 49.1619C97.3344 50.0092 96.5812 50.7624 95.5455 50.7624C94.9806 50.5741 94.2274 50.2917 93.5684 49.9151Z" fill="#807976"/>
<path d="M98.2754 43.5127H99.2169V44.2659H98.2754V43.5127ZM98.2754 45.4898H99.0286V50.574H98.2754V45.4898Z" fill="#807976"/>
<path d="M99.688 47.9379C99.688 46.5257 100.818 45.3018 102.324 45.3018C103.925 45.3018 104.96 46.4315 104.96 47.9379C104.96 49.4442 103.831 50.574 102.324 50.574C100.818 50.574 99.688 49.3501 99.688 47.9379ZM104.207 47.9379C104.207 46.9023 103.454 45.9608 102.418 45.9608C101.383 45.9608 100.629 46.9023 100.629 47.9379C100.629 48.9735 101.383 49.915 102.418 49.915C103.454 49.915 104.207 49.0677 104.207 47.9379Z" fill="#807976"/>
<path d="M105.62 45.4899H106.373V46.4314C106.749 45.8665 107.314 45.3958 108.068 45.3958C109.197 45.3958 110.045 46.1489 110.045 47.3729V50.4798H109.291V47.467C109.291 46.5255 108.727 45.8665 107.879 45.8665C106.938 45.8665 106.279 46.5255 106.279 47.467V50.2915H105.525V45.4899H105.62Z" fill="#807976"/>
<path d="M110.609 48.9736C110.609 47.9379 111.551 47.2789 112.681 47.2789C113.34 47.2789 113.716 47.373 114.281 47.5613V47.4672C114.281 46.5257 113.716 46.149 112.869 46.149C112.21 46.149 111.833 46.2432 111.268 46.5257L110.986 45.8666C111.551 45.5841 112.022 45.49 112.775 45.49C113.434 45.49 114.093 45.5841 114.375 46.0549C114.752 46.4315 114.94 46.8081 114.94 47.4672V50.5741H114.187V49.8209C113.81 50.1975 113.246 50.7624 112.398 50.7624C111.645 50.5741 110.609 50.0092 110.609 48.9736ZM114.375 48.597V48.0321C113.999 47.9379 113.434 47.7496 112.963 47.7496C112.022 47.7496 111.551 48.1262 111.551 48.7853C111.551 49.4443 112.116 49.8209 112.869 49.8209C113.528 50.0092 114.375 49.3502 114.375 48.597Z" fill="#807976"/>
<path d="M116.07 43.4187H116.823V50.3859H116.07V43.4187Z" fill="#807976"/>
<path d="M117.482 49.9151L117.859 49.3502C118.423 49.7268 118.988 50.0092 119.553 50.0092C120.212 50.0092 120.589 49.7268 120.589 49.256C120.589 48.7853 119.93 48.597 119.271 48.3145C118.518 48.0321 117.576 47.7496 117.576 46.9023C117.576 46.0549 118.329 45.49 119.271 45.49C119.93 45.49 120.589 45.7724 121.06 46.0549L120.683 46.6198C120.118 46.3373 119.647 46.0549 119.271 46.0549C118.612 46.0549 118.329 46.3374 118.329 46.8081C118.329 47.373 118.988 47.4672 119.647 47.7496C120.401 48.0321 121.248 48.3145 121.248 49.1619C121.248 50.0092 120.495 50.7624 119.459 50.7624C118.706 50.5741 117.953 50.2917 117.482 49.9151Z" fill="#807976"/>
<path d="M38.7723 0.580045C36.7952 0.203443 34.9122 0.0151367 32.935 0.0151367C32.6526 0.0151367 32.276 0.0151367 31.9935 0.0151367C14.764 0.580039 0.923877 14.326 0.453125 31.5555C1.39463 31.6497 2.24198 31.6497 3.18349 31.6497C4.8782 31.6497 6.3846 31.5555 7.98516 31.2731C10.0565 19.0335 19.5657 9.61848 31.7111 7.54717C29.6398 19.5984 20.0364 29.2018 7.98516 31.1789C7.70271 32.7795 7.60856 34.2859 7.60856 35.9806C7.60856 36.9221 7.60856 37.7694 7.70271 38.711C24.8381 38.146 38.7723 24.4001 39.1489 7.26473C39.1489 6.98228 39.1489 6.60568 39.1489 6.32322C39.3372 4.44022 39.0548 2.46305 38.7723 0.580045Z" fill="#807976"/>
<path d="M6.10218 50.5737C7.70274 49.9146 9.115 48.9731 10.2448 47.8433C8.9267 45.0188 8.1735 42.0059 7.79689 38.7107C7.51444 38.7107 7.13784 38.7107 6.85539 38.7107C4.87823 38.7107 2.80692 38.6165 1.01807 38.1458C1.95957 42.7592 3.65427 46.9018 6.10218 50.5737Z" fill="#807976"/>
</svg>
