<svg width="120" height="120" viewBox="0 0 120 120" fill="none" xmlns="http://www.w3.org/2000/svg">
<g clip-path="url(#clip0)">
<path d="M119.938 115.005C119.938 116.504 119.438 117.752 118.439 118.751C117.44 119.5 116.442 120 114.943 120H5.05731C3.80873 120 2.55991 119.5 1.56085 118.751C0.56179 117.752 0.0625 116.504 0.0625 115.005V51.8311H119.938V115.005Z" fill="#FFD15C"/>
<path d="M118.439 118.751C117.44 119.5 116.441 120 114.943 120H5.05725C3.80867 120 2.55985 119.5 1.56079 118.751L59.9999 68.5535L118.439 118.751Z" fill="#F8B64C"/>
<path d="M119.938 51.8311L102.955 64.0684L63.2467 82.5389C61.2488 84.0372 58.5017 84.0372 56.5038 82.5389L17.0448 64.0684L0.0625 51.8311L17.0448 39.5939L54.0064 13.1215L56.7535 11.1236C58.7514 9.62523 61.4986 9.62523 63.4965 11.1236L66.2436 13.1215L83.9752 25.8582L92.716 32.1016L102.955 39.5939L119.938 51.8311Z" fill="#40596B"/>
<path d="M102.955 38.6054V64.0684L63.2466 92.5389C61.2487 94.0373 58.5015 94.0373 56.5036 92.5389L17.0447 64.0684V28.1163C17.0447 25.3691 19.2923 23.1215 22.0395 23.1215H87.2216L102.955 38.6054Z" fill="#F2F2F2"/>
<path d="M87.4712 34.6097C87.4712 36.8573 89.2193 38.6054 91.4669 38.6054H102.955L87.4709 23.1215L87.4712 34.6097Z" fill="#CDD6E0"/>
<path d="M74.7349 63.3193H78.7306C77.482 66.0665 75.4839 68.0643 72.7367 69.5627C69.7398 71.3108 65.9938 72.0601 61.4985 72.0601C57.253 72.0601 53.5068 71.3108 50.5099 69.8125C47.5129 68.3141 45.0155 66.316 43.5172 63.3193C42.0188 60.5721 41.2695 57.3254 41.2695 54.079C41.2695 50.333 42.0188 47.0863 43.7669 43.8396C45.515 40.5929 47.7627 38.3452 50.7596 36.8469C53.7566 35.3485 57.2528 34.5992 60.999 34.5992C64.2457 34.5992 67.2424 35.3485 69.7398 36.5971C72.2372 37.8457 74.2351 39.5941 75.4839 42.0915C76.7325 44.3391 77.4818 47.0863 77.4818 49.8334C77.4818 53.0801 76.4827 56.0768 74.4849 58.824C71.9875 62.3205 68.7408 63.8188 64.745 63.8188C63.7459 63.8188 62.7471 63.5691 62.2476 63.3193C61.7481 62.8198 61.2485 62.3202 61.2485 61.5712C59.7502 63.0695 58.0018 63.8188 56.004 63.8188C53.7563 63.8188 52.0082 63.0695 50.7594 61.5712C49.261 60.0728 48.5117 58.0747 48.5117 55.5773C48.5117 52.5804 49.261 49.8332 51.0092 47.086C53.007 44.0891 55.7542 42.5907 59.0009 42.5907C61.2485 42.5907 62.9967 43.5898 64.2455 45.3379L64.745 43.0903H69.9896L66.9926 57.0757C66.7429 58.0747 66.7429 58.574 66.7429 58.8238C66.7429 59.0735 66.7429 59.3233 66.9926 59.5731C67.2424 59.8228 67.2424 59.8228 67.4922 59.8228C67.9917 59.8228 68.9905 59.3233 69.9896 58.5742C71.2382 57.5752 72.487 56.3266 73.2363 54.5785C73.9856 52.8304 74.4849 51.082 74.4849 49.3339C74.4849 46.0872 73.2363 43.34 70.9884 41.3422C68.7408 39.0945 65.4941 38.0955 61.2485 38.0955C57.7521 38.0955 54.7554 38.8448 52.258 40.3431C49.7606 41.8415 48.0125 43.8396 46.7636 46.337C45.5148 48.8344 45.0155 51.5816 45.0155 54.5785C45.0155 57.3257 45.7648 59.8231 47.0134 62.0707C48.5117 64.3183 50.2601 66.0665 52.7575 67.0655C55.2549 68.0646 58.0021 68.5639 61.2488 68.5639C64.2457 68.5639 66.9929 68.0643 69.2405 67.3153C71.4882 66.316 73.2363 65.0674 74.7349 63.3193ZM53.5068 55.3275C53.5068 57.0757 53.7566 58.0747 54.5059 59.0735C55.2551 59.8228 56.0042 60.3221 57.0033 60.3221C57.7526 60.3221 58.5016 60.0723 59.0011 59.8226C59.5007 59.5728 60.0002 59.0733 60.4995 58.574C61.2488 57.8247 61.7483 56.5761 62.2476 55.0775C62.7471 53.5792 62.9969 52.0806 62.9969 50.832C62.9969 49.3337 62.7471 48.3346 61.9978 47.3356C61.2485 46.5863 60.4995 46.087 59.5004 46.087C58.5014 46.087 57.2528 46.5865 56.5035 47.3356C55.5044 48.0849 54.7554 49.3334 54.2558 51.0815C53.7566 52.5804 53.5068 54.0787 53.5068 55.3275Z" fill="#B5443B"/>
</g>
<defs>
<clipPath id="clip0">
<rect width="120" height="120" fill="white" transform="translate(0 -0.000244141)"/>
</clipPath>
</defs>
</svg>
