<svg width="33" height="33" viewBox="0 0 33 33" fill="none" xmlns="http://www.w3.org/2000/svg">
<g clip-path="url(#clip0)">
<path d="M30.4272 31.6532C31.3689 31.6532 32.1325 30.8896 32.1325 29.9477V2.45884C32.1325 1.5168 31.369 0.753418 30.4272 0.753418H2.93833C1.9963 0.753418 1.23291 1.5168 1.23291 2.45884V29.9477C1.23291 30.8895 1.99618 31.6532 2.93833 31.6532H30.4272Z" fill="#3C5A99"/>
<path d="M22.553 31.6529V19.6867H26.5694L27.1708 15.0233H22.553V12.046C22.553 10.6959 22.9279 9.77579 24.864 9.77579L27.3334 9.77471V5.60372C26.9064 5.54689 25.4405 5.41992 23.7351 5.41992C20.1747 5.41992 17.7372 7.59318 17.7372 11.5842V15.0233H13.7104V19.6867H17.7372V31.6529H22.553Z" fill="white"/>
</g>
<defs>
<clipPath id="clip0">
<rect x="0.682617" y="0.203125" width="31.9998" height="32" fill="white"/>
</clipPath>
</defs>
</svg>
