<svg width="85" height="85" viewBox="0 0 85 85" fill="none" xmlns="http://www.w3.org/2000/svg">
<path d="M42.2167 78.552C20.1814 78.552 18.3451 66.2308 18.3451 54.7005H21.5111C21.5111 65.614 23.0941 75.4045 42.2325 75.4045C61.3709 75.4045 62.9539 65.614 62.9539 54.7005H66.1199C66.0882 69.0146 62.0358 78.552 42.2167 78.552Z" fill="#493630"/>
<path d="M21.5111 51.4739H18.3451V37.0334C18.3451 33.1425 21.5111 29.995 25.3894 29.995V33.1583C23.2524 33.1583 21.4953 34.8981 21.4953 37.0492V51.4739H21.5111Z" fill="#493630"/>
<path d="M15.6223 42.2687H12.4564V29.8526C12.4564 25.0918 15.9706 21.1376 20.5296 20.4417C20.7987 18.8126 21.6061 16.1396 24.0597 13.5931C28.2863 9.18028 35.5206 6.95013 45.5568 6.95013C61.8933 6.95013 72.5152 12.2487 74.6997 21.4856L71.6287 22.2132C69.7924 14.5263 60.2944 10.1135 45.5409 10.1135C36.5337 10.1135 29.901 12.0747 26.3392 15.7916C23.5215 18.7177 23.569 21.8019 23.569 21.8336L23.6323 23.4785H21.986C18.4717 23.4785 15.6223 26.3413 15.6223 29.8368V42.2687Z" fill="#493630"/>
<path d="M66.0882 51.4739H62.9222V37.0334C62.9222 34.8981 61.1809 33.1425 59.028 33.1425V29.9791C62.9222 29.9791 66.0723 33.1425 66.0723 37.0175V51.4739H66.0882Z" fill="#493630"/>
<path d="M67.6237 61.1537H64.521V57.9904H67.6237C69.0801 57.9904 70.2673 56.8041 70.2673 55.349V50.9362C70.2673 49.9397 69.7133 49.0224 68.8109 48.5795L67.9403 48.1366V29.8368C67.9403 26.3255 65.0909 23.4785 61.5767 23.4785V20.3152C66.8322 20.3152 71.1063 24.5857 71.1063 29.8368V46.2861C72.5626 47.3616 73.4333 49.0698 73.4333 50.9362V55.349C73.4333 58.5598 70.8372 61.1537 67.6237 61.1537Z" fill="#493630"/>
<path d="M20.4663 61.1537H16.8096C13.6119 61.1537 11 58.5598 11 55.349V50.9362C11 47.7412 13.5961 45.1315 16.8096 45.1315H19.9281V48.2948H16.8096C15.3532 48.2948 14.166 49.481 14.166 50.9362V55.349C14.166 56.8041 15.3532 57.9904 16.8096 57.9904H20.4663V61.1537Z" fill="#493630"/>
<path d="M45.6043 41.4304C38.0059 41.4304 32.1171 39.7064 28.0963 36.2742C23.4898 32.3516 23.1257 27.6225 23.1257 27.4169L26.2759 27.2112L24.6929 27.322L26.2759 27.2112C26.2917 27.3694 26.6083 30.8965 30.2334 33.9491C34.4283 37.4762 41.4885 38.8997 50.6698 38.0456L50.9548 41.1931C49.0869 41.3513 47.2981 41.4304 45.6043 41.4304Z" fill="#493630"/>
<path d="M56.9227 39.9594C45.9842 39.9594 38.7974 34.9456 34.6816 30.7225C30.3917 26.3097 28.2388 21.5173 28.318 19.0815L31.4681 19.1922C31.4206 20.4417 32.9878 24.475 36.9453 28.524C40.6337 32.32 47.0923 36.8119 56.9227 36.8119C57.0018 36.8119 57.081 36.8119 57.1601 36.8119L57.176 39.9753C57.0968 39.9594 57.0018 39.9594 56.9227 39.9594Z" fill="#493630"/>
<path d="M70.3464 24.6331C70.2515 24.3484 67.877 17.4682 54.4848 16.7881L54.6431 13.6406C70.4098 14.4314 73.2433 23.3362 73.37 23.7158L70.3464 24.6331Z" fill="#493630"/>
<path d="M57.9517 37.2864C53.5984 34.8349 53.6776 29.8368 54.3108 27.5276L57.3501 28.3817L55.8304 27.9546L57.3501 28.3659C57.3026 28.5398 56.2262 32.6838 59.4872 34.5185L57.9517 37.2864Z" fill="#493630"/>
<path d="M51.6513 69.4574H50.3691L50.1 68.2079C49.9258 67.4171 48.7703 63.4471 42.2008 63.4471C35.6472 63.4471 34.4758 67.4013 34.3017 68.2079L34.0326 69.4574H32.7503C29.2678 69.4574 23.4107 67.5436 23.4107 54.7005H26.5767C26.5767 59.5721 27.4948 65.3135 31.6264 66.1834C32.8612 63.2257 36.138 60.2838 42.185 60.2838C48.232 60.2838 51.5088 63.2257 52.7436 66.1834C56.891 65.3135 57.7933 59.5721 57.7933 54.7005H60.9593C60.9752 67.5436 55.1339 69.4574 51.6513 69.4574Z" fill="#493630"/>
<path d="M46.2533 71.7192H38.18V68.5717H46.2533V71.7192Z" fill="#493630"/>
<path d="M52.2845 57.9588C51.2713 57.9588 50.2266 57.8164 49.2609 57.4685C45.4301 56.1082 44.1004 53.8939 43.6571 52.249C43.6413 52.2015 43.6255 52.1541 43.6097 52.1066H40.9661H40.7603C40.7444 52.1541 40.7444 52.2015 40.7128 52.249C40.2695 53.8781 38.924 56.1082 35.109 57.4685C31.4839 58.7496 27.1149 57.1996 25.2944 56.2031C23.4265 55.1592 22.7774 51.727 22.0651 46.982C21.9226 45.9698 21.796 45.1315 21.6852 44.6728L24.8195 43.8503C24.9462 44.3881 25.1044 45.3529 25.2627 46.5075C25.516 48.1999 26.1809 52.6918 26.9407 53.4352C28.3812 54.226 31.6739 55.2699 34.0167 54.4317C36.0429 53.7199 37.246 52.6918 37.5943 51.4107C38.2275 49.1331 39.5572 48.8642 40.7444 48.8958H43.4039C44.7969 48.8642 46.1424 49.1331 46.7598 51.4107C47.1239 52.6918 48.327 53.7199 50.3374 54.4317C52.6802 55.2699 55.9728 54.2261 57.5083 53.3878C58.189 52.6918 58.8539 48.1999 59.0913 46.5234C59.2655 45.3687 59.4079 44.4039 59.5504 43.8662L62.6689 44.6886C62.5581 45.1473 62.4473 45.9856 62.289 46.982C61.5925 51.7428 60.9434 55.175 59.0755 56.2189C57.7616 56.9307 55.0705 57.9588 52.2845 57.9588Z" fill="#493630"/>
<path d="M43.8946 46.5233H40.4595C39.9371 46.5233 39.2248 46.3968 38.1483 46.1912C36.0746 45.7958 32.6078 45.1315 28.3813 45.1315C22.5875 45.1315 19.6273 46.4443 19.5956 46.4601L18.2343 43.5182C18.3767 43.4549 21.796 41.8891 28.3813 41.8891C32.9086 41.8891 36.5653 42.585 38.7499 42.9962C39.5572 43.1544 40.1429 43.2809 40.4595 43.2809H43.8946C44.227 43.2809 44.7969 43.1544 45.6201 42.9962C47.7888 42.585 51.4613 41.8891 55.9729 41.8891C62.5739 41.8891 65.9774 43.4549 66.1357 43.5182L64.7585 46.4443L65.4392 44.9891L64.7743 46.4601C64.7426 46.4443 61.7666 45.1315 55.9729 45.1315C51.7621 45.1315 48.2795 45.7958 46.2216 46.1912C45.1452 46.3968 44.4328 46.5233 43.8946 46.5233Z" fill="#493630"/>
<path d="M28.0647 45.0998C32.3863 45.0998 35.948 45.7958 38.0692 46.2228C39.1773 46.4442 39.9055 46.5866 40.4437 46.5866H43.9579C44.512 46.5866 45.2243 46.4442 46.3324 46.2228C48.4536 45.8116 51.9996 45.0998 56.337 45.0998C57.6192 45.0998 58.7115 45.1789 59.7246 45.2896C59.6613 45.685 59.5979 46.0805 59.5346 46.555C59.2813 48.3422 58.5848 53.103 57.9041 53.8306C56.3211 54.7321 52.9652 55.8077 50.559 54.9378C48.4853 54.1786 47.2664 53.103 46.8865 51.7428C46.2375 49.3229 44.8761 49.0382 43.4514 49.0698H40.7286C39.5097 49.0382 38.1484 49.3229 37.4993 51.7428C37.1352 53.103 35.9005 54.1786 33.8426 54.9378C31.4523 55.8235 28.0647 54.7321 26.5925 53.8939C25.8168 53.103 25.1361 48.358 24.8829 46.5708C24.8195 46.0963 24.7562 45.7009 24.6929 45.3054C25.6902 45.1789 26.7825 45.0998 28.0647 45.0998Z" fill="#B5443B"/>
</svg>
