<svg width="85" height="85" viewBox="0 0 85 85" fill="none" xmlns="http://www.w3.org/2000/svg">
<path d="M36.0474 48.4818C35.2455 47.083 33.8021 46.2223 32.2518 46.2223C30.648 46.2223 29.2581 47.083 28.4027 48.4818L25.7298 46.9216C27.0663 44.6084 29.5788 43.1558 32.1983 43.1558C34.8178 43.1558 37.3304 44.6084 38.6669 46.9216L36.0474 48.4818Z" fill="#493630"/>
<path d="M55.4531 48.4818C54.6512 47.083 53.2078 46.2223 51.6575 46.2223C50.0537 46.2223 48.6638 47.083 47.8084 48.4818L45.1355 46.9216C46.472 44.6084 48.9845 43.1558 51.604 43.1558C54.2235 43.1558 56.7361 44.6084 58.0726 46.9216L55.4531 48.4818Z" fill="#493630"/>
<path d="M41.9279 78.5546C20.0631 78.5546 18.2455 66.7729 18.2455 54.7223H21.3461C21.3461 66.0736 22.8965 75.4881 41.9814 75.4881C61.0663 75.4881 62.6166 66.0736 62.6166 54.7223H65.7172C65.6637 66.7191 63.8461 78.5546 41.9279 78.5546Z" fill="#493630"/>
<path d="M21.3461 51.4406H18.2455V37.0229C18.2455 33.1495 21.3996 30.0292 25.2487 30.0292V33.1495C23.1103 33.1495 21.3461 34.9248 21.3461 37.0767V51.4406Z" fill="#493630"/>
<path d="M15.4657 42.2413H12.4185V29.8141C12.4185 25.0799 15.8933 21.0989 20.4374 20.3995C20.7046 18.7856 21.5065 16.0957 23.9657 13.5672C28.1889 9.15583 35.3525 6.95013 45.2959 6.95013C61.5474 6.95013 72.0789 12.2223 74.2173 21.4754L71.2235 22.1748C69.4059 14.4818 59.9437 10.0166 45.2959 10.0166C36.3147 10.0166 29.7392 12.0071 26.2109 15.7191C23.3776 18.678 23.4311 21.7982 23.4311 21.7982L23.4845 23.4122H21.8807C18.3524 23.4122 15.5191 26.2634 15.5191 29.8141V42.2413H15.4657Z" fill="#493630"/>
<path d="M65.6638 51.4407H62.5631V37.0229C62.5631 34.871 60.799 33.0957 58.6606 33.0957V29.9755C62.5097 29.9755 65.6638 33.1495 65.6638 36.9691V51.4407Z" fill="#493630"/>
<path d="M67.214 61.1242H64.1134V58.004H67.214C68.7109 58.004 69.887 56.8204 69.887 55.3141V50.9027C69.887 49.8805 69.3524 48.966 68.4436 48.5356L67.5883 48.1052V29.8141C67.5883 26.2635 64.7549 23.4122 61.2266 23.4122V20.2919C66.4656 20.2919 70.6889 24.5419 70.6889 29.8141V46.2761C72.1323 47.3521 72.9876 49.0736 72.9876 50.9027V55.3141C72.9342 58.5419 70.3681 61.1242 67.214 61.1242Z" fill="#493630"/>
<path d="M20.3304 61.1242H16.6952C13.5411 61.1242 10.9216 58.5419 10.9216 55.3678V50.9565C10.9216 47.7824 13.4877 45.2001 16.6417 45.2001H19.7424V48.3204H16.6417C15.1984 48.3204 13.9688 49.5039 13.9688 51.0103V55.4217C13.9688 56.8742 15.1449 58.1115 16.6417 58.1115H20.277V61.1242H20.3304Z" fill="#493630"/>
<path d="M45.2959 41.3805C37.7581 41.3805 31.9311 39.659 27.9217 36.216C23.3242 32.2887 23.0034 27.5546 23.0034 27.3932L26.104 27.178L24.5537 27.2856L26.104 27.178C26.104 27.3394 26.4248 30.89 30.0066 33.9565C34.1764 37.5071 41.233 38.9058 50.321 38.0451L50.5883 41.1115C48.7707 41.2729 47.0066 41.3805 45.2959 41.3805Z" fill="#493630"/>
<path d="M56.5757 39.8742C45.7235 39.8742 38.6134 34.871 34.4971 30.621C30.2738 26.2634 28.082 21.3678 28.1889 18.947L31.2895 19.0546C31.2361 20.2919 32.7864 24.3805 36.7424 28.4153C40.431 32.2349 46.9531 36.8615 56.843 36.7001V39.8204C56.7361 39.8742 56.6292 39.8742 56.5757 39.8742Z" fill="#493630"/>
<path d="M69.9405 24.5957C69.8336 24.3267 67.4814 17.3869 54.1701 16.7413L54.3304 13.621C69.9405 14.428 72.7738 23.3046 72.9342 23.6812L69.9405 24.5957Z" fill="#493630"/>
<path d="M57.5914 37.2381C53.2612 34.8172 53.3682 29.8141 54.0097 27.5008L56.9499 28.3078C56.8965 28.4691 55.8273 32.6654 59.0883 34.4945L57.5914 37.2381Z" fill="#493630"/>
<path d="M51.4436 69.2476H50.1606L49.8933 68.0103C49.2518 64.7286 48.7707 62.3615 41.9279 62.3615C35.0851 62.3615 34.604 64.7286 33.9625 68.0103L33.7487 69.2476H32.4656C29.4719 69.2476 24.4468 67.3647 24.4468 54.6685H27.5474C27.5474 58.5419 28.082 64.7286 31.2895 65.9122C32.2518 62.254 34.2833 59.2413 41.9279 59.2413C49.5726 59.2413 51.6575 62.254 52.5663 65.9122C55.7738 64.7286 56.3084 58.4881 56.3084 54.6685H59.409C59.4625 67.3647 54.4373 69.2476 51.4436 69.2476Z" fill="#493630"/>
<path d="M47.0599 67.4723H38.1323V70.5925H47.0599V67.4723Z" fill="#493630"/>
</svg>
