<svg width="85" height="85" viewBox="0 0 85 85" fill="none" xmlns="http://www.w3.org/2000/svg">
<path d="M42.7436 78.1736C20.389 78.1736 18.5367 63.4834 18.5367 48.41H21.6664C21.6664 62.5892 23.2631 74.3414 42.7436 74.3414C62.2241 74.3414 63.8209 62.5892 63.8209 48.41H66.9505C66.9505 63.3557 65.0983 78.1736 42.7436 78.1736Z" fill="#493630"/>
<path d="M21.6664 50.6454H18.5367V35.9552C18.5367 31.9953 21.7302 28.8018 25.6902 28.8018V31.9314C23.5186 31.9314 21.6664 33.7198 21.6664 35.9552V50.6454Z" fill="#493630"/>
<path d="M15.7264 46.3661H12.5968V32.1869C12.5968 26.7579 16.1096 22.287 20.7722 21.4567C21.0277 19.6683 21.9219 16.6025 24.3489 13.6006C28.6921 8.55481 35.9733 6 46.1287 6C57.0506 6 64.1402 8.42707 68.1002 13.6006C70.8466 17.1773 71.8047 21.9676 70.9743 27.8437L67.8447 27.3327C68.4834 22.4786 67.7808 18.7102 65.6731 15.9638C62.4796 11.8122 55.9009 9.64062 46.1287 9.64062C37.0591 9.64062 30.3527 11.8761 26.6483 16.0277C23.7102 19.4767 23.7741 22.8618 23.7741 23.0534L23.838 24.8418H22.3051C18.7283 24.8418 15.7903 28.0992 15.7903 32.123V46.2384H15.7264V46.3661Z" fill="#493630"/>
<path d="M66.9505 50.6454H63.8209V35.9552C63.8209 33.7837 62.0325 31.9314 59.797 31.9314V28.8018C63.757 28.8018 66.9505 31.9953 66.9505 35.9552V50.6454Z" fill="#493630"/>
<path d="M71.9963 46.8771V31.8037C71.9963 29.185 70.7188 26.8856 68.675 25.2889C68.4195 26.1831 67.9086 27.0772 67.2699 27.7798C67.2699 27.8437 67.2698 27.8437 67.206 27.9076C68.2279 28.9295 68.8666 30.2708 68.8666 31.8037V48.5377L69.7608 48.9848C70.7189 49.4319 71.2937 50.1983 71.2937 51.1564V55.1802C71.2937 56.5215 70.0802 57.6073 68.5473 57.6073H65.4176V60.4176H68.5473C71.7408 60.4176 74.4234 58.0544 74.2956 55.1164V51.0925C74.2956 49.368 73.4653 47.8351 71.9963 46.8771Z" fill="#493630"/>
<path d="M20.5806 60.4176H16.8761C13.6826 60.4176 11 57.7989 11 54.5415V50.0706C11 46.8771 13.6187 44.1945 16.8761 44.1945H20.0696V47.3242H16.8761C15.3432 47.3242 14.1297 48.5377 14.1297 50.0706V54.5415C14.1297 56.0744 15.3432 57.288 16.8761 57.288H20.5806V60.4176Z" fill="#493630"/>
<path d="M31.8856 62.6531C30.2889 62.6531 28.756 62.0143 27.7341 60.9924L29.9695 58.7569C30.4805 59.2679 31.2469 59.5873 32.0772 59.5873C32.9714 59.5873 33.7379 59.0763 34.3766 58.3099C37.2508 54.797 40.6998 55.2441 42.7436 56.3299C44.7236 55.3079 48.1726 54.797 51.1106 58.3099C51.7493 59.1402 52.5797 59.5234 53.41 59.5873C54.2403 59.5873 55.0067 59.3318 55.5177 58.7569L57.7532 60.9924C56.6035 62.1421 54.9429 62.7808 53.2822 62.6531C51.4939 62.5892 49.8971 61.695 48.6197 60.226C46.3842 57.4796 44.021 59.0124 43.6378 59.3318L42.6798 60.0344L41.7217 59.3318C41.3385 59.0124 38.9752 57.4796 36.7398 60.226C35.5262 61.695 33.8656 62.5253 32.0772 62.6531C32.0772 62.6531 32.0134 62.6531 31.8856 62.6531Z" fill="#493630"/>
<path d="M34.6321 67.3156C34.4405 67.3156 34.3127 67.3156 34.2489 67.3156C30.8637 66.9963 27.9257 63.4834 27.6063 63.0363L30.0334 61.0563C30.6721 61.7589 32.7798 63.9944 34.5043 64.1221C35.0153 64.1221 35.3985 64.0582 35.7817 63.7389C38.6559 61.1841 41.1469 61.3118 42.7436 62.0782C44.3404 61.3757 46.8952 61.1841 49.7694 63.7389C50.1526 64.0582 50.5997 64.2498 51.0468 64.2498C52.7074 64.0582 54.8151 61.9505 55.39 61.1841L57.8809 63.1002C57.5616 63.4834 54.6874 67.0601 51.3661 67.3795C50.0248 67.4433 48.7475 67.0601 47.7894 66.166C45.3623 64.0582 43.9571 65.0163 43.7655 65.2079L42.7436 66.0382L41.7217 65.144C41.6578 65.0801 40.3804 64.1221 37.9533 66.166C36.9314 66.9324 35.8456 67.3156 34.6321 67.3156Z" fill="#493630"/>
<path d="M44.5959 27.6521L43.8933 28.0353C42.6797 28.5463 41.2107 29.0572 39.6139 29.4405C33.7379 30.7817 28.6921 29.7598 25.6902 28.8656C25.6902 29.4404 25.6902 29.9514 25.6902 30.5262C25.6902 31.0372 25.6902 31.5482 25.6902 31.9953C27.2231 32.123 33.4824 32.7617 38.0172 32.6978C38.7836 32.6978 39.8694 32.634 41.2107 32.3785C42.7436 32.0591 44.2126 31.4843 45.6816 30.7179L46.3842 30.3346C53.2184 26.5663 55.3261 25.5444 59.6693 31.9953L62.6712 30.3985C56.5396 21.1373 51.2384 24.0115 44.5959 27.6521Z" fill="#493630"/>
<path d="M52.5797 53.9028C51.6216 53.9028 50.5997 53.7112 49.6416 53.3919C45.9371 52.1145 44.5958 49.879 44.2126 48.3461C44.2126 48.2822 44.2126 48.2822 44.1488 48.1545H41.5939H41.4023C41.4023 48.2184 41.4023 48.2184 41.3384 48.3461C40.9552 49.9429 39.5501 52.1145 35.9095 53.3919C32.3966 54.6693 28.1173 53.1364 26.3928 52.1783C24.5405 51.1564 23.9018 47.8351 23.2631 43.1726C23.0715 42.2145 23.0076 41.3204 22.8799 40.9371L25.9457 40.1068C26.1373 40.6817 26.2012 41.5759 26.3289 42.6616C26.5844 44.3223 27.2231 48.6655 27.9257 49.368C29.3947 50.1984 32.5882 51.1564 34.8237 50.3261C36.8037 49.6235 37.9533 48.6654 38.3365 47.388C38.9752 45.1526 40.2527 44.8971 41.4023 44.8971H43.9572C45.2984 44.8971 46.5758 45.1526 47.2145 47.388C47.5339 48.6654 48.7474 49.6235 50.6636 50.3261C52.899 51.1564 56.0925 50.1345 57.6254 49.3042C58.2641 48.6654 58.9028 44.2584 59.1583 42.5978C59.3499 41.4481 59.4777 40.49 59.6693 40.0429L62.735 40.8732C62.6712 41.3842 62.4796 42.1507 62.3518 43.1087C61.6493 47.7713 61.0744 51.1564 59.2222 52.1145C57.8809 52.8809 55.2622 53.9028 52.5797 53.9028Z" fill="#493630"/>
<path d="M44.4042 42.7893H41.0191C40.5081 42.7893 39.8056 42.5977 38.7836 42.47C36.8036 42.0868 33.4185 41.4481 29.2669 41.4481C23.6463 41.4481 20.7722 42.7255 20.7083 42.7255L19.367 39.8513C19.5586 39.7875 22.816 38.2546 29.2031 38.2546C33.6101 38.2546 37.123 38.8933 39.2946 39.4042C40.1249 39.5958 40.6359 39.6597 40.9552 39.6597H44.3404C44.6597 39.6597 45.2345 39.4681 46.001 39.4042C48.1087 39.021 51.6855 38.2546 56.0925 38.2546C62.4796 38.2546 65.8647 39.7875 65.9286 39.8513L64.5873 42.7255L65.226 41.2565L64.5873 42.7255C64.5873 42.7255 61.7131 41.4481 56.0286 41.4481C51.9409 41.4481 48.5558 42.0868 46.5758 42.47C45.6178 42.5977 44.9152 42.7893 44.4042 42.7893Z" fill="#493630"/>
<path d="M70.8466 48.7293C70.7827 48.5377 70.7189 48.3461 70.655 48.1545C70.655 48.0906 70.5911 48.0268 70.5911 47.9629C70.5272 47.8351 70.5273 47.7074 70.4634 47.5158C70.4634 47.4519 70.4634 47.388 70.3995 47.3242C70.3356 47.1326 70.3356 46.9409 70.3356 46.7493C70.3356 46.6216 70.3356 46.5577 70.3356 46.43C70.3356 46.43 70.3356 46.43 70.3356 46.3661C70.3356 46.3023 70.3356 46.1745 70.3356 46.1106C70.3356 45.919 70.3995 45.7274 70.4634 45.4719C68.1002 45.3442 66.695 45.5997 66.5673 45.6635V48.6654C66.6311 48.7293 68.2279 48.4739 70.8466 48.7293Z" fill="#493630"/>
</svg>
