<svg width="32" height="33" viewBox="0 0 32 33" fill="none" xmlns="http://www.w3.org/2000/svg">
<g clip-path="url(#clip0)">
<path d="M31.6824 16.5705C31.6824 15.4828 31.5943 14.3893 31.4061 13.3193H16.3145V19.4806H24.9567C24.5981 21.4678 23.4458 23.2256 21.7585 24.3427V28.3405H26.9145C29.9422 25.5538 31.6824 21.4384 31.6824 16.5705Z" fill="#4285F4"/>
<path d="M16.3146 32.2031C20.6299 32.2031 24.269 30.7862 26.9205 28.3405L21.7645 24.3427C20.33 25.3186 18.4781 25.8713 16.3205 25.8713C12.1463 25.8713 8.60708 23.0552 7.33719 19.269H2.0166V23.3903C4.73275 28.7932 10.265 32.2031 16.3146 32.2031Z" fill="#34A853"/>
<path d="M7.33117 19.2693C6.66095 17.2821 6.66095 15.1304 7.33117 13.1432V9.02197H2.01646C-0.252881 13.543 -0.252881 18.8695 2.01646 23.3905L7.33117 19.2693Z" fill="#FBBC04"/>
<path d="M16.3146 6.53503C18.5957 6.49975 20.8004 7.3581 22.4524 8.93371L27.0204 4.36564C24.1279 1.64949 20.2889 0.156194 16.3146 0.203227C10.265 0.203227 4.73275 3.61311 2.0166 9.02189L7.33132 13.1431C8.59532 9.35112 12.1404 6.53503 16.3146 6.53503Z" fill="#EA4335"/>
</g>
<defs>
<clipPath id="clip0">
<rect x="0.317383" y="0.203125" width="31.3651" height="32" fill="white"/>
</clipPath>
</defs>
</svg>
