<svg width="48" height="48" viewBox="0 0 48 48" fill="none" xmlns="http://www.w3.org/2000/svg">
<path d="M23.948 44.1431C23.1771 43.8185 22.8525 43.2505 22.8931 42.439C22.9337 41.5464 22.8931 40.6539 22.8931 39.7207C22.6902 39.7207 22.4873 39.7207 22.3251 39.7207C20.0936 39.8424 17.8621 39.8424 15.6306 39.315C13.6832 38.8687 12.2631 37.8544 11.4111 36.0286C10.3157 33.7566 9.62595 31.3222 8.97679 28.8879C8.61164 27.4273 8.28707 25.9261 7.96249 24.425C7.67848 23.1672 8.48992 22.3963 9.74766 22.6398C10.1128 22.7209 10.478 22.7615 10.9243 22.8426C10.8837 22.6398 10.8431 22.5181 10.8025 22.3963C10.4374 20.7735 10.0317 19.11 9.70709 17.4871C9.46366 16.3511 10.2751 15.5802 11.3706 15.7831C11.9386 15.9048 12.5066 16.0265 13.1557 16.1482C13.1152 15.9454 13.0746 15.7831 13.034 15.6208C12.7906 14.4847 12.5066 13.3893 12.3037 12.2533C12.1008 11.1578 12.8717 10.3464 13.9672 10.5898C15.2249 10.8332 16.4421 11.1173 17.6998 11.4013C17.9838 11.4824 18.1055 11.4013 18.2273 11.1578C19.769 8.80463 21.3513 6.49202 22.9336 4.1794C23.6639 3.12453 24.7188 3.12453 25.4491 4.1794C27.0314 6.49202 28.6138 8.8452 30.1555 11.1578C30.3178 11.3607 30.3989 11.4418 30.6829 11.3607C31.9001 11.0767 33.1173 10.7927 34.3344 10.5492C35.511 10.3058 36.3225 11.0767 36.0791 12.2533C35.8356 13.4704 35.5516 14.647 35.2676 15.8642C35.2676 15.9454 35.2676 15.9859 35.227 16.1076C35.8356 15.9859 36.4036 15.8642 36.9716 15.7831C38.1482 15.5396 38.9191 16.3105 38.6757 17.4871C38.3511 19.11 37.9454 20.7329 37.5802 22.3558C37.5396 22.4775 37.4991 22.5992 37.4585 22.8021C37.8642 22.7209 38.2294 22.6803 38.6351 22.5992C39.974 22.3558 40.7449 23.0861 40.4609 24.425C39.8117 27.7113 39.0408 30.9571 37.8642 34.0811C37.6614 34.6492 37.3774 35.1766 37.1745 35.704C36.2819 37.7732 34.659 38.9092 32.4681 39.315C30.4395 39.7207 28.4515 39.7207 26.4228 39.6395C26.1794 39.6395 25.9766 39.599 25.7331 39.599C25.6926 39.599 25.652 39.599 25.5708 39.6395C25.5708 39.8018 25.5708 40.0047 25.5708 40.167C25.5708 40.8973 25.5303 41.6276 25.5708 42.3579C25.6114 43.2099 25.2868 43.7779 24.516 44.0619C24.3943 44.1431 24.1914 44.1431 23.948 44.1431ZM11.046 25.6421C11.2488 26.5753 11.4517 27.3867 11.6546 28.1982C12.2226 30.3891 12.8312 32.58 13.8049 34.6897C14.3323 35.7852 15.1032 36.4343 16.2798 36.6778C18.3896 37.1241 20.4993 37.1241 22.6496 36.9618C22.6902 36.9618 22.7308 36.9212 22.7713 36.9212C22.7713 34.9737 22.6902 33.0263 22.2033 31.1194C21.8788 29.7805 21.1485 28.8068 19.8502 28.3199C18.2678 27.7519 16.6855 27.1839 15.1032 26.6564C13.8049 26.2507 12.466 25.9667 11.046 25.6421ZM25.8143 36.8806C25.8954 36.9212 25.9766 36.9212 26.0171 36.9212C27.8834 37.0429 29.7092 37.0429 31.5755 36.7589C33.1173 36.5155 34.2533 35.9069 34.9025 34.4057C35.795 32.2554 36.4442 30.0239 37.0122 27.7924C37.1745 27.1027 37.3368 26.413 37.4991 25.6421C37.2962 25.6827 37.1745 25.6827 37.0528 25.7233C36.3631 25.8856 35.7139 26.0478 35.0242 26.2101C32.7927 26.7781 30.6018 27.3867 28.492 28.3605C27.5183 28.8068 26.8286 29.4965 26.504 30.5514C25.8954 32.6205 25.7737 34.7303 25.8143 36.8806ZM18.9981 24.993C21.1079 25.8856 23.2988 26.5753 24.3131 28.9285C25.368 26.5347 27.5589 25.845 29.6686 24.9524C28.208 21.6255 26.3417 18.542 24.3537 15.4585C22.3251 18.542 20.4587 21.6255 18.9981 24.993ZM24.2725 6.97889C23.0554 8.80464 21.9193 10.5492 20.7833 12.2533C21.4325 12.5373 22.0005 12.7807 22.6091 13.0647C22.7714 12.8213 22.9337 12.5779 23.0959 12.3344C23.7451 11.3607 24.8811 11.4013 25.5303 12.3344C25.6926 12.5779 25.8548 12.8213 26.0171 13.0241C26.6257 12.7401 27.1937 12.4967 27.8023 12.2533C26.6257 10.5492 25.4897 8.80464 24.2725 6.97889ZM16.3204 24.1409C16.9695 22.8426 17.5781 21.5443 18.2273 20.2054C16.4015 19.7186 14.6569 19.2317 12.8717 18.7854C12.8312 18.826 12.8312 18.8666 12.7906 18.9071C13.1963 20.4083 13.602 21.8689 14.0077 23.3295C14.0483 23.4106 14.1295 23.5324 14.2106 23.5729C14.9409 23.7758 15.6306 23.9787 16.3204 24.1409ZM30.3989 20.2054C30.4395 20.3272 30.4395 20.3677 30.4395 20.4083C31.0075 21.5849 31.5755 22.7615 32.1435 23.9381C32.1841 24.0192 32.387 24.1004 32.4681 24.1004C32.7521 24.0598 33.0361 23.8975 33.3607 23.8975C34.2939 23.8569 34.659 23.3295 34.8619 22.4775C35.1053 21.3009 35.4705 20.1243 35.795 18.826C33.9287 19.2723 32.1841 19.7186 30.3989 20.2054ZM15.4278 13.5922C15.7118 14.6876 15.9958 15.6614 16.2798 16.5945C16.3204 16.7162 16.4421 16.8379 16.5638 16.8785C17.497 17.1625 18.4707 17.4465 19.4039 17.7305C19.485 17.7711 19.6879 17.7305 19.7284 17.69C20.2153 16.9191 20.6616 16.1482 21.1485 15.3368C19.2821 14.5659 17.4158 14.079 15.4278 13.5922ZM33.1579 13.5922C31.1698 14.079 29.3035 14.5659 27.5183 15.3368C28.0052 16.1482 28.4515 16.9191 28.9383 17.6494C28.9789 17.7305 29.1818 17.7711 29.2629 17.7305C30.1961 17.4465 31.1292 17.2031 32.0218 16.8785C32.1436 16.8379 32.2652 16.7162 32.3058 16.5945C32.5898 15.6614 32.8333 14.6876 33.1579 13.5922Z" fill="#493630"/>
</svg>
