<svg width="64" height="64" viewBox="0 0 64 64" fill="none" xmlns="http://www.w3.org/2000/svg">
<path d="M31.9306 58.8574C30.9028 58.4246 30.47 57.6673 30.5241 56.5853C30.5782 55.3952 30.5241 54.2051 30.5241 52.9609C30.2536 52.9609 29.9831 52.9609 29.7667 52.9609C26.7915 53.1232 23.8162 53.1232 20.8409 52.4199C18.2442 51.8249 16.3509 50.4725 15.2148 48.0381C13.7542 45.0087 12.8346 41.763 11.9691 38.5172C11.4822 36.5697 11.0494 34.5681 10.6167 32.5666C10.238 30.8896 11.3199 29.8618 12.9969 30.1863C13.4838 30.2945 13.9706 30.3486 14.5657 30.4568C14.5116 30.1863 14.4575 30.0241 14.4034 29.8618C13.9165 27.6979 13.3756 25.48 12.9428 23.3161C12.6182 21.8014 13.7001 20.7736 15.1607 21.0441C15.9181 21.2064 16.6754 21.3686 17.541 21.5309C17.4869 21.2605 17.4328 21.0441 17.3787 20.8277C17.0541 19.313 16.6754 17.8524 16.4049 16.3377C16.1345 14.8771 17.1623 13.7952 18.6229 14.1197C20.2999 14.4443 21.9228 14.823 23.5998 15.2017C23.9784 15.3099 24.1407 15.2017 24.303 14.8771C26.3587 11.7395 28.4684 8.65601 30.5782 5.57252C31.5519 4.16601 32.9584 4.16601 33.9322 5.57252C36.0419 8.65601 38.1517 11.7936 40.2073 14.8771C40.4237 15.1476 40.5319 15.2558 40.9106 15.1476C42.5335 14.7689 44.1564 14.3902 45.7792 14.0656C47.348 13.7411 48.43 14.7689 48.1054 16.3377C47.7808 17.9606 47.4022 19.5294 47.0235 21.1523C47.0235 21.2604 47.0235 21.3145 46.9694 21.4768C47.7808 21.3145 48.5382 21.1523 49.2955 21.0441C50.8643 20.7195 51.8921 21.7473 51.5676 23.3161C51.1348 25.48 50.5938 27.6438 50.107 29.8077C50.0529 29.97 49.9988 30.1322 49.9447 30.4027C50.4856 30.2945 50.9725 30.2404 51.5135 30.1322C53.2987 29.8077 54.3265 30.7814 53.9478 32.5666C53.0823 36.9484 52.0544 41.2761 50.4856 45.4415C50.2152 46.1988 49.8365 46.9021 49.566 47.6054C48.3759 50.3643 46.212 51.879 43.2908 52.4199C40.586 52.9609 37.9353 52.9609 35.2305 52.8527C34.9059 52.8527 34.6354 52.7986 34.3109 52.7986C34.2568 52.7986 34.2026 52.7986 34.0945 52.8527C34.0945 53.0691 34.0945 53.3396 34.0945 53.556C34.0945 54.5297 34.0404 55.5034 34.0945 56.4772C34.1486 57.6132 33.7158 58.3705 32.688 58.7492C32.5257 58.8574 32.2552 58.8574 31.9306 58.8574ZM14.728 34.1895C14.9985 35.4337 15.2689 36.5156 15.5394 37.5975C16.2968 40.5187 17.1082 43.4399 18.4065 46.2529C19.1098 47.7135 20.1376 48.5791 21.7064 48.9037C24.5194 49.4987 27.3324 49.4987 30.1995 49.2823C30.2536 49.2823 30.3077 49.2282 30.3618 49.2282C30.3618 46.6316 30.2536 44.035 29.6045 41.4925C29.1717 39.7073 28.198 38.409 26.4669 37.7598C24.3571 37.0025 22.2474 36.2451 20.1376 35.5419C18.4065 35.0009 16.6213 34.6222 14.728 34.1895ZM34.419 49.1742C34.5272 49.2283 34.6354 49.2282 34.6895 49.2282C37.1779 49.3905 39.6123 49.3905 42.1007 49.0119C44.1564 48.6873 45.6711 47.8758 46.5366 45.8743C47.7267 43.0072 48.5923 40.0319 49.3496 37.0566C49.566 36.1369 49.7824 35.2173 49.9988 34.1895C49.7283 34.2436 49.566 34.2436 49.4037 34.2977C48.4841 34.5141 47.6185 34.7304 46.6989 34.9468C43.7236 35.7042 40.8024 36.5156 37.9894 37.8139C36.6911 38.409 35.7714 39.3286 35.3387 40.7351C34.5272 43.494 34.3649 46.3071 34.419 49.1742ZM25.3308 33.3239C28.1439 34.514 31.0651 35.4337 32.4175 38.5713C33.824 35.3796 36.7452 34.4599 39.5582 33.2698C37.6107 28.8339 35.1223 24.7226 32.4716 20.6113C29.7667 24.7226 27.2783 28.8339 25.3308 33.3239ZM32.3634 9.30516C30.7405 11.7395 29.2258 14.0656 27.7111 16.3377C28.5766 16.7164 29.334 17.0409 30.1454 17.4196C30.3618 17.095 30.5782 16.7705 30.7946 16.4459C31.6601 15.1476 33.1748 15.2017 34.0404 16.4459C34.2568 16.7705 34.4731 17.095 34.6895 17.3655C35.5009 16.9868 36.2583 16.6623 37.0698 16.3377C35.501 14.0656 33.9863 11.7395 32.3634 9.30516ZM21.7605 32.1879C22.626 30.4568 23.4375 28.7257 24.303 26.9406C21.8687 26.2914 19.5425 25.6423 17.1623 25.0472C17.1082 25.1013 17.1082 25.1554 17.0541 25.2095C17.5951 27.211 18.136 29.1585 18.677 31.106C18.7311 31.2142 18.8393 31.3765 18.9475 31.4306C19.9212 31.701 20.8409 31.9715 21.7605 32.1879ZM40.5319 26.9406C40.586 27.1029 40.586 27.157 40.586 27.2111C41.3434 28.7798 42.1007 30.3486 42.8581 31.9174C42.9122 32.0256 43.1826 32.1338 43.2908 32.1338C43.6695 32.0797 44.0482 31.8633 44.481 31.8633C45.7252 31.8092 46.212 31.106 46.4825 29.97C46.8071 28.4012 47.294 26.8324 47.7267 25.1013C45.2383 25.6964 42.9122 26.2914 40.5319 26.9406ZM20.5704 18.1229C20.949 19.5835 21.3277 20.8818 21.7064 22.126C21.7605 22.2883 21.9228 22.4506 22.0851 22.5047C23.3293 22.8833 24.6276 23.262 25.8718 23.6407C25.98 23.6948 26.2505 23.6407 26.3046 23.5866C26.9537 22.5588 27.5488 21.5309 28.1979 20.449C25.7095 19.4212 23.2211 18.772 20.5704 18.1229ZM44.2105 18.1229C41.5598 18.772 39.0713 19.4212 36.6911 20.449C37.3402 21.5309 37.9353 22.5588 38.5844 23.5325C38.6385 23.6407 38.909 23.6948 39.0172 23.6407C40.2614 23.262 41.5057 22.9374 42.6958 22.5047C42.8581 22.4506 43.0203 22.2883 43.0744 22.126C43.4531 20.8818 43.7777 19.5835 44.2105 18.1229Z" fill="#493630"/>
<path d="M14.728 34.1895C16.6214 34.6764 18.4066 35.0551 20.0836 35.5419C22.2474 36.1911 24.3031 36.9484 26.4128 37.7599C28.1439 38.409 29.1176 39.7073 29.5504 41.4925C30.1996 44.035 30.3078 46.6317 30.3078 49.2283C30.2537 49.2824 30.1996 49.2824 30.1455 49.2824C27.2784 49.4988 24.4654 49.4988 21.6524 48.9037C20.0836 48.5791 19.0016 47.7136 18.3525 46.253C17.0542 43.4941 16.2427 40.5729 15.4854 37.5976C15.2149 36.4616 14.9985 35.3796 14.728 34.1895Z" fill="#F2D20A"/>
<path d="M34.4189 49.1742C34.4189 46.3071 34.5813 43.4941 35.3927 40.7352C35.8255 39.3287 36.7451 38.409 38.0434 37.814C40.8023 36.5157 43.7776 35.7042 46.7529 34.9469C47.6185 34.7305 48.5381 34.5141 49.4578 34.2977C49.62 34.2436 49.7823 34.2436 50.0528 34.1895C49.8364 35.2173 49.62 36.137 49.4036 37.0566C48.6463 40.0319 47.7807 43.0072 46.5906 45.8743C45.7251 47.93 44.1563 48.7414 42.1547 49.0119C39.6663 49.3906 37.232 49.3906 34.7435 49.2283C34.5813 49.2283 34.5271 49.2283 34.4189 49.1742Z" fill="#F2D20A"/>
<path d="M25.3311 33.3239C27.2785 28.888 29.767 24.7767 32.4177 20.6654C35.0684 24.7767 37.5568 28.888 39.5043 33.3239C36.6913 34.514 33.7701 35.3796 32.3636 38.6254C31.0112 35.3796 28.09 34.514 25.3311 33.3239Z" fill="#F2D20A"/>
<path d="M32.3636 9.30515C33.9865 11.7395 35.5012 14.0115 37.0159 16.3377C36.2045 16.7163 35.4471 17.0409 34.6357 17.3655C34.4193 17.0409 34.2029 16.7704 33.9865 16.4459C33.121 15.1476 31.6604 15.1476 30.7407 16.4459C30.5243 16.7704 30.3079 17.095 30.0916 17.4196C29.2801 17.095 28.5228 16.7163 27.6572 16.3377C29.226 14.0656 30.7407 11.7395 32.3636 9.30515Z" fill="#F2D20A"/>
<path d="M21.7606 32.1879C20.8409 31.9715 19.8672 31.7011 18.9476 31.4306C18.8394 31.3765 18.6771 31.2142 18.6771 31.106C18.1361 29.1585 17.5952 27.157 17.0542 25.2095C17.1083 25.1554 17.1083 25.1013 17.1624 25.0472C19.4885 25.6964 21.8688 26.2914 24.3031 26.9406C23.4376 28.7258 22.6261 30.4568 21.7606 32.1879Z" fill="#F2D20A"/>
<path d="M40.5322 26.9406C42.9125 26.2914 45.2386 25.6964 47.6729 25.0472C47.2401 26.7783 46.7533 28.3471 46.4287 29.9159C46.2123 31.106 45.6713 31.7552 44.4271 31.8093C44.0485 31.8093 43.6698 32.0256 43.237 32.0797C43.0748 32.0797 42.8583 32.0256 42.8042 31.8634C42.0469 30.2946 41.2896 28.7258 40.5322 27.157C40.5863 27.157 40.5863 27.1029 40.5322 26.9406Z" fill="#F2D20A"/>
<path d="M20.5703 18.1229C23.221 18.7721 25.7095 19.4212 28.1438 20.5031C27.4946 21.5851 26.8455 22.6129 26.2504 23.6407C26.1963 23.7489 25.98 23.7489 25.8177 23.6948C24.5734 23.3162 23.2751 22.9375 22.0309 22.5588C21.8686 22.5047 21.7063 22.3424 21.6522 22.1801C21.2736 20.8818 20.949 19.5835 20.5703 18.1229Z" fill="#F2D20A"/>
<path d="M44.2108 18.1229C43.8321 19.5835 43.4534 20.8818 43.0748 22.1801C43.0207 22.3424 42.8584 22.5047 42.6961 22.5588C41.4519 22.9375 40.2618 23.3162 39.0175 23.6948C38.9093 23.7489 38.6389 23.6948 38.5848 23.5866C37.9356 22.6129 37.3406 21.5851 36.6914 20.5031C39.0716 19.4212 41.5601 18.7721 44.2108 18.1229Z" fill="#F2D20A"/>
</svg>
