<svg width="170" height="40" viewBox="0 0 170 40" fill="none" xmlns="http://www.w3.org/2000/svg">
<path d="M21.9832 0V15.783H24.6448V25.3021H18.7301V20.8631H5.91476V25.3021H0V15.783C1.52798 15.7337 2.66164 14.8459 3.40099 13.1689C4.14033 11.492 4.53465 8.77928 4.53465 5.03083V0H21.9832ZM15.3784 5.08015H10.6466V6.06658C10.6466 8.68064 10.4001 10.8015 9.95651 12.4291C9.5129 14.0567 8.97072 15.1911 8.28066 15.783H15.3291V5.08015H15.3784Z" fill="#1D1918"/>
<path d="M26.3203 0H38.8399C41.1565 0 42.9309 0.641184 44.1139 1.87423C45.3461 3.10728 45.9376 4.78422 45.9376 6.80641C45.9376 8.97657 45.2968 10.7028 44.0646 12.0345C42.8323 13.3662 41.0579 14.0567 38.7413 14.0567H32.9251V20.8631H26.3203V0ZM32.9251 4.38964V9.7164H36.6711C37.4598 9.7164 38.1498 9.46979 38.6427 9.02589C39.1356 8.53268 39.3821 7.89149 39.3821 7.05302C39.3821 6.31319 39.1849 5.72133 38.7413 5.17879C38.2977 4.68557 37.6076 4.38964 36.6711 4.38964H32.9251Z" fill="#1D1918"/>
<path d="M60.5273 0H67.3293L60.133 15.0925C59.6894 16.0789 59.2458 16.8681 58.9007 17.5092C58.5557 18.1504 58.1121 18.693 57.6685 19.1369C57.2249 19.5808 56.8306 19.926 56.4855 20.1233C56.1405 20.3699 55.6476 20.5179 55.0068 20.6658C54.3661 20.8138 53.8239 20.8631 53.2817 20.8631C52.7888 20.8631 52.0495 20.9125 51.0637 20.9125H49.2892V15.783H50.7679C51.3101 15.783 51.7044 15.783 52.0002 15.7337C52.2959 15.6843 52.6409 15.5857 52.9367 15.3391C53.2324 15.1418 53.4789 14.6486 53.6267 14.254L46.0361 0H53.5282L57.1756 8.18742L60.5273 0Z" fill="#1D1918"/>
<path d="M79.5534 0H85.7146V7.59556H86.8483C87.8341 7.59556 88.4748 7.39827 88.7706 6.95438C89.0663 6.51048 89.3127 5.72133 89.4113 4.48829C89.6085 2.36745 90.1014 0.887793 90.8407 0H97.5934C96.6076 0.887793 95.9176 2.66338 95.5725 5.27744C95.2275 7.79285 94.0446 9.2725 92.073 9.7164C93.2066 9.91369 94.0938 10.4069 94.7346 11.0974C95.3754 11.7879 95.7697 12.9223 95.9176 14.5006C96.164 17.4599 96.8541 19.5808 97.8891 20.9125H91.1365C90.4957 19.6794 90.1014 17.8545 89.9042 15.5364C89.8549 14.5499 89.6085 13.8101 89.1649 13.3662C88.7213 12.9223 87.9819 12.6757 86.9468 12.6757H85.6653V20.9125H79.5041V12.6757H78.2226C77.1875 12.6757 76.4481 12.9223 76.0045 13.3662C75.5609 13.8101 75.3145 14.5499 75.2652 15.5364C75.1173 17.9038 74.723 19.6794 74.033 20.9125H67.2803C68.3646 19.6301 69.0054 17.4599 69.2519 14.5006C69.3997 12.9223 69.794 11.7879 70.4348 11.0974C71.0756 10.4069 71.9628 9.96301 73.0965 9.7164C71.1249 9.2725 69.9419 7.79285 69.5969 5.27744C69.2026 2.61406 68.5618 0.887793 67.576 0H74.4273C75.1666 0.887793 75.6102 2.36745 75.8567 4.48829C75.9552 5.67201 76.2017 6.51048 76.4974 6.95438C76.7932 7.39827 77.4339 7.59556 78.4197 7.59556H79.5534V0Z" fill="#1D1918"/>
<path d="M99.3184 0H105.923V10.4562L112.528 2.2688V0H119.133V20.9125H112.528V10.3083L105.923 18.4957V20.9125H99.3184V0Z" fill="#1D1918"/>
<path d="M121.795 0H127.956V15.783H132.392V0H138.504V15.783H142.94V0H149.101V15.783H151.763V25.3021H145.848V20.8631H121.795V0Z" fill="#1D1918"/>
<path d="M170 20.9125H153.39V0H170V4.53761H160.044V7.6942H170V12.2318H160.044V16.3255H170V20.9125Z" fill="#1D1918"/>
<path d="M36.2772 33.243V38.3231H36.918V40H36.4251V38.8163H31.989V40H31.4961V38.3231C31.8411 38.2245 32.1369 37.9285 32.3833 37.4353C32.6298 36.8928 32.7776 36.1529 32.7776 35.1665V33.243H36.2772ZM33.3198 33.7362V34.7226C33.3198 36.6955 33.0241 37.8792 32.3833 38.3231H35.735V33.6868H33.3198V33.7362Z" fill="#1D1918"/>
<path d="M42.6848 37.0901L44.3606 33.243H44.9028L43.2763 36.9914C43.0791 37.386 42.9805 37.6819 42.8326 37.8792C42.7341 38.0765 42.5862 38.2738 42.4383 38.4217C42.2905 38.5697 42.1426 38.6684 41.9454 38.7177C41.7976 38.767 41.5511 38.767 41.3047 38.8163H41.0582V38.3231H41.3047C41.6004 38.3231 41.8469 38.2738 41.9947 38.1751C42.1426 38.0765 42.2905 37.8792 42.4383 37.6326L40.3682 33.243H40.9596L42.6848 37.0901Z" fill="#1D1918"/>
<path d="M54.7609 38.8163H48.7969V33.243H49.3391V38.3231H51.5571V33.243H52.0993V38.3231H54.3173V33.243H54.8595V38.8163H54.7609Z" fill="#1D1918"/>
<path d="M63.5833 38.8163H62.9918L62.351 37.1394H59.8373L59.1965 38.8163H58.6543L60.9216 33.243H61.3652L63.5833 38.8163ZM62.2032 36.7448L61.1188 33.8841L60.0344 36.7448H62.2032Z" fill="#1D1918"/>
<path d="M72.6533 33.243H73.1955V35.6597H74.5263C74.8714 35.6597 75.1178 35.6104 75.315 35.5118C75.5121 35.4131 75.66 35.2651 75.7093 35.1172C75.7586 34.9692 75.8572 34.7719 75.9064 34.5746C75.9557 34.3774 76.005 34.1801 76.0543 33.9335C76.1036 33.6868 76.2022 33.4896 76.35 33.2923H76.9415C76.7937 33.4896 76.6458 33.6868 76.5965 33.9828C76.4979 34.2787 76.4486 34.5253 76.3993 34.7719C76.3501 35.0185 76.2515 35.2158 76.1529 35.4624C76.005 35.6597 75.8079 35.857 75.5614 35.9557C75.8079 36.005 76.0543 36.1529 76.2022 36.3995C76.3501 36.6462 76.4486 36.8928 76.4979 37.1887C76.5472 37.4846 76.5965 37.7806 76.6951 38.1258C76.7937 38.4711 76.8922 38.7177 77.0401 38.915H76.4486C76.3501 38.7177 76.2515 38.4711 76.2022 38.2245C76.1529 37.9285 76.0543 37.6819 76.0543 37.4846C76.005 37.2873 75.9557 37.0407 75.8572 36.8434C75.7586 36.6462 75.6107 36.4982 75.4628 36.3502C75.2657 36.2516 75.0192 36.2023 74.7235 36.2023H73.3434V38.915H72.8012V33.243H72.6533Z" fill="#1D1918"/>
<path d="M80.5889 36.0543C80.5889 35.8077 80.5889 35.6104 80.6382 35.3638C80.6874 35.1172 80.7367 34.8706 80.8353 34.5746C80.9339 34.2787 81.0818 34.0814 81.2789 33.8348C81.4268 33.6375 81.6732 33.4402 81.969 33.3416C82.2647 33.1936 82.6097 33.1443 83.0041 33.1443C83.7434 33.1443 84.3349 33.3909 84.7292 33.8841C85.1728 34.3773 85.37 35.0678 85.37 36.005C85.37 36.3995 85.3207 36.7448 85.2221 37.09C85.1235 37.4353 85.0249 37.7312 84.8278 38.0271C84.6306 38.3231 84.3842 38.5697 84.0884 38.7177C83.7927 38.9149 83.3984 38.9643 83.0041 38.9643C82.659 38.9643 82.314 38.9149 82.0183 38.767C81.7225 38.619 81.4761 38.471 81.3282 38.2738C81.1311 38.0765 81.0325 37.8299 80.8846 37.5833C80.786 37.3366 80.6874 37.0407 80.6382 36.7941C80.5889 36.5475 80.5889 36.3009 80.5889 36.0543ZM81.1311 36.0543C81.1311 36.2516 81.1311 36.3995 81.1803 36.5968C81.1803 36.7941 81.2789 36.9914 81.3282 37.238C81.4268 37.4846 81.5254 37.6819 81.624 37.8792C81.7718 38.0765 81.9197 38.2244 82.1661 38.3231C82.4126 38.471 82.659 38.5204 82.9548 38.5204C83.2505 38.5204 83.497 38.471 83.6941 38.3724C83.8913 38.2738 84.0884 38.1258 84.2363 37.9778C84.3842 37.8299 84.4828 37.5833 84.5813 37.386C84.6799 37.1394 84.7292 36.9421 84.7785 36.6955C84.8278 36.4489 84.8278 36.2516 84.8278 36.005C84.8278 35.7583 84.7785 35.5117 84.7292 35.2651C84.6799 35.0185 84.5813 34.7719 84.4335 34.5253C84.2856 34.2787 84.1377 34.0814 83.842 33.8841C83.5955 33.7361 83.2998 33.6375 82.9548 33.6375C82.6097 33.6375 82.314 33.6868 82.0676 33.8348C81.8211 33.9828 81.624 34.18 81.4761 34.4267C81.3282 34.6733 81.2296 34.9199 81.1803 35.2158C81.1803 35.4624 81.1311 35.7583 81.1311 36.0543Z" fill="#1D1918"/>
<path d="M94.5373 38.8163H93.9951L94.0444 34.0814L92.2207 38.8163H91.8757L90.0027 34.0814C90.052 37.1887 90.0519 38.767 90.0519 38.8163H89.5098V33.243H90.1505L92.0235 37.9778L93.8472 33.243H94.488V38.8163H94.5373Z" fill="#1D1918"/>
<path d="M103.361 38.8163H102.819V33.7362H99.467V38.8163H98.9248V33.243H103.312V38.8163H103.361Z" fill="#1D1918"/>
<path d="M112.134 38.8163H111.543L110.902 37.1394H108.437L107.797 38.8163H107.205L109.472 33.243H109.916L112.134 38.8163ZM110.754 36.7448L109.67 33.8841L108.585 36.7448H110.754Z" fill="#1D1918"/>
<path d="M120.514 38.8163H119.971V36.2023H116.571V38.8163H116.028V33.243H116.571V35.709H119.971V33.243H120.514V38.8163Z" fill="#1D1918"/>
<path d="M128.942 38.8163V34.476L125.443 38.2244V38.8656H124.9V33.2429H125.443V37.4846L128.942 33.7361V33.1936H129.484V38.767H128.942V38.8163Z" fill="#1D1918"/>
<path d="M137.962 38.8163V34.476L134.462 38.2244V38.8656H133.92V33.2429H134.462V37.4846L137.962 33.7361V33.1936H138.504V38.767H137.962V38.8163Z" fill="#1D1918"/>
<path d="M12.667 35.2158H14.54L14.885 35.6104H13.1599V36.0049H15.2301L15.5751 36.3995H13.6528V36.7941H15.5751L15.2301 37.1887H13.1599V37.5832H14.885L14.54 37.9778H12.667V38.3724H14.195H15.723H16.1173H17.6452H18.6803H19.1732H20.5533L21.9334 36.8434H23.7572V36.4488H21.9334L20.5533 34.9199H19.1732H18.6803H17.6452H16.1173H15.723H14.195H12.667V35.2158ZM18.4832 36.7448L17.4481 37.8792H16.5609L17.5467 36.7941L17.596 36.7448H18.4832ZM17.596 36.3995L17.5467 36.3502L16.5609 35.2651H17.4481L18.4832 36.3995H17.596ZM15.0329 37.9285L16.0187 36.8434L16.068 36.7941H17.1031L16.068 37.9285H15.0329ZM17.9903 37.9285L19.0254 36.7941H20.0604L19.0254 37.9285H17.9903ZM20.4055 37.9285H19.5183L20.5533 36.7941H21.4406L20.4055 37.9285ZM20.4055 35.2158L21.4406 36.3502H20.5533L19.5183 35.2158H20.4055ZM19.0254 35.2158L20.0604 36.3502H19.0254L17.9903 35.2158H19.0254ZM17.1031 36.3995H16.068L16.0187 36.3502L15.0329 35.2651H16.068L17.1031 36.3995Z" fill="#1D1918"/>
<path d="M155.952 37.9285H154.079L153.734 37.5339H155.46V37.1394H153.389L153.044 36.7448H154.967V36.3502H153.044L153.389 35.9556H155.46V35.5611H153.734L154.079 35.1665H155.952V34.7719H154.425H152.897H152.502H150.974H149.939H149.446H148.066L146.686 36.3009H144.862V36.6955H146.686L148.066 38.2244H149.446H149.939H150.974H152.502H152.897H154.425H155.952V37.9285ZM150.136 36.3995L151.171 35.2651H152.059L151.073 36.3502L151.024 36.3995H150.136ZM151.024 36.7448L151.073 36.7941L152.059 37.8792H151.171L150.136 36.7448H151.024ZM153.587 35.2158L152.601 36.3009L152.551 36.3502H151.516L152.551 35.2158H153.587ZM150.629 35.2158L149.594 36.3502H148.559L149.594 35.2158H150.629ZM148.214 35.2158H149.101L148.066 36.3502H147.179L148.214 35.2158ZM148.214 37.9285L147.179 36.7941H148.066L149.101 37.9285H148.214ZM149.594 37.9285L148.559 36.7941H149.594L150.629 37.9285H149.594ZM151.516 36.7448H152.551L152.601 36.7941L153.587 37.8792H152.551L151.516 36.7448Z" fill="#1D1918"/>
</svg>
