<svg width="254" height="45" viewBox="0 0 254 45" fill="none" xmlns="http://www.w3.org/2000/svg">
<path d="M69.9934 36.2479V35.4947H70.1817V35.3064H69.4285V35.4947H69.6168L69.9934 36.2479ZM71.4057 36.2479V35.4947H71.2174L71.029 36.0596L70.8407 35.4947H70.6525V36.2479H70.8407V35.683L71.029 36.2479H71.2174L71.4057 35.683V36.2479ZM110.29 30.034V20.8072C110.29 17.3237 108.124 14.9699 104.452 14.9699C102.475 14.9699 100.498 15.5348 99.18 17.512C98.2385 15.9114 96.638 14.9699 94.2842 14.9699C92.6837 14.9699 91.1773 15.3465 89.9533 17.1354V15.3465H86.8463V30.2223H90.1416V22.0312C90.1416 19.4891 91.5538 18.0769 93.6251 18.0769C95.6965 18.0769 96.7321 19.4891 96.7321 22.0312V30.2223H100.027V22.0312C100.027 19.4891 101.628 18.0769 103.511 18.0769C105.676 18.0769 106.806 19.4891 106.806 22.0312V30.2223H110.101V30.034H110.29ZM158.118 15.3465H152.846V10.8273H149.551V15.3465H146.82V18.2652H149.739V24.9499C149.739 28.4334 151.151 30.4106 154.823 30.4106C156.235 30.4106 157.742 30.034 158.966 29.2808L158.024 26.5504C157.083 27.1153 156.047 27.3036 155.105 27.3036C153.505 27.3036 152.94 26.3621 152.94 24.7616V18.0769H158.212V15.3465H158.118ZM185.704 14.9699C183.915 14.9699 182.597 15.7231 181.75 17.1354V15.3465H178.643V30.2223H181.75V22.0312C181.75 19.6774 182.691 18.3593 184.857 18.3593C185.422 18.3593 186.269 18.3593 186.834 18.7359L187.776 15.8173C187.211 15.1582 186.269 14.9699 185.704 14.9699ZM144.278 16.5705C142.678 15.629 140.606 14.9699 138.252 14.9699C134.581 14.9699 132.227 16.7588 132.227 19.6774C132.227 22.0312 134.016 23.6318 137.311 24.0084L138.912 24.1967C140.7 24.385 141.454 24.9499 141.454 25.7972C141.454 26.927 140.324 27.5861 138.158 27.5861C135.993 27.5861 134.204 26.8329 133.263 25.9855L131.662 28.5276C133.451 29.9398 135.616 30.5047 138.064 30.5047C142.395 30.5047 144.749 28.5276 144.749 25.6089C144.749 23.0668 142.772 21.6546 139.665 21.0897L138.064 20.9014C136.652 20.7131 135.522 20.5248 135.522 19.4891C135.522 18.3593 136.464 17.7003 138.252 17.7003C140.23 17.7003 141.924 18.4535 142.96 18.8301L144.278 16.5705ZM230.237 14.9699C228.449 14.9699 227.13 15.7231 226.283 17.1354V15.3465H223.176V30.2223H226.283V22.0312C226.283 19.6774 227.225 18.3593 229.39 18.3593C229.955 18.3593 230.802 18.3593 231.367 18.7359L232.309 15.8173C231.838 15.1582 230.802 14.9699 230.237 14.9699ZM188.811 22.7844C188.811 27.3036 191.918 30.5989 196.626 30.5989C198.791 30.5989 200.298 30.034 201.898 28.81L200.298 26.268C199.168 27.0212 197.756 27.6802 196.343 27.6802C193.801 27.6802 191.824 25.7031 191.824 22.9727C191.824 20.054 193.801 18.2652 196.343 18.2652C197.756 18.2652 199.074 18.6418 200.298 19.6774L201.898 17.1354C200.298 16.0056 198.791 15.3465 196.626 15.3465C191.918 14.9699 188.811 18.2652 188.811 22.7844ZM218.939 22.7844V15.3465H215.738V17.1354C214.797 15.7231 213.196 14.9699 211.031 14.9699C206.888 14.9699 203.593 18.2652 203.593 22.7844C203.593 27.3036 206.888 30.5989 211.031 30.5989C213.196 30.5989 214.703 29.8457 215.738 28.4334V30.2223H218.845V22.7844H218.939ZM206.982 22.7844C206.982 20.2423 208.771 18.0769 211.501 18.0769C214.232 18.0769 216.021 20.054 216.021 22.7844C216.021 25.5148 214.232 27.4919 211.501 27.4919C208.771 27.4919 206.982 25.3265 206.982 22.7844ZM168.286 14.9699C163.956 14.9699 160.849 18.0769 160.849 22.7844C160.849 27.4919 163.956 30.5989 168.475 30.5989C170.64 30.5989 172.806 30.034 174.5 28.4334L172.9 26.0797C171.77 27.0212 170.169 27.6802 168.569 27.6802C166.403 27.6802 164.615 26.7387 164.05 24.1967H174.971C174.971 23.8201 174.971 23.4435 174.971 23.0669C175.159 18.0769 172.429 14.9699 168.286 14.9699ZM168.098 17.8886C170.264 17.8886 171.393 19.3008 171.77 21.3721H164.144C164.615 19.3008 165.933 17.8886 168.098 17.8886ZM248.785 22.7844V9.50918H245.678V17.3237C244.737 15.9114 243.136 15.1582 240.971 15.1582C236.828 15.1582 233.533 18.4535 233.533 22.9727C233.533 27.4919 236.828 30.7872 240.971 30.7872C243.136 30.7872 244.642 30.034 245.678 28.6217V30.4106H248.785V22.7844ZM252.551 28.6217C252.739 28.6217 252.739 28.6217 252.928 28.6217C253.116 28.6217 253.116 28.81 253.304 28.81C253.304 28.81 253.493 28.9983 253.493 29.1866C253.493 29.3749 253.493 29.3749 253.493 29.5632C253.493 29.7515 253.493 29.7515 253.493 29.9398C253.493 30.1281 253.304 30.1281 253.304 30.3164C253.304 30.3164 253.116 30.5047 252.928 30.5047C252.739 30.5047 252.739 30.5047 252.551 30.5047C252.363 30.5047 252.363 30.5047 252.174 30.5047C251.986 30.5047 251.986 30.3164 251.798 30.3164C251.798 30.3164 251.61 30.1281 251.61 29.9398C251.61 29.7515 251.61 29.7515 251.61 29.5632C251.61 29.3749 251.61 29.3749 251.61 29.1866C251.61 28.9983 251.798 28.9983 251.798 28.81C251.798 28.81 251.986 28.6217 252.174 28.6217C252.08 28.6217 252.363 28.6217 252.551 28.6217ZM252.551 30.4106C252.739 30.4106 252.739 30.4106 252.739 30.4106C252.739 30.4106 252.928 30.4106 252.928 30.2223L253.116 30.034V29.8457C253.116 29.6574 253.116 29.6574 253.116 29.6574C253.116 29.6574 253.116 29.4691 252.928 29.4691L252.739 29.2808H252.551C252.363 29.2808 252.363 29.2808 252.363 29.2808C252.363 29.2808 252.174 29.2808 252.174 29.4691L251.986 29.6574V29.8457C251.986 30.034 251.986 30.034 251.986 30.034C251.986 30.034 251.986 30.2223 252.174 30.2223L252.363 30.4106C252.363 30.4106 252.363 30.4106 252.551 30.4106ZM252.551 29.2808C252.739 29.2808 252.739 29.2808 252.739 29.2808V29.4691V29.6574H252.551L252.739 30.034H252.551L252.363 29.6574V30.034H252.174V29.2808C252.08 29.2808 252.551 29.2808 252.551 29.2808ZM252.363 29.4691V29.6574H252.551C252.551 29.6574 252.551 29.6574 252.739 29.6574C252.739 29.6574 252.739 29.6574 252.551 29.6574H252.363V29.4691ZM236.734 22.7844C236.734 20.2423 238.523 18.0769 241.253 18.0769C243.983 18.0769 245.772 20.054 245.772 22.7844C245.772 25.5148 243.983 27.4919 241.253 27.4919C238.428 27.4919 236.734 25.3265 236.734 22.7844ZM128.272 22.7844V15.3465H125.166V17.1354C124.224 15.7231 122.623 14.9699 120.458 14.9699C116.315 14.9699 113.02 18.2652 113.02 22.7844C113.02 27.3036 116.315 30.5989 120.458 30.5989C122.623 30.5989 124.13 29.8457 125.166 28.4334V30.2223H128.272V22.7844ZM116.315 22.7844C116.315 20.2423 118.104 18.0769 120.835 18.0769C123.565 18.0769 125.354 20.054 125.354 22.7844C125.354 25.5148 123.565 27.4919 120.835 27.4919C118.104 27.4919 116.315 25.3265 116.315 22.7844ZM34.2163 40.5788C34.4046 40.7671 34.5928 40.9554 34.7811 40.9554C31.2976 43.3092 26.9667 44.6273 22.4475 44.6273C10.1137 44.6273 0.133789 34.6474 0.133789 22.3136C0.133789 9.97994 10.1137 0 22.4475 0C26.9667 0 31.2034 1.41225 34.7811 3.67186C34.5928 3.86016 34.4046 3.86017 34.2163 4.04847C28.9438 8.56769 26.0252 15.1582 26.0252 22.0312C26.0252 29.4691 28.9438 36.0596 34.2163 40.5788ZM49.8452 0.470752C45.326 0.470752 41.0892 1.883 37.5115 4.14261C37.6998 4.33091 37.8881 4.51922 38.0764 4.51922C43.3488 9.03844 46.2675 15.629 46.2675 22.5019C46.2675 29.3749 43.3488 35.9655 38.0764 40.4847C37.8881 40.673 37.6998 40.8613 37.5115 40.8613C40.9951 43.215 45.326 44.5331 49.8452 44.5331C62.1789 44.5331 72.1589 34.5532 72.1589 22.2195C72.1589 10.2624 62.1789 0.470752 49.8452 0.470752ZM36.1934 5.17827C36.0051 5.36657 35.6285 5.55488 35.4402 5.93148C30.7327 10.0741 27.814 15.9114 27.814 22.7844C27.814 29.6574 30.7327 35.4947 35.4402 39.6373C35.6285 39.8256 36.0051 40.0139 36.1934 40.3905C36.3817 40.2022 36.7583 40.0139 36.9466 39.6373C41.6541 35.4947 44.5728 29.6574 44.5728 22.7844C44.5728 15.9114 41.6541 10.0741 36.9466 5.93148C36.7583 5.55488 36.3817 5.36657 36.1934 5.17827Z" fill="#807976"/>
</svg>
