<svg width="186" height="52" viewBox="0 0 186 52" fill="none" xmlns="http://www.w3.org/2000/svg">
<path d="M135.179 51.421C124.634 51.421 115.878 42.4768 116.443 31.7436C116.819 22.1403 124.634 14.6083 134.049 14.1375C144.782 13.5726 153.726 22.1403 153.726 32.8734C153.915 43.1358 145.347 51.421 135.179 51.421ZM135.179 19.1275C127.553 19.1275 121.339 25.5297 121.527 33.3442C121.904 40.4055 127.364 45.8662 134.426 46.2428C142.052 46.6194 148.642 40.5937 148.642 32.591C148.642 25.2472 142.617 19.1275 135.179 19.1275Z" fill="#807976"/>
<path d="M0.261719 32.4018C0.261719 22.7985 7.69961 14.984 17.0205 14.7957C26.8121 14.4191 35.0032 22.4219 35.0032 32.2135V32.5901V33.1551V50.5729H29.9191V33.0609V32.496V32.3077C29.9191 25.623 24.835 20.4448 18.4328 19.974C11.3715 19.5974 5.72245 25.2464 5.72245 32.1194V32.496V33.0609V50.4787H0.261719V33.0609V32.4018Z" fill="#807976"/>
<path d="M172.463 29.4841C167.567 29.1075 165.59 28.7309 164.272 27.1303C162.86 25.7181 162.671 23.2702 164.46 21.4813C165.873 19.8808 168.791 18.9393 171.898 18.9393C176.041 18.9393 179.901 20.7281 180.654 24.0234H185.738C184.985 17.3387 178.112 14.0435 171.522 14.0435C166.814 14.0435 162.577 15.644 160.224 18.3744C156.928 21.8579 157.117 27.9777 160.224 31.0846C163.142 33.815 166.908 34.1916 171.71 34.9448C179.713 35.698 180.654 38.0518 180.654 40.5938C180.654 44.9247 175.382 46.4311 171.898 46.4311C166.249 46.4311 162.954 44.2657 162.295 40.5938H157.022V40.7821C157.776 47.6551 163.425 51.8918 171.898 51.8918C178.959 51.8918 185.738 48.0317 185.738 40.7821C185.738 31.0846 175.947 29.8607 172.463 29.4841Z" fill="#807976"/>
<path d="M76.4293 26.1896L72.0984 30.5206C72.2867 31.2738 72.2867 32.3094 72.2867 32.8743C72.2867 40.5005 65.8844 46.7145 58.0699 46.5262C51.0086 46.1496 45.5479 40.6888 45.1713 33.6275C44.7947 26.0013 50.8203 19.4108 58.8231 19.4108C61.5535 19.4108 64.0956 20.164 66.261 21.7646L56.6577 31.3679L60.1413 34.8515L69.7446 25.2481L73.6048 21.388L73.4165 21.1997C69.9329 16.4921 64.2839 13.7618 58.3524 13.9501C48.3724 14.1384 40.1813 22.1412 40.1813 32.4977C39.993 42.8543 48.3724 51.6103 58.9173 51.6103C69.4622 51.6103 77.6533 43.2309 77.6533 32.8743C77.5591 30.3323 76.9942 28.3551 76.4293 26.1896Z" fill="#807976"/>
<path d="M100.626 12.7254V14.7026V14.8909V19.2218V50.8564H105.898V23.6469H113.336V18.9394H105.898V12.7254V12.3489C105.898 8.48868 109.005 5.28757 112.96 5.28757H113.336V0.0151367H112.771C106.087 0.0151367 100.626 5.28757 100.626 12.1606V12.7254Z" fill="#807976"/>
<path d="M82.8315 12.7254V14.7026V14.8909V19.2218V50.8564H88.104V23.6469H95.5419V18.9394H88.104V12.7254V12.3489C88.104 8.48868 91.2109 5.28757 95.1653 5.28757H95.5419V0.0151367H95.1653C88.4806 0.0151367 83.0198 5.28757 83.0198 12.1606V12.7254H82.8315Z" fill="#807976"/>
</svg>
