<svg width="84" height="91" viewBox="0 0 84 91" fill="none" xmlns="http://www.w3.org/2000/svg">
<path d="M0.442476 38.8576C0.876252 17.5669 18.5259 0.879883 39.8211 0.879883H44.4918C65.5117 0.879883 83.0605 17.1514 83.6404 38.1633C84.0709 53.763 83.9074 68.7924 81.8199 70.8799C77.2901 75.4097 41.8199 90.8799 41.8199 90.8799C41.8199 90.8799 5.23463 74.2946 1.81989 70.8799C0.254478 69.3145 0.12432 54.4735 0.442476 38.8576Z" fill="#B5443B"/>
<path d="M36.9614 48.3838C36.3577 47.3306 35.2709 46.6825 34.1036 46.6825C32.896 46.6825 31.8495 47.3306 31.2055 48.3838L29.1929 47.2091C30.1992 45.4673 32.091 44.3737 34.0633 44.3737C36.0356 44.3737 37.9275 45.4673 38.9338 47.2091L36.9614 48.3838Z" fill="#FFF9DF"/>
<path d="M51.5728 48.3838C50.969 47.3306 49.8822 46.6825 48.7149 46.6825C47.5073 46.6825 46.4608 47.3306 45.8168 48.3838L43.8042 47.2091C44.8105 45.4673 46.7023 44.3737 48.6746 44.3737C50.647 44.3737 52.5388 45.4673 53.5451 47.2091L51.5728 48.3838Z" fill="#FFF9DF"/>
<path d="M41.3891 71.0268C24.9262 71.0268 23.5576 62.1559 23.5576 53.0825H25.8922C25.8922 61.6294 27.0595 68.718 41.4293 68.718C55.7991 68.718 56.9664 61.6294 56.9664 53.0825H59.301C59.2608 62.1154 57.8922 71.0268 41.3891 71.0268Z" fill="#FFF9DF"/>
<path d="M25.8922 50.6116H23.5576V39.7559C23.5576 36.8395 25.9325 34.4901 28.8306 34.4901V36.8395C27.2205 36.8395 25.8922 38.1762 25.8922 39.7964V50.6116Z" fill="#FFF9DF"/>
<path d="M21.4643 43.6851H19.1699V34.3281C19.1699 30.7635 21.7863 27.7661 25.2077 27.2395C25.4089 26.0243 26.0127 23.999 27.8643 22.0952C31.0441 18.7737 36.4379 17.1129 43.9247 17.1129C56.1611 17.1129 64.0907 21.0825 65.7008 28.0496L63.4467 28.5762C62.0781 22.7838 54.9536 19.4218 43.9247 19.4218C37.1624 19.4218 32.2114 20.9205 29.5548 23.7154C27.4215 25.9433 27.4618 28.2927 27.4618 28.2927L27.502 29.5079H26.2945C23.6378 29.5079 21.5045 31.6547 21.5045 34.3281V43.6851H21.4643Z" fill="#FFF9DF"/>
<path d="M59.2607 50.6116H56.9262V39.7559C56.9262 38.1357 55.5979 36.799 53.9878 36.799V34.4496C56.8859 34.4496 59.2607 36.8395 59.2607 39.7154V50.6116Z" fill="#FFF9DF"/>
<path d="M60.4281 57.9028H58.0935V55.5534H60.4281C61.5551 55.5534 62.4407 54.6622 62.4407 53.5281V50.2066C62.4407 49.4369 62.0382 48.7483 61.3539 48.4243L60.7099 48.1002V34.3281C60.7099 31.6547 58.5765 29.5078 55.9199 29.5078V27.1584C59.8646 27.1584 63.0444 30.3584 63.0444 34.3281V46.723C64.1312 47.5331 64.7753 48.8293 64.7753 50.2066V53.5281C64.735 55.9584 62.8029 57.9028 60.4281 57.9028Z" fill="#FFF9DF"/>
<path d="M25.1272 57.9028H22.3901C20.0153 57.9028 18.043 55.9585 18.043 53.5687V50.2471C18.043 47.8573 19.975 45.913 22.3499 45.913H24.6845V48.2623H22.3499C21.2631 48.2623 20.3373 49.1535 20.3373 50.2876V53.6092C20.3373 54.7028 21.2228 55.6345 22.3499 55.6345H25.087V57.9028H25.1272Z" fill="#FFF9DF"/>
<path d="M43.9246 43.0369C38.2491 43.0369 33.8617 41.7407 30.8428 39.1483C27.3812 36.1914 27.1396 32.6268 27.1396 32.5053L29.4742 32.3433L28.3069 32.4243L29.4742 32.3433C29.4742 32.4648 29.7157 35.1382 32.4126 37.4471C35.5522 40.1205 40.8654 41.1736 47.7082 40.5255L47.9095 42.8344C46.5409 42.9559 45.2126 43.0369 43.9246 43.0369Z" fill="#FFF9DF"/>
<path d="M52.4179 41.9028C44.2468 41.9028 38.8934 38.1357 35.794 34.9357C32.6141 31.6547 30.9638 27.9687 31.0443 26.1459L33.3789 26.2269C33.3387 27.1585 34.506 30.237 37.4846 33.275C40.2619 36.1509 45.1726 39.6345 52.6192 39.513V41.8623C52.5387 41.9028 52.4582 41.9028 52.4179 41.9028Z" fill="#FFF9DF"/>
<path d="M62.4807 30.399C62.4002 30.1965 60.6291 24.9712 50.6064 24.4851L50.7272 22.1357C62.4807 22.7433 64.614 29.4269 64.7348 29.7104L62.4807 30.399Z" fill="#FFF9DF"/>
<path d="M53.1826 39.918C49.9223 38.0952 50.0028 34.3281 50.4858 32.5863L52.6996 33.1939C52.6594 33.3154 51.8543 36.4749 54.3097 37.8521L53.1826 39.918Z" fill="#FFF9DF"/>
<path d="M48.5536 64.0192H47.5876L47.3863 63.0876C46.9033 60.6167 46.541 58.8344 41.3888 58.8344C36.2366 58.8344 35.8744 60.6167 35.3913 63.0876L35.2303 64.0192H34.2643C32.0102 64.0192 28.2266 62.6015 28.2266 53.042H30.5612C30.5612 55.9584 30.9637 60.6167 33.3788 61.5078C34.1033 58.7534 35.6329 56.485 41.3888 56.485C47.1448 56.485 48.7146 58.7534 49.3989 61.5078C51.814 60.6167 52.2165 55.9179 52.2165 53.042H54.5511C54.5913 62.6015 50.8077 64.0192 48.5536 64.0192Z" fill="#FFF9DF"/>
<path d="M45.2528 62.6825H38.5308V65.0319H45.2528V62.6825Z" fill="#FFF9DF"/>
</svg>
