<svg width="262" height="36" viewBox="0 0 262 36" fill="none" xmlns="http://www.w3.org/2000/svg">
<path d="M18.9612 34.7585L26.1166 32.4047L29.3177 29.2036L30.73 23.5546V18.753V13.3864V7.54909V1.52349H23.3862V7.36079V13.1981V18.0939V23.9312V24.0254V24.1195L21.8798 28.0738L21.7857 28.2621L21.5974 28.3563L16.7016 30.3334L16.5133 30.4276L16.325 30.3334L10.4876 28.3563L10.2993 28.2621L10.2052 28.0738L8.69877 24.1195V24.0254V23.9312V18.5647V12.8215V7.45495V1.52349H1.35503V6.89004V13.1981V18.5647V23.3663L2.76729 29.0153L7.47481 32.7813L13.218 34.6643L18.9612 34.7585ZM18.9612 35.2292H13.1238L7.28651 33.2521L2.39069 29.2978L0.884277 23.4605V18.5647V13.1981V6.89004V1.05273H9.16952V7.36079V12.7273V18.5647V23.9312L10.6759 27.8855L16.5133 29.8627L21.4091 27.8855L22.9155 23.9312V18.0939V13.1981V7.36079V1.05273H31.2007V7.36079V13.1981V18.5647V23.4605L29.6943 29.2978L26.3049 32.6872L18.9612 35.2292Z" fill="#807976"/>
<path d="M47.7714 34.2875V27.9795H39.4861V34.2875H47.7714ZM48.3363 34.7583H39.0154V27.4146H48.3363V34.7583Z" fill="#807976"/>
<path d="M77.5228 34.2877L84.1133 32.8754L87.3144 28.7328V24.1194L84.9607 19.5061L80.7239 17.6231L79.9707 17.2464L80.6297 16.7757L84.8665 13.4804L86.1846 8.49045L83.4542 3.97124L77.3345 1.61748H71.5913H65.7539H57.0921V6.5133V11.8799V18.1879V24.0253V29.3919V34.2877H65.3773H71.2147H77.5228ZM77.6169 34.7584H71.2147H65.3773H56.6213V29.3919V24.0253V18.1879V11.8799V6.5133V1.14673H65.9422H71.7796H77.6169L83.925 3.59463L86.8437 8.49045L85.3373 13.857L80.9122 17.2464L85.3373 19.2236L87.7852 24.1194V29.0152L84.3958 33.4403L77.6169 34.7584Z" fill="#807976"/>
<path d="M73.0975 14.2341L76.2045 13.1043L77.5226 10.2798L76.0162 7.92608L73.0975 6.79629H65.8479V14.14L73.0975 14.2341ZM73.1917 14.7049H65.3772V6.41968H73.1917L76.2986 7.64363L78.0875 10.2798L76.5811 13.4809L73.1917 14.7049Z" fill="#807976"/>
<path d="M73.0975 29.3916L77.4285 28.1677L79.4056 25.4372L77.3343 21.4829L72.5326 20.1648H65.7538V29.4858L73.0975 29.3916ZM73.1917 29.8624H65.3772V19.5999H72.7209L77.8051 21.0121L80.0647 25.4372L77.8051 28.5443L73.1917 29.8624Z" fill="#807976"/>
<path d="M127.422 34.2879L122.527 27.2266L119.137 21.3892L118.855 21.0126L119.231 20.7302L124.033 17.9057L126.387 13.2923L125.916 7.73742L122.244 4.06555L117.066 1.71178H109.346H103.508H97.2002V8.01986V14.328V21.6717V27.509V34.382H104.073V27.8856V22.0483V21.5775H104.544H111.417H111.699L111.793 21.86L114.712 27.2266L118.949 34.2879H127.422ZM128.364 34.7586H118.572L114.147 27.4149L111.229 22.0483H104.356V27.8856V34.7586H96.6353V27.4149V21.5775V14.2338V7.92572V1.05273H103.508H109.346H117.16L122.527 3.50065L126.481 7.45497L126.952 13.2923L124.504 18.1881L119.608 21.1068L122.997 26.9441L128.364 34.7586Z" fill="#807976"/>
<path d="M114.618 16.2111L117.254 14.4222L118.101 11.786L117.254 8.3024L114.147 7.45505H104.92V16.2111H114.618ZM114.712 16.6818H104.45V6.89014H114.241L117.631 7.83164L118.572 11.786L117.631 14.7046L114.712 16.6818Z" fill="#807976"/>
<path d="M166.777 34.2874L164.612 28.6384L162.164 22.2361L160.187 15.928L157.739 9.99657L154.914 1.99378H146.347L143.522 9.99657L141.074 15.8339L138.626 23.1776L136.178 28.5442L134.013 34.1932H141.733L144.087 26.2846L144.181 25.908H144.558H156.797H157.174L157.268 26.1904L160.093 34.1932L166.777 34.2874ZM167.436 34.7581H159.622L156.703 26.4729H144.464L142.016 34.7581H133.26L135.708 28.4501L138.156 23.0835L140.604 15.7398L143.051 9.90241L145.97 1.61719H155.291L158.21 9.90241L160.658 15.7398L162.635 22.0478L165.083 28.3559L167.436 34.7581Z" fill="#807976"/>
<path d="M154.538 20.6365L152.372 14.9874L150.395 9.99739L148.889 14.9874L146.723 20.6365H154.538ZM155.291 21.1073H145.97L148.418 14.7991L150.395 8.49097L152.843 14.7991L155.291 21.1073Z" fill="#807976"/>
<path d="M203.59 34.2877V27.4147V21.1066V14.2336V7.36065V1.52332H197.753V7.36065C197.847 9.71441 197.847 12.5389 197.753 12.9155C197.658 13.2921 197.658 15.8342 197.753 18.0938V24.4019L196.811 24.6843L193.327 19.3177C192.292 17.2464 190.409 13.6687 190.409 13.3863C190.221 13.0097 188.243 9.62026 187.019 7.6431L183.253 1.52332H174.78V5.94839V11.7857V17.1523V23.4604V28.8269V34.1935H181.653V28.8269V23.4604V17.6231V12.2565L182.594 12.0682L185.984 18.3762L189.373 23.7428L192.292 29.1094L195.116 34.1935L203.59 34.2877ZM204.061 34.7584H194.74L191.821 29.3919L188.902 24.0253L185.513 18.6587L182.124 12.3506V17.7172V23.5545V28.9211V34.7584H174.309V28.9211V23.5545V17.2464V11.8799V6.04255V1.14673H183.63L187.584 7.4548C187.584 7.4548 190.88 13.0097 190.974 13.2921C191.068 13.5746 193.892 19.1294 193.892 19.1294L197.282 24.496V18.1879C197.282 18.1879 197.094 13.198 197.282 12.8214C197.47 12.4448 197.282 7.4548 197.282 7.4548V1.14673H204.155V7.4548V14.3278V21.2008V27.5088L204.061 34.7584Z" fill="#807976"/>
<path d="M242.663 34.2877V27.4147V21.1066V14.2336V7.36065V1.52332H236.825V7.36065C236.919 9.71441 236.919 12.5389 236.825 12.9155C236.731 13.2921 236.731 15.8342 236.825 18.0938V24.4019V26.0966L235.884 24.6843L232.4 19.3177C231.365 17.2464 229.482 13.6687 229.482 13.3863C229.293 13.0097 227.316 9.62026 226.092 7.6431L222.326 1.52332H213.853V5.94839V11.7857V17.1523V23.4604V28.8269V34.1935H220.726V28.8269V23.4604V17.6231V12.2565V10.2793L221.667 11.974L225.056 18.2821L228.54 23.6487L231.459 29.0152L234.283 34.0994L242.663 34.2877ZM243.133 34.7584H233.813L230.894 29.3919L227.975 24.0253L224.586 18.6587L221.196 12.3506V17.7172V23.5545V28.9211V34.7584H213.382V28.9211V23.5545V17.2464V11.8799V6.04255V1.14673H222.703L226.657 7.4548C226.657 7.4548 229.952 13.0097 230.046 13.2921C230.141 13.5746 232.965 19.1294 232.965 19.1294L236.355 24.496V18.1879C236.355 18.1879 236.166 13.198 236.355 12.8214C236.543 12.4448 236.355 7.4548 236.355 7.4548V1.14673H243.228V7.4548V14.3278V21.2008V27.5088L243.133 34.7584Z" fill="#807976"/>
<path d="M260.739 34.2879V28.4505V21.5775V14.7046V7.83157V1.52349H253.396V7.83157V14.1396V21.9541V27.7915V34.0996L260.739 34.2879ZM261.21 34.7586H252.925V27.8856V22.0483V14.2338V7.92572V1.05273H261.21V7.92572V14.7987V21.6717V28.5447V34.7586Z" fill="#807976"/>
<path d="M253.301 34.57L260.928 28.1677C261.022 28.0736 261.022 27.9794 261.022 27.8853C261.022 27.7911 260.928 27.697 260.739 27.697L254.055 28.1677L260.833 21.7655V21.3889L253.207 14.2334L260.833 7.54875V7.17215L253.49 0.86407C253.396 0.769919 253.301 0.769919 253.207 0.86407C253.113 0.95822 253.113 1.05237 253.113 1.14652L260.833 14.1393L252.642 21.2947L252.548 21.5772L259.61 33.4401L252.925 27.6028C252.831 27.5087 252.642 27.5087 252.548 27.6028C252.454 27.697 252.454 27.8853 252.548 27.9794L260.363 34.8524C260.457 34.9466 260.551 34.9466 260.645 34.8524C260.739 34.7583 260.739 34.6641 260.739 34.57L253.019 21.5772L261.21 14.4217L261.304 14.1393L254.243 2.27633L260.174 7.45461L252.548 14.1393V14.5159L260.174 21.6713L253.019 28.356C252.925 28.4502 252.925 28.5443 252.925 28.6385C252.925 28.7326 253.019 28.8268 253.207 28.8268L259.704 28.356L252.736 34.2875C252.642 34.3817 252.642 34.4758 252.736 34.6641C253.019 34.57 253.207 34.57 253.301 34.57Z" fill="#807976"/>
<path d="M260.645 1.33417L252.83 7.1715V7.5481L260.645 14.4211L253.019 13.9503C252.925 13.9503 252.83 13.9503 252.83 14.0445C252.736 14.1386 252.736 14.2328 252.83 14.327L260.551 27.0373L253.207 21.859C253.113 21.7649 252.925 21.7648 252.83 21.9531C252.736 22.0473 252.736 22.2356 252.925 22.3298L261.21 28.1671C261.304 28.2612 261.398 28.2612 261.492 28.1671C261.586 28.0729 261.586 27.9788 261.492 27.8846L253.395 14.6094L261.21 15.0801C261.304 15.0801 261.398 14.986 261.492 14.8918C261.492 14.7977 261.492 14.7035 261.398 14.6094L253.301 7.45396L260.833 1.80492C260.927 1.71077 260.927 1.61661 260.927 1.42831C260.833 1.33416 260.739 1.24002 260.645 1.33417Z" fill="#807976"/>
<path d="M1.26077 1.71114L8.7928 7.36018L0.790019 13.0092C0.695868 13.1034 0.695866 13.1975 0.695866 13.2917C0.695866 13.3858 0.790017 13.48 0.884168 13.48H9.1694C9.26355 13.48 9.3577 13.3858 9.3577 13.2917C9.3577 13.1975 9.3577 13.1034 9.26355 13.0092L1.73152 6.88942L8.0396 2.27605L0.601717 18.5641L0.790019 18.9407H8.2279L0.601717 23.8365C0.507567 23.9307 0.507568 24.0248 0.507568 24.119C0.507568 24.2131 0.601718 24.3073 0.790019 24.3073L8.32205 23.8365L6.90979 32.7808L7.19224 33.0633L16.2307 30.2388L18.5844 34.9463C18.5844 35.0405 18.6786 35.1346 18.7727 35.0405C18.8669 35.0405 18.961 34.9463 18.961 34.8521L21.3148 28.1675L28.941 29.5797C29.0351 29.5797 29.1293 29.5797 29.2234 29.4856C29.3176 29.3914 29.2234 29.2973 29.1293 29.2031L23.4803 24.0248L31.0123 18.3758L31.1064 17.9992L22.8212 6.79528L23.292 2.37019L31.0123 7.36018L23.1978 18.4699L23.292 18.8465L30.4474 23.6482L26.1165 32.2159C26.0223 32.3101 26.1165 32.4984 26.2106 32.4984C26.3048 32.5925 26.4931 32.4984 26.4931 32.4042L30.9181 23.6482L30.824 23.3658L23.6686 18.6582L31.8596 7.64263L31.7655 7.26603L23.4803 1.89944L23.1037 2.08775L22.6329 6.98358V7.17188L30.824 18.1875L23.1978 23.9307V24.3073L28.4702 29.109L21.5031 27.7908L21.2207 27.9792L18.961 34.2872L16.7956 29.9563L16.5131 29.8622L7.56885 32.6867L8.9811 23.8365L8.69865 23.5541L1.82567 24.0248L9.3577 19.129C9.45185 19.0348 9.45185 18.9407 9.45185 18.8465C9.45185 18.7524 9.3577 18.6582 9.26355 18.6582H1.35492L8.9811 1.89944C9.07525 1.80529 8.9811 1.71115 8.88695 1.617C8.7928 1.52285 8.69865 1.52285 8.6045 1.617L1.26077 6.98358V7.36018L8.51035 13.2917H1.63737L9.3577 7.83093V7.45433L1.54322 1.617C1.44907 1.52285 1.26077 1.52284 1.16662 1.71114C1.16662 1.52284 1.16662 1.71114 1.26077 1.71114Z" fill="#807976"/>
<path d="M1.16675 1.61732L8.41633 18.0936L2.67316 28.8268C2.67316 28.9209 2.67316 29.0151 2.67316 29.1092C2.76731 29.2034 2.86146 29.2034 2.95561 29.2034L10.5818 27.7911L12.4648 34.8524L12.8414 34.9465L21.4091 27.7911L25.6459 32.9694C25.74 33.0635 25.8342 33.0635 25.9283 33.0635C26.0225 32.9694 26.1166 32.8752 26.0225 32.7811L23.198 18.7527L31.389 13.4803C31.4832 13.3861 31.4832 13.2919 31.4832 13.1978C31.4832 13.1036 31.389 13.0095 31.2949 13.0095H23.9512L31.0124 1.14656C31.1066 1.05241 31.0124 0.864105 30.9183 0.769954C30.8241 0.675804 30.6358 0.76996 30.5417 0.86411L23.198 13.1037C23.198 13.1978 23.1038 13.292 23.198 13.3861C23.198 13.4803 23.2921 13.4803 23.3862 13.4803H30.3534L22.7272 18.3761L22.6331 18.6585L25.3634 31.8396L21.5974 27.2262H21.2208L12.7473 34.2875L10.8642 27.3203L10.5818 27.1321L3.23806 28.5443L8.88708 18.2819V18.0936L1.54335 1.52316C1.4492 1.42901 1.35505 1.33485 1.2609 1.429C1.16675 1.429 1.16675 1.52317 1.16675 1.61732Z" fill="#807976"/>
<path d="M9.07522 12.6333L1.26074 23.3665L1.35489 23.7431L10.3933 27.5091L7.09806 32.6874L7.28636 33.064L18.961 35.5119H19.1493L28.9409 29.6745L29.0351 29.3921L23.7627 12.9158L30.9181 7.64336C31.0123 7.54921 31.0123 7.45506 31.0123 7.36091C31.0123 7.26675 30.9181 7.17261 30.8239 7.17261H23.951C23.8568 7.17261 23.6685 7.26676 23.6685 7.45506C23.6685 7.54921 23.7627 7.73752 23.951 7.73752H30.0708L23.3861 12.6333L23.2919 12.9158L28.5643 29.2979L19.0552 35.0411L7.75711 32.6874L10.9582 27.6032L10.8641 27.2266L1.82564 23.4606L9.45182 13.0099C9.54597 12.9158 9.54597 12.7275 9.35767 12.6333C9.26352 12.5392 9.07522 12.5392 9.07522 12.6333Z" fill="#807976"/>
<path d="M0.789865 13.0099L8.60437 18.3765C8.69852 18.4707 8.79267 18.4707 8.88682 18.3765C8.98097 18.2824 8.98097 18.1882 8.88682 18.0941L1.82552 7.73752H8.69852C8.79267 7.73752 8.98097 7.64336 8.98097 7.45506C8.98097 7.36091 8.88682 7.17261 8.69852 7.17261H1.35477C1.26062 7.17261 1.16646 7.26676 1.16646 7.26676C1.16646 7.36091 1.16646 7.45505 1.16646 7.5492L7.75701 17.2467L0.978167 12.6333C0.884016 12.5392 0.695713 12.5392 0.601562 12.7275C0.695713 12.7275 0.695714 12.9158 0.789865 13.0099Z" fill="#807976"/>
<path d="M25.9281 32.1223L16.1365 29.6744H16.0423L3.42619 29.2037L9.35766 23.743V23.3664L1.54318 17.9998C1.44903 17.9057 1.26073 17.9057 1.16658 18.094C1.07243 18.1881 1.07243 18.3764 1.26073 18.4706L8.79276 23.6488L2.67299 29.2978C2.57884 29.392 2.57883 29.4861 2.57883 29.5803C2.57883 29.6744 2.67298 29.7686 2.76714 29.7686L15.9482 30.2393L25.7398 32.6873C25.834 32.6873 26.0223 32.6872 26.0223 32.4989C26.1164 32.2165 26.0223 32.1223 25.9281 32.1223Z" fill="#807976"/>
<path d="M23.1979 1.14656L30.4475 13.1978L23.1979 23.366C23.1038 23.4602 23.1038 23.5543 23.1979 23.6485C23.1979 23.7426 23.2921 23.7426 23.3862 23.7426L31.2007 24.2134C31.2948 24.2134 31.389 24.2134 31.389 24.1192C31.389 24.0251 31.389 23.9309 31.389 23.8368L23.5745 13.1036C23.4804 13.0095 23.3862 13.0095 23.1979 13.0095C23.1038 13.1036 23.1038 13.1978 23.1038 13.3861L30.6358 23.7426L23.7628 23.2719L30.8241 13.3861V13.1036L23.4804 0.86411C23.3862 0.76996 23.2921 0.675804 23.1038 0.769954C23.1038 0.958255 23.1038 1.05241 23.1979 1.14656Z" fill="#807976"/>
<path d="M39.3917 27.6039L47.677 34.9477C47.7711 35.0418 47.9594 35.0418 48.0536 34.9477C48.1477 34.8535 48.1477 34.6652 48.0536 34.5711L39.7683 27.2274C39.6742 27.1332 39.4859 27.1332 39.3917 27.2274C39.2034 27.4157 39.2034 27.5098 39.3917 27.6039Z" fill="#807976"/>
<path d="M48.1477 27.6982L38.8268 34.5712C38.7327 34.6653 38.7327 34.7595 38.7327 34.9478C38.8268 35.0419 38.921 35.0419 39.1093 35.0419L48.4302 28.169C48.5243 28.0748 48.5243 27.9807 48.5243 27.7924C48.4302 27.6982 48.2419 27.6982 48.1477 27.6982Z" fill="#807976"/>
<path d="M56.4328 1.24194L64.9064 6.89097L56.9036 11.5985C56.8094 11.6926 56.8094 11.7868 56.8094 11.7868C56.8094 11.8809 56.9036 11.9751 56.9977 11.9751L65.4713 14.7996L56.4328 24.3088L56.527 24.6854L65.3771 29.3929L56.4328 34.5712C56.3387 34.6654 56.2445 34.7595 56.3387 34.8536C56.4328 34.9478 56.527 35.042 56.6211 34.9478L72.6267 30.1461L77.4284 34.4771L77.805 34.3829L79.688 25.7211L87.7849 24.3088C87.8791 24.3088 87.9732 24.1205 87.9732 24.0263C87.9732 23.9322 87.7849 23.838 87.6907 23.838L79.4055 25.3445L79.2172 25.5328L77.3342 33.9121L72.7208 29.7695L72.5325 29.6754L58.41 33.9121L65.8479 29.5812C65.942 29.5812 65.942 29.4871 65.942 29.3929C65.942 29.2988 65.8479 29.2046 65.8479 29.2046L56.8094 24.4971L65.8479 14.9879L65.7537 14.6113L57.4685 11.8809L65.283 7.26758V6.89097L56.527 1.05365C56.4328 0.959495 56.2445 1.05365 56.1504 1.1478C56.3387 1.05365 56.3387 1.24194 56.4328 1.24194Z" fill="#807976"/>
<path d="M77.0517 1.33572L66.1303 6.04325V1.99477L73.0974 7.0789H73.2857L83.2656 4.34854L77.899 11.1274V11.4098L80.1586 15.9291L76.8634 12.6338L76.4868 12.7279L73.0974 19.6009L73.2857 19.9776L87.9731 23.9319C88.0673 23.9319 88.2556 23.9319 88.2556 23.7436C88.3497 23.6494 88.2556 23.4611 88.1614 23.4611L73.474 15.3642L86.7492 8.77362C86.8433 8.67947 86.9375 8.58531 86.8433 8.49116C86.8433 8.39701 86.7492 8.30286 86.5609 8.30286H76.5809L77.9932 1.80647C77.9932 1.71232 77.899 1.52402 77.8049 1.52402C77.7107 1.52402 77.5224 1.61816 77.5224 1.71231L76.016 8.58532L76.2985 8.86777H85.5252L72.8149 15.27C72.7208 15.27 72.7208 15.3642 72.7208 15.4583C72.7208 15.5525 72.8149 15.6466 72.8149 15.6466L86.1843 22.9904L73.7564 19.6951L76.8634 13.387L81.006 17.5296C81.1002 17.6238 81.1943 17.6238 81.2884 17.5296C81.3826 17.4355 81.3826 17.3413 81.3826 17.2472L78.5581 11.504L84.3013 4.34854C84.3954 4.25439 84.3954 4.16023 84.3013 4.06608C84.2071 3.97193 84.113 3.97194 84.0188 3.97194L73.3798 6.8906L66.1303 1.61817C66.0361 1.52402 65.942 1.52402 65.8478 1.61817C65.7537 1.61817 65.7537 1.71232 65.7537 1.80647V6.7023L66.1303 6.8906L77.3341 1.99477C77.4283 1.90062 77.5224 1.80646 77.4283 1.71231C77.24 1.33571 77.1458 1.24157 77.0517 1.33572Z" fill="#807976"/>
<path d="M87.8791 28.6388L77.6167 27.6973C77.5226 27.6973 77.4284 27.7914 77.3343 27.8856C77.3343 27.9797 77.3343 28.0739 77.4284 28.168L83.6424 33.5346C83.7365 33.6287 83.8307 33.6287 83.9248 33.5346C84.019 33.4404 84.019 33.3463 84.019 33.2521L80.253 25.1552L85.5254 19.4121C85.6195 19.3179 85.6195 19.2238 85.5254 19.1296C85.5254 19.0355 85.4312 18.9413 85.2429 19.0355L72.6268 19.977L66.3187 14.7046H66.1304L55.868 18.094C55.7738 18.094 55.6797 18.1881 55.6797 18.3764C55.6797 18.4706 55.7738 18.5647 55.868 18.5647L65.6596 20.5419H65.8479L72.9092 15.3636L76.6752 21.9541C76.7694 22.0483 76.8635 22.1424 77.0518 22.0483C77.146 21.9541 77.2401 21.86 77.146 21.6717L73.1917 14.7987L72.8151 14.7046L65.5655 19.977L56.8095 18.1881L66.0362 15.0812L72.2502 20.3536L72.4385 20.4477L84.4897 19.5062L79.4998 24.8728V25.1552L82.795 32.3106L77.8992 28.2622L87.4084 29.2037C87.5025 29.2037 87.6908 29.1095 87.6908 29.0154C88.1616 28.8271 87.9733 28.6388 87.8791 28.6388Z" fill="#807976"/>
<path d="M65.7538 1.33588L56.4329 6.70244V7.07904L65.1889 14.4228C65.283 14.5169 65.3772 14.5169 65.4713 14.4228C65.5655 14.3286 65.5655 14.2345 65.4713 14.1403L57.5627 1.99492L73.0975 7.17319C73.1916 7.17319 73.38 7.1732 73.38 6.98489C73.38 6.89074 73.3799 6.70244 73.1916 6.70244L57.0919 1.33588C56.9978 1.33588 56.9036 1.33587 56.8095 1.43002C56.7153 1.52417 56.7153 1.61832 56.8095 1.71247L64.2473 13.0105L56.9978 6.98489L65.9421 1.80663C66.0362 1.71248 66.1304 1.61832 66.0362 1.43002C66.0362 1.33587 65.8479 1.24172 65.7538 1.33588Z" fill="#807976"/>
<path d="M77.4284 28.2625L71.6852 34.0056L66.0362 29.2981C65.942 29.204 65.8479 29.204 65.7537 29.2981C65.6596 29.2981 65.5654 29.3923 65.5654 29.4864L65.0947 34.0056L56.9036 29.9572L65.942 20.9187V20.5421L56.6211 12.2569C56.527 12.1627 56.3387 12.1627 56.2445 12.2569C56.1504 12.351 56.1504 12.5394 56.2445 12.6335L65.283 20.7304L56.1504 29.863L56.2445 30.2396L65.0005 34.6647L65.3771 34.4764L65.8479 30.0513L71.4027 34.6647H71.6852L77.5225 28.8274C77.6167 28.7332 77.6167 28.5449 77.5225 28.4508C77.7108 28.1683 77.5225 28.1683 77.4284 28.2625Z" fill="#807976"/>
<path d="M56.3386 12.4451L65.0005 29.6746H57.0918C56.9977 29.6746 56.9035 29.7687 56.8094 29.8629C56.8094 29.957 56.9035 30.0512 56.9977 30.1453L71.1202 34.5704L71.4027 34.3821L72.815 30.2395L84.3955 33.5348L84.6779 33.3465L88.0673 24.0256C88.0673 23.9314 88.0673 23.7431 87.879 23.7431C87.7849 23.649 87.5966 23.7431 87.5966 23.9314L84.3013 32.9699L72.815 29.5804L72.5325 29.7687L71.1202 33.9114L58.6924 30.0512H65.3771L65.5654 29.6746L56.8094 12.0684C56.7152 11.9743 56.6211 11.8802 56.5269 11.9743C56.3386 12.1626 56.3386 12.2568 56.3386 12.4451Z" fill="#807976"/>
<path d="M84.678 19.6006L83.8306 31.5578L80.8178 17.1527L80.5354 16.9644L65.7537 19.3182L66.2245 14.7048C66.2245 14.6107 66.1303 14.4224 66.0362 14.4224C65.942 14.4224 65.7537 14.5165 65.7537 14.6107L65.283 19.5065L65.5654 19.7889L80.4412 17.341L83.8306 33.2525C83.8306 33.3466 83.9248 33.4408 84.1131 33.4408C84.2072 33.4408 84.3014 33.3466 84.3014 33.2525L85.2429 19.6006C85.2429 19.5065 85.1487 19.3182 85.0546 19.3182C84.7721 19.4123 84.678 19.5065 84.678 19.6006Z" fill="#807976"/>
<path d="M65.5656 7.07841L71.2146 1.4294L75.4514 8.01992L75.5455 8.11407L84.8664 13.4806C84.9606 13.5748 85.1489 13.4806 85.243 13.3865C85.3372 13.2923 85.243 13.104 85.1489 13.0099L75.9221 7.64332L71.5912 0.864502H71.2146L65.3773 6.70182C65.2831 6.79597 65.2831 6.98426 65.3773 7.07841C65.2831 7.17256 65.4714 7.17256 65.5656 7.07841Z" fill="#807976"/>
<path d="M97.0118 1.24236L104.638 6.8914L97.0118 14.0469V14.4234L103.885 22.238C103.979 22.3321 104.073 22.3321 104.167 22.3321C104.261 22.3321 104.356 22.2379 104.356 22.1438L104.826 17.248L111.793 22.3321L112.17 22.238L114.995 16.4948L125.069 17.907C125.163 17.907 125.257 17.907 125.351 17.8129C125.351 17.7187 125.351 17.6246 125.257 17.5304L118.949 11.6931L118.761 11.8814L118.855 12.0697C118.855 12.0697 120.832 10.8457 122.715 9.62177C123.656 9.05687 124.692 8.39781 125.445 7.92706C125.822 7.73876 126.104 7.55045 126.293 7.36215C126.387 7.268 126.481 7.268 126.575 7.17385V7.0797V6.98555C126.669 6.98555 126.763 6.89141 126.858 6.79726C126.858 6.70311 126.858 6.60895 126.763 6.5148H126.669C126.669 6.5148 126.387 6.5148 126.387 6.7031H126.669L126.481 6.5148C126.481 6.60895 126.481 6.5148 126.387 6.7031H126.669L126.481 6.5148V6.60894V6.5148V6.60894V6.5148C126.481 6.60895 125.069 6.60895 123.374 6.5148C119.796 6.5148 114.43 6.42064 114.43 6.42064V6.7031L114.618 6.5148L110.193 1.14822L109.91 1.05406L96.7293 7.36215C96.6352 7.4563 96.541 7.55046 96.6352 7.64461C96.7293 7.73876 96.8235 7.83291 96.9176 7.73876L109.91 1.43066L114.147 6.60894L114.336 6.7031C114.336 6.7031 119.608 6.79726 123.28 6.79726C125.163 6.79726 126.387 6.79725 126.669 6.7031C126.669 6.60895 126.763 6.7031 126.763 6.5148H126.481L126.387 6.79726C126.387 6.79726 126.669 6.79725 126.669 6.5148H126.387L126.293 6.79726L126.387 6.5148L126.293 6.7031H126.387L126.481 6.42064L126.387 6.60894L126.481 6.42064V6.13819C126.198 6.23234 118.572 11.034 118.572 11.034V11.4106L124.315 16.7772L114.806 15.4591L114.524 15.5533L111.699 21.1081L104.638 15.9299C104.544 15.8357 104.45 15.8357 104.356 15.9299C104.261 15.9299 104.261 16.024 104.167 16.1182L103.696 20.9198L97.3884 13.6702L105.015 6.5148V6.13819L97.2001 0.300855C97.1059 0.206704 96.9176 0.20671 96.8235 0.395011C96.8235 1.05407 96.9176 1.14821 97.0118 1.24236Z" fill="#807976"/>
<path d="M96.8235 34.9483L104.167 28.0753V27.6987L97.0118 21.4848L105.203 6.9856C105.297 6.89145 105.203 6.79729 105.203 6.70314C105.109 6.60899 105.015 6.60899 104.92 6.60899L97.106 8.1154L96.9177 8.492L104.261 22.1438L104.638 22.238L114.241 16.9655L119.325 21.1082L114.147 27.7929C114.053 27.887 114.053 27.9812 114.147 28.0753C114.241 28.1695 114.335 28.1695 114.43 28.1695L122.715 26.7572L119.42 33.8185L118.007 14.9884L126.575 13.5761C126.669 13.5761 126.763 13.482 126.763 13.3878C126.763 13.2937 126.763 13.1995 126.669 13.1054L117.725 7.9271L123.28 3.78447C123.374 3.69032 123.374 3.59618 123.374 3.40788C123.28 3.31373 123.186 3.31372 122.997 3.31372L117.16 7.73881V8.1154L125.822 13.1054L117.725 14.4235L117.537 14.7059L119.043 34.76C119.043 34.8541 119.137 34.9483 119.231 34.9483C119.325 34.9483 119.42 34.9483 119.514 34.8541L123.468 26.5689C123.468 26.4748 123.468 26.3806 123.468 26.2864C123.468 26.1923 123.28 26.1923 123.28 26.1923L115.089 27.5104L120.079 21.2023V20.8257L114.712 16.4006H114.43L104.92 21.6731L97.8592 8.492L104.826 7.1739L96.8235 21.3906L96.9177 21.6731L104.073 27.887L96.9177 34.5717C96.8235 34.6658 96.8235 34.8541 96.9177 34.9483C96.5411 35.0424 96.7294 35.0424 96.8235 34.9483Z" fill="#807976"/>
<path d="M103.226 1.14858L104.167 6.98589L104.544 7.17419L116.407 1.43102L116.878 7.92739C116.878 8.02154 116.972 8.11569 117.16 8.11569C117.254 8.11569 117.348 8.02154 117.348 7.83324L116.878 0.96027L116.501 0.771973L104.544 6.51514L103.602 0.96027C103.602 0.86612 103.414 0.771973 103.32 0.771973C103.32 0.866123 103.226 0.960282 103.226 1.14858Z" fill="#807976"/>
<path d="M104.167 34.1002L97.1061 27.9804L104.167 22.3314C104.261 22.2372 104.261 22.1431 104.261 22.0489C104.261 21.9548 104.167 21.8606 104.073 21.8606L97.3885 20.9191L104.073 16.494L118.478 21.0133L111.794 21.8606C111.699 21.8606 111.605 21.9548 111.605 22.0489C111.605 22.1431 111.699 22.2372 111.794 22.3314L122.997 26.7564C123.092 26.8506 123.28 26.7564 123.28 26.6623C123.374 26.5681 123.28 26.3798 123.186 26.3798L112.829 22.3314L119.702 21.484C119.796 21.484 119.89 21.3899 119.89 21.2957C119.89 21.2016 119.796 21.1074 119.702 21.0133L104.073 16.1174H103.885L96.5412 21.0133C96.447 21.1074 96.447 21.2016 96.447 21.2957C96.447 21.3899 96.5412 21.484 96.6353 21.484L103.414 22.4255L96.5412 27.8862V28.2628L103.885 34.5709C103.979 34.6651 104.167 34.6651 104.261 34.5709C104.261 34.3826 104.261 34.1943 104.167 34.1002Z" fill="#807976"/>
<path d="M127.987 34.1L114.9 27.7919V16.6821C114.9 16.588 114.806 16.3997 114.618 16.3997C114.524 16.3997 114.335 16.4938 114.335 16.6821V27.8861L114.43 28.0744L127.611 34.3825C127.705 34.4766 127.893 34.3825 127.893 34.2883C128.176 34.2883 128.176 34.1 127.987 34.1Z" fill="#807976"/>
<path d="M96.8235 34.3838L104.638 22.1444C104.732 22.0502 104.638 21.8619 104.544 21.7678C104.45 21.6736 104.261 21.7678 104.167 21.8619L96.3527 34.1014C96.2586 34.1956 96.3527 34.3839 96.4469 34.478C96.6352 34.5722 96.8235 34.478 96.8235 34.3838Z" fill="#807976"/>
<path d="M96.8233 8.1157L103.037 1.43102L113.582 7.1742H113.77L121.961 3.97309L118.384 10.7519V10.8461L119.325 21.1085C119.325 21.2026 119.419 21.2968 119.608 21.2968C119.702 21.2968 119.796 21.2026 119.796 21.0143L118.854 10.8461L122.715 3.59648C122.809 3.50233 122.715 3.40818 122.715 3.31403C122.62 3.21988 122.526 3.21989 122.432 3.21989L113.77 6.60929L103.131 0.771973L102.849 0.866129L96.5408 7.73911C96.4467 7.83326 96.4467 8.02155 96.5408 8.1157C96.5408 8.20985 96.7291 8.20985 96.8233 8.1157Z" fill="#807976"/>
<path d="M133.919 34.9463C134.389 34.4755 144.652 26.1903 144.652 26.1903V25.8137L138.438 22.2359L146.064 20.9178C146.158 20.9178 146.252 20.8237 146.252 20.7295C146.252 20.6354 146.252 20.5412 146.158 20.4471L140.98 16.2103L150.489 8.58411L150.583 8.30166L146.817 2.46433L157.362 9.52562L153.125 14.7039C153.031 14.798 153.031 14.8922 153.125 14.9864C153.125 15.0805 153.219 15.1746 153.314 15.1746L159.904 16.1162L156.138 27.0376L156.326 27.3201L164.706 27.7908L159.339 34.6638C159.245 34.7579 159.245 34.9463 159.433 35.0404C159.528 35.1346 159.716 35.1346 159.81 34.9463L165.459 27.6967C165.553 27.6025 165.553 27.5084 165.459 27.4142C165.459 27.3201 165.365 27.3201 165.271 27.2259L156.797 26.7552L160.563 15.8337L160.375 15.5512L153.973 14.6097L158.115 9.52562L158.021 9.14902L146.347 1.33453C146.252 1.24038 146.158 1.24038 146.064 1.33453C145.97 1.42868 145.97 1.52283 146.064 1.61698L150.301 8.30166L140.697 16.022V16.3986L145.687 20.4471L137.873 21.8593C137.779 21.8593 137.685 21.9535 137.685 22.0476C137.685 22.1418 137.685 22.2359 137.779 22.3301L144.652 26.2844L144.746 26.0961L144.558 25.9078C144.558 25.9078 134.295 34.1931 133.825 34.758C133.73 34.8521 133.73 35.0404 133.825 35.1346C133.73 35.0404 133.825 35.0404 133.919 34.9463Z" fill="#807976"/>
<path d="M135.896 29.1094L145.593 21.2949L144.275 26.4732C144.275 26.5673 144.275 26.6615 144.369 26.7556C144.464 26.8498 144.558 26.8498 144.652 26.7556L154.726 21.0125L164.329 28.262C164.423 28.3562 164.612 28.3562 164.706 28.1679C164.8 28.0738 164.8 27.8854 164.612 27.7913L154.82 20.4476H154.538L144.746 26.0024L146.064 20.73C146.064 20.6359 146.064 20.5417 145.97 20.4476C145.876 20.3534 145.782 20.3534 145.687 20.4476L135.425 28.7328C135.331 28.827 135.331 29.0153 135.425 29.1094C135.613 29.2036 135.802 29.2036 135.896 29.1094Z" fill="#807976"/>
<path d="M167.625 34.5699L156.703 26.0022L163.2 22.2362C163.294 22.142 163.294 22.0479 163.294 21.9537C163.294 21.8596 163.2 21.7654 163.106 21.7654L155.574 20.3532L158.398 9.9025L158.21 9.62006L151.713 8.67855L155.479 1.14652C155.574 1.05237 155.479 0.95822 155.385 0.86407C155.291 0.769919 155.197 0.769919 155.103 0.86407L143.428 9.1493V9.5259L147.665 14.2334L138.626 21.8596L138.532 22.142L141.733 33.9108L136.084 27.7911C135.99 27.6969 135.802 27.6969 135.708 27.7911C135.614 27.8852 135.614 28.0735 135.708 28.1677L142.016 35.0407C142.11 35.1348 142.204 35.1348 142.298 35.0407C142.392 34.9465 142.487 34.8523 142.392 34.7582L139.003 22.2362L148.136 14.5159V14.1393L143.899 9.43174L154.632 1.89972L151.148 8.86685L151.337 9.24345L157.927 10.1849L155.103 20.6356L155.291 20.9181L162.446 22.2362L156.138 25.8139V26.1905L167.342 34.9465C167.436 35.0406 167.625 35.0406 167.719 34.9465C167.719 34.8523 167.719 34.6641 167.625 34.5699Z" fill="#807976"/>
<path d="M146.347 21.2955L156.138 26.1912C156.232 26.1912 156.327 26.1912 156.421 26.1912C156.515 26.0971 156.515 26.0029 156.515 25.9088L155.008 20.5423C155.008 20.4481 154.82 20.354 154.726 20.354C154.632 20.354 154.538 20.5423 154.538 20.6365L155.856 25.438L146.535 20.8247C146.441 20.7306 146.252 20.8248 146.252 20.9189C146.158 21.1072 146.252 21.2955 146.347 21.2955Z" fill="#807976"/>
<path d="M143.805 9.90231L145.782 20.6355C145.782 20.7296 145.97 20.8238 146.064 20.8238C146.158 20.8238 146.253 20.6355 146.253 20.5413L144.275 9.80817C144.275 9.71402 144.087 9.61987 143.993 9.61987C143.805 9.61987 143.805 9.80816 143.805 9.90231Z" fill="#807976"/>
<path d="M145.782 2.08763L148.23 14.7979C148.23 14.8921 148.418 14.9862 148.512 14.9862C148.606 14.9862 148.7 14.7979 148.7 14.7038L146.252 1.99347C146.252 1.89932 146.064 1.80518 145.97 1.80518C145.782 1.80518 145.687 1.99348 145.782 2.08763Z" fill="#807976"/>
<path d="M150.678 8.58507L162.823 22.1427L158.963 34.194C158.963 34.2881 158.963 34.4764 159.151 34.4764C159.245 34.4764 159.433 34.4764 159.433 34.2881L163.388 22.0486L163.294 21.7661L151.054 8.11431C150.96 8.02016 150.772 8.02016 150.678 8.11431C150.583 8.30261 150.583 8.49092 150.678 8.58507Z" fill="#807976"/>
<path d="M162.729 21.8597L153.596 15.0808L155.573 1.52318C155.573 1.42903 155.479 1.24072 155.385 1.24072C155.291 1.24072 155.103 1.33487 155.103 1.42902L153.125 15.0808L153.22 15.2691L162.541 22.1421C162.635 22.2363 162.823 22.2363 162.917 22.048C162.823 22.1421 162.823 21.9538 162.729 21.8597Z" fill="#807976"/>
<path d="M135.802 29.1094C136.179 28.9211 144.558 26.6615 144.558 26.6615L144.746 26.379L140.98 16.3991L148.512 15.4576C148.606 15.4576 148.701 15.3634 148.701 15.1751C148.701 15.081 148.606 14.9868 148.418 14.9868L140.604 15.9283L140.415 16.2108L144.37 26.4732L144.558 26.379L144.464 26.1907C144.464 26.1907 136.179 28.3562 135.614 28.6386C135.519 28.7328 135.425 28.8269 135.519 28.9211C135.519 29.1094 135.708 29.2035 135.802 29.1094Z" fill="#807976"/>
<path d="M181.747 34.5703L174.403 29.2038L174.215 29.3921L174.403 29.5804C174.403 29.5804 181.276 23.4606 181.653 23.2723C181.747 23.2723 181.841 23.084 181.841 22.9899C181.653 22.0484 174.403 17.0584 174.403 16.9642L174.215 17.1526L174.403 17.3409L181.747 11.9743V11.5977L174.686 6.41942L183.348 1.42946L185.701 18.1882L185.89 18.3765L193.422 19.7887L191.539 29.2979L191.821 29.5804L204.061 27.6032L204.249 27.2266L197.941 18.0941L203.684 7.92583L203.496 7.54922L197.753 7.07847L204.155 1.61777C204.249 1.52362 204.249 1.33531 204.155 1.24116C204.061 1.14701 203.872 1.14701 203.778 1.24116L196.905 7.07847C196.811 7.17262 196.811 7.26678 196.811 7.36093C196.811 7.45508 196.905 7.54922 196.999 7.54922L202.931 8.01997L197.282 17.9057V18.1882L203.402 27.1325L191.915 28.9213L193.798 19.5063L193.61 19.2239L185.984 17.8116L183.536 0.864567L183.159 0.67627L173.838 6.04283V6.41942L180.9 11.5977L173.838 16.7759V17.1526C173.838 17.1526 181.182 22.6133 181.088 22.8016H181.276L181.182 22.6133C181.088 22.6133 181.088 22.7074 181.088 22.8016H181.276L181.182 22.6133C180.617 22.8957 173.838 29.0155 173.838 29.0155V29.3921L181.182 34.7586C181.276 34.8528 181.465 34.8528 181.559 34.6645C181.935 34.7586 181.841 34.6645 181.747 34.5703Z" fill="#807976"/>
<path d="M197.564 1.14632L203.213 13.3859L197.847 12.4444C197.753 12.4444 197.659 12.4444 197.564 12.5385C197.47 12.6327 197.47 12.7268 197.564 12.821L203.308 20.4472L197.188 24.2132L197.094 24.5898L203.119 33.7224L189.656 23.8366L190.597 13.1976L190.409 12.9151L182.594 11.5029L187.114 6.98364L187.02 6.60703L174.78 1.24046C174.686 1.24046 174.592 1.24047 174.497 1.33462C174.403 1.42877 174.403 1.52292 174.403 1.61707L181.182 17.0577L174.497 23.2717V23.6483L181.088 28.8265L174.497 34.4756C174.403 34.5697 174.403 34.758 174.497 34.8522C174.592 34.9463 174.78 34.9463 174.874 34.8522L181.747 29.0148V28.6382L175.157 23.46L181.747 17.3402L181.841 17.0577L175.251 1.99367L186.549 6.98364L181.935 11.597C181.841 11.6912 181.841 11.7853 181.841 11.8795C181.841 11.9736 181.935 12.0678 182.03 12.0678L190.126 13.48L189.185 24.0249L189.279 24.2132L203.967 34.9463C204.061 35.0405 204.155 35.0405 204.249 34.9463C204.343 34.8522 204.343 34.758 204.249 34.6639L197.564 24.5898L203.684 20.8237L203.778 20.4472L198.318 13.1034L203.59 13.9508C203.684 13.9508 203.778 13.9508 203.778 13.8566C203.872 13.7625 203.872 13.6683 203.778 13.5742L197.941 0.863866C197.847 0.769716 197.753 0.67556 197.659 0.76971C197.564 0.86386 197.47 1.05217 197.564 1.14632Z" fill="#807976"/>
<path d="M174.874 12.5386L186.643 7.36036L185.23 18.1876L185.325 18.4701L196.434 25.2489L194.551 34.8522C194.551 34.9463 194.551 35.0405 194.645 35.1346C194.74 35.2288 194.834 35.1346 194.928 35.1346L203.684 27.7909C203.778 27.6968 203.778 27.5085 203.684 27.4143C203.59 27.3202 203.401 27.3202 203.307 27.4143L195.022 34.2873L196.811 25.1547L196.717 24.8723L185.607 18.0935L187.019 6.98376C187.019 6.88961 187.019 6.79547 186.925 6.79547C186.831 6.70132 186.737 6.70132 186.643 6.79547L174.403 12.162C174.309 12.2562 174.215 12.3503 174.309 12.4445C174.591 12.5386 174.78 12.5386 174.874 12.5386Z" fill="#807976"/>
<path d="M182.312 34.6653L174.592 23.5555L182.312 11.975C182.406 11.8809 182.406 11.7867 182.312 11.6926C182.312 11.5984 182.218 11.5984 182.124 11.5984L174.874 12.0691L183.348 1.71259C183.442 1.61844 183.442 1.43014 183.348 1.33599C183.254 1.24184 183.065 1.24184 182.971 1.33599L174.215 12.0691C174.121 12.1633 174.121 12.2575 174.215 12.3516C174.215 12.4458 174.309 12.4458 174.403 12.4458L181.747 11.975L174.215 23.2731V23.5555L182.03 34.7594C182.124 34.8536 182.218 34.8536 182.406 34.8536C182.406 34.8536 182.406 34.7594 182.312 34.6653Z" fill="#807976"/>
<path d="M174.968 34.3826L182.312 24.1202C182.406 24.0261 182.406 23.9319 182.312 23.8378C182.312 23.7436 182.218 23.7437 182.124 23.7437H174.309C174.215 23.7437 174.027 23.8378 174.027 24.0261C174.027 24.1202 174.121 24.3085 174.309 24.3085H181.653L174.592 34.1943C174.498 34.2885 174.498 34.4768 174.686 34.571C174.78 34.571 174.874 34.5709 174.968 34.3826Z" fill="#807976"/>
<path d="M174.215 12.5404L182.03 17.9069C182.124 18.0011 182.312 18.0011 182.406 17.8128C182.5 17.7186 182.5 17.5303 182.312 17.4362L174.498 12.0697C174.403 11.9755 174.215 11.9755 174.121 12.1638C174.027 12.258 174.027 12.4463 174.215 12.5404Z" fill="#807976"/>
<path d="M203.873 1.42831L197.564 11.6906C197.47 11.7848 197.564 11.9731 197.659 12.0672C197.753 12.1614 197.941 12.0672 198.035 11.9731L204.343 1.71076C204.437 1.61661 204.343 1.42832 204.249 1.33417C204.155 1.24002 203.967 1.33416 203.873 1.42831Z" fill="#807976"/>
<path d="M204.155 27.2262L197.564 24.4017L204.249 14.4217V14.1392L197.376 6.79547C197.282 6.70132 197.093 6.70132 196.999 6.79547C196.905 6.88962 196.905 7.07791 196.999 7.17206L203.684 14.3275L196.999 24.4017L197.093 24.7783L203.966 27.6969C204.061 27.7911 204.249 27.6969 204.249 27.6028C204.343 27.4145 204.343 27.2262 204.155 27.2262Z" fill="#807976"/>
<path d="M185.701 18.8469L190.22 13.857L191.633 28.921C191.633 29.0152 191.727 29.1093 191.821 29.1093C191.915 29.1093 192.009 29.1093 192.103 29.1093L197.47 24.6843C197.564 24.5901 197.564 24.4018 197.47 24.3077C197.376 24.2135 197.187 24.2135 197.093 24.3077L192.103 28.4503L190.691 13.2921C190.691 13.1979 190.597 13.1038 190.503 13.1038C190.409 13.1038 190.314 13.1038 190.22 13.1979L185.325 18.5645C185.23 18.6586 185.23 18.8469 185.325 18.9411C185.513 18.9411 185.607 18.9411 185.701 18.8469Z" fill="#807976"/>
<path d="M182.782 12.4443C182.782 12.3502 175.439 1.71106 175.439 1.71106L174.78 0.863708C174.686 0.769556 174.592 0.863699 174.497 0.95785C174.403 1.052 174.403 1.14616 174.497 1.24031L182.029 12.0677" fill="#807976"/>
<path d="M243.039 1.33572L236.166 6.70228C236.072 6.79643 236.072 6.89059 236.072 6.98474C236.072 7.07889 236.166 7.17304 236.26 7.17304L242.757 8.11454L236.166 18.5652L236.26 18.9418L242.192 21.2014L236.26 24.8733L236.166 25.2499L242.003 34.2883L231.741 29.3925L233.624 19.3184L233.436 19.036L224.962 18.5652L226.845 7.64379C226.845 7.54964 226.845 7.45548 226.751 7.36133C226.657 7.26718 226.563 7.26718 226.469 7.36133L221.102 11.4098L222.891 1.80647C222.891 1.71232 222.891 1.61816 222.797 1.52401C222.703 1.42986 222.608 1.42986 222.514 1.52401L213.758 6.41983L213.664 6.79644L220.255 17.153L213.382 17.6237C213.288 17.6237 213.193 17.7179 213.193 17.812C213.193 17.9062 213.193 18.0003 213.288 18.0945L220.349 23.7435L213.758 28.9218V29.2984L220.631 34.6649C220.725 34.7591 220.914 34.7591 221.008 34.6649C221.102 34.5708 221.102 34.3825 221.008 34.2883L214.417 29.1101L221.008 23.9318V23.5552L214.135 18.0945L220.82 17.6237L221.008 17.2471L214.323 6.70228L222.42 2.18306L220.537 11.9747C220.537 12.0689 220.537 12.163 220.631 12.2571C220.725 12.3513 220.82 12.3513 220.914 12.2571L226.28 8.2087L224.397 18.8477L224.586 19.1301L233.059 19.6009L231.176 29.5808L231.27 29.8633L242.474 35.2298C242.568 35.2298 242.662 35.2298 242.757 35.1357C242.851 35.0415 242.851 34.9474 242.757 34.8532L236.543 25.3441L242.662 21.578C242.757 21.4839 242.757 21.4839 242.757 21.3897C242.757 21.2956 242.662 21.2014 242.568 21.2014L236.543 18.8477L243.227 8.39699L243.039 8.02038L236.731 7.07888L243.133 2.08892C243.227 1.99477 243.227 1.90061 243.133 1.71231C243.322 1.33571 243.133 1.24157 243.039 1.33572Z" fill="#807976"/>
<path d="M213.758 34.6645L220.913 29.5804V29.2038L213.852 23.084L221.384 17.9057V17.5291L214.699 12.6333H221.29C221.384 12.6333 221.478 12.5391 221.478 12.5391C221.478 12.445 221.478 12.3508 221.478 12.2567L214.228 1.80601L226.468 7.73748L227.88 23.743L227.974 23.9313L242.568 34.4762C242.662 34.5703 242.756 34.5703 242.85 34.4762C242.944 34.382 242.944 34.2879 242.944 34.1937L237.107 17.8116L242.756 14.5163C242.85 14.4222 242.85 14.328 242.85 14.2339C242.85 14.1397 242.756 14.0456 242.662 14.0456L237.107 12.6333L243.321 1.71185L243.132 1.33525L236.259 0.864502C236.165 0.864502 235.977 0.958649 235.977 1.0528C235.977 1.14695 236.071 1.33525 236.165 1.33525L242.662 1.80601L236.542 12.7274L236.73 13.1041L242.003 14.4222L236.636 17.5291L236.542 17.8116L242.097 33.6288L228.163 23.4606L226.75 7.45503L226.656 7.26673L213.475 0.958644C213.381 0.864493 213.287 0.958649 213.193 1.0528C213.099 1.14695 213.099 1.2411 213.193 1.33525L220.725 12.1625H213.852C213.758 12.1625 213.663 12.2567 213.663 12.3508C213.663 12.445 213.663 12.5391 213.758 12.6333L220.819 17.8116L213.287 22.9898V23.3664L220.348 29.4862L213.475 34.382C213.381 34.4762 213.381 34.6645 213.475 34.7586C213.475 34.7586 213.663 34.7586 213.758 34.6645Z" fill="#807976"/>
<path d="M236.072 1.71178L242.38 14.3279L236.072 24.9669L236.166 25.3435L242.097 27.6031L234.471 34.382L233.059 19.6945C233.059 19.6004 232.965 19.5062 232.871 19.5062C232.777 19.5062 232.682 19.5062 232.588 19.6004L228.163 23.5547L229.575 13.0098C229.575 12.9157 229.575 12.8215 229.481 12.7274C229.387 12.7274 229.293 12.7274 229.199 12.8215L224.68 17.8115L222.326 1.24103C222.326 1.14688 222.232 1.05273 222.138 1.05273C222.043 1.05273 221.949 1.05274 221.855 1.14689L213.099 12.8215V13.104L220.16 22.9898L213.287 23.4605L213.099 23.8371L220.443 35.041C220.537 35.1352 220.631 35.2293 220.819 35.1352C220.914 35.041 221.008 34.9469 220.914 34.7586L213.852 23.8371L220.725 23.3664C220.819 23.3664 220.914 23.2722 220.914 23.2722C220.914 23.1781 220.914 23.0839 220.914 22.9898L213.664 12.9157L221.949 1.80594L224.303 18.2823C224.303 18.3764 224.397 18.4706 224.491 18.4706C224.585 18.4706 224.68 18.4705 224.774 18.3764L229.105 13.5747L227.787 24.0254C227.787 24.1196 227.787 24.2137 227.881 24.3079C227.975 24.402 228.069 24.3079 228.163 24.3079L232.682 20.2594L234.095 34.9469C234.095 35.041 234.189 35.1352 234.283 35.1352C234.377 35.1352 234.471 35.1352 234.565 35.1352L242.851 27.7914L242.756 27.4148L236.637 25.0611L242.851 14.5162V14.3279L236.543 1.61764C236.448 1.52349 236.354 1.42934 236.26 1.52349C236.072 1.42934 236.072 1.52348 236.072 1.71178Z" fill="#807976"/>
<path d="M221.196 12.5397L229.293 13.4812L230.705 29.3925C230.705 29.4867 230.799 29.5808 230.893 29.5808C230.988 29.5808 231.082 29.5808 231.176 29.5808L236.543 25.1558C236.637 25.0616 236.637 24.8733 236.543 24.7792C236.448 24.685 236.26 24.685 236.166 24.7792L231.176 28.9218L229.764 13.2929L229.575 13.1046L221.29 12.1631C221.196 12.1631 221.008 12.2572 221.008 12.3514C220.913 12.4455 221.008 12.5397 221.196 12.5397Z" fill="#807976"/>
<path d="M213.664 17.0577L213.476 17.246L213.664 17.4343L221.007 12.0678V11.6912L220.443 11.8795L213.381 17.0577V17.4343C213.381 17.5285 213.664 17.1519 213.664 17.0577Z" fill="#807976"/>
<path d="M39.2032 26.8499C39.5798 26.8499 39.9564 27.1323 39.9564 27.6031C39.9564 28.0738 39.6739 28.3563 39.2032 28.3563C38.8266 28.3563 38.45 28.0738 38.45 27.6031C38.45 27.1323 38.8266 26.8499 39.2032 26.8499Z" fill="#807976"/>
<path d="M30.918 0.394043C31.2946 0.394043 31.6712 0.676499 31.6712 1.14725C31.6712 1.61801 31.3887 1.90045 30.918 1.90045C30.5414 1.90045 30.1648 1.61801 30.1648 1.14725C30.1648 0.77065 30.4472 0.394043 30.918 0.394043Z" fill="#807976"/>
<path d="M56.8093 0.394043C57.1859 0.394043 57.5625 0.676499 57.5625 1.14725C57.5625 1.61801 57.2801 1.90045 56.8093 1.90045C56.4327 1.90045 56.0562 1.61801 56.0562 1.14725C56.0562 0.77065 56.3386 0.394043 56.8093 0.394043Z" fill="#807976"/>
<path d="M65.5655 0.394043C65.9421 0.394043 66.3187 0.676499 66.3187 1.14725C66.3187 1.61801 66.0362 1.90045 65.5655 1.90045C65.0947 1.90045 64.8123 1.61801 64.8123 1.14725C64.8123 0.77065 65.1889 0.394043 65.5655 0.394043Z" fill="#807976"/>
<path d="M72.9092 5.76099C73.2858 5.76099 73.6624 6.04344 73.6624 6.51418C73.6624 6.98493 73.38 7.26738 72.9092 7.26738C72.5326 7.26738 72.156 6.98493 72.156 6.51418C72.156 6.13759 72.4385 5.76099 72.9092 5.76099Z" fill="#807976"/>
<path d="M72.9092 13.6682C73.2858 13.6682 73.6624 13.9507 73.6624 14.4214C73.6624 14.8922 73.38 15.1746 72.9092 15.1746C72.5326 15.1746 72.156 14.8922 72.156 14.4214C72.156 13.9507 72.4385 13.6682 72.9092 13.6682Z" fill="#807976"/>
<path d="M72.9092 19.0352C73.2858 19.0352 73.6624 19.3176 73.6624 19.7883C73.6624 20.1649 73.38 20.5415 72.9092 20.5415C72.5326 20.5415 72.156 20.2591 72.156 19.7883C72.156 19.3176 72.4385 19.0352 72.9092 19.0352Z" fill="#807976"/>
<path d="M76.7693 20.448C77.1459 20.448 77.5225 20.7304 77.5225 21.2012C77.5225 21.5777 77.2401 21.9543 76.7693 21.9543C76.3927 21.9543 76.0161 21.6719 76.0161 21.2012C76.1103 20.7304 76.3927 20.448 76.7693 20.448Z" fill="#807976"/>
<path d="M76.2984 12.1628C76.675 12.1628 77.0516 12.4453 77.0516 12.916C77.0516 13.2926 76.7691 13.6692 76.2984 13.6692C75.9218 13.6692 75.5452 13.3868 75.5452 12.916C75.5452 12.4453 75.9218 12.1628 76.2984 12.1628Z" fill="#807976"/>
<path d="M75.8277 7.26636C76.2043 7.26636 76.5809 7.5488 76.5809 8.01955C76.5809 8.39616 76.2985 8.77277 75.8277 8.77277C75.4511 8.77277 75.0745 8.49031 75.0745 8.01955C75.0745 7.5488 75.4511 7.26636 75.8277 7.26636Z" fill="#807976"/>
<path d="M77.24 27.3203C77.6166 27.3203 77.9932 27.6028 77.9932 28.0735C77.9932 28.4501 77.7108 28.8266 77.24 28.8266C76.8634 28.8266 76.4868 28.5442 76.4868 28.0735C76.581 27.6028 76.8634 27.3203 77.24 27.3203Z" fill="#807976"/>
<path d="M72.9092 28.7329C73.2858 28.7329 73.6624 29.0153 73.6624 29.4861C73.6624 29.8626 73.38 30.2392 72.9092 30.2392C72.5326 30.2392 72.156 29.9568 72.156 29.4861C72.156 29.1095 72.4385 28.7329 72.9092 28.7329Z" fill="#807976"/>
<path d="M79.6878 24.4023C80.0644 24.4023 80.441 24.6848 80.441 25.1555C80.441 25.6263 80.1585 25.9087 79.6878 25.9087C79.3112 25.9087 78.9346 25.6263 78.9346 25.1555C79.0287 24.6848 79.3112 24.4023 79.6878 24.4023Z" fill="#807976"/>
<path d="M77.805 9.71533C78.1816 9.71533 78.5582 9.99778 78.5582 10.4685C78.5582 10.8451 78.2757 11.2217 77.805 11.2217C77.3342 11.2217 77.0518 10.9393 77.0518 10.4685C77.0518 9.99778 77.3342 9.71533 77.805 9.71533Z" fill="#807976"/>
<path d="M65.5655 33.6289C65.9421 33.6289 66.3187 33.9114 66.3187 34.3822C66.3187 34.7588 66.0362 35.1354 65.5655 35.1354C65.0947 35.1354 64.8123 34.853 64.8123 34.3822C64.8123 33.9114 65.1889 33.6289 65.5655 33.6289Z" fill="#807976"/>
<path d="M71.4026 33.6289C71.7792 33.6289 72.1558 33.9114 72.1558 34.3822C72.1558 34.7588 71.8734 35.1354 71.4026 35.1354C71.026 35.1354 70.6494 34.853 70.6494 34.3822C70.6494 33.9114 71.026 33.6289 71.4026 33.6289Z" fill="#807976"/>
<path d="M77.24 33.6289C77.6166 33.6289 77.9932 33.9114 77.9932 34.3822C77.9932 34.7588 77.7108 35.1354 77.24 35.1354C76.8634 35.1354 76.4868 34.853 76.4868 34.3822C76.581 34.0055 76.8634 33.6289 77.24 33.6289Z" fill="#807976"/>
<path d="M84.1128 32.2168C84.4894 32.2168 84.866 32.4992 84.866 32.97C84.866 33.3466 84.5836 33.7233 84.1128 33.7233C83.7362 33.7233 83.3596 33.4408 83.3596 32.97C83.3596 32.4992 83.7362 32.2168 84.1128 32.2168Z" fill="#807976"/>
<path d="M87.5025 27.7905C87.8791 27.7905 88.2557 28.073 88.2557 28.5438C88.2557 28.9204 87.9732 29.297 87.5025 29.297C87.1259 29.297 86.7493 29.0146 86.7493 28.5438C86.8434 28.073 87.1259 27.7905 87.5025 27.7905Z" fill="#807976"/>
<path d="M87.5025 22.897C87.8791 22.897 88.2557 23.1794 88.2557 23.6502C88.2557 24.0268 87.9732 24.4034 87.5025 24.4034C87.1259 24.4034 86.7493 24.1209 86.7493 23.6502C86.8434 23.1794 87.1259 22.897 87.5025 22.897Z" fill="#807976"/>
<path d="M85.0545 18.4707C85.4311 18.4707 85.8077 18.7532 85.8077 19.224C85.8077 19.6006 85.5252 19.9772 85.0545 19.9772C84.5837 19.9772 84.3013 19.6947 84.3013 19.224C84.3954 18.8473 84.6779 18.4707 85.0545 18.4707Z" fill="#807976"/>
<path d="M81.1944 16.0217C81.571 16.0217 81.9476 16.3042 81.9476 16.7749C81.9476 17.1515 81.6651 17.5281 81.1944 17.5281C80.8178 17.5281 80.4412 17.2457 80.4412 16.7749C80.4412 16.3983 80.8178 16.0217 81.1944 16.0217Z" fill="#807976"/>
<path d="M85.0545 12.6333C85.4311 12.6333 85.8077 12.9158 85.8077 13.3865C85.8077 13.7631 85.5252 14.1397 85.0545 14.1397C84.5837 14.1397 84.3013 13.8573 84.3013 13.3865C84.3954 13.0099 84.6779 12.6333 85.0545 12.6333Z" fill="#807976"/>
<path d="M86.5608 7.73828C86.9374 7.73828 87.314 8.02072 87.314 8.49148C87.314 8.86808 87.0316 9.24469 86.5608 9.24469C86.1842 9.24469 85.8076 8.96223 85.8076 8.49148C85.8076 8.11487 86.1842 7.73828 86.5608 7.73828Z" fill="#807976"/>
<path d="M83.6421 2.84155C84.0187 2.84155 84.3953 3.12401 84.3953 3.59476C84.3953 3.97136 84.1129 4.34796 83.6421 4.34796C83.1714 4.34796 82.8889 4.06551 82.8889 3.59476C82.8889 3.21816 83.2655 2.84155 83.6421 2.84155Z" fill="#807976"/>
<path d="M77.24 0.394043C77.6166 0.394043 77.9932 0.676499 77.9932 1.14725C77.9932 1.61801 77.7108 1.90045 77.24 1.90045C76.8634 1.90045 76.4868 1.61801 76.4868 1.14725C76.581 0.77065 76.8634 0.394043 77.24 0.394043Z" fill="#807976"/>
<path d="M96.8233 0.394043C97.1999 0.394043 97.5765 0.676499 97.5765 1.14725C97.5765 1.61801 97.294 1.90045 96.8233 1.90045C96.4467 1.90045 96.0701 1.61801 96.0701 1.14725C96.0701 0.77065 96.4467 0.394043 96.8233 0.394043Z" fill="#807976"/>
<path d="M96.8233 7.26636C97.1999 7.26636 97.5765 7.5488 97.5765 8.01955C97.5765 8.39616 97.294 8.77277 96.8233 8.77277C96.4467 8.77277 96.0701 8.49031 96.0701 8.01955C96.0701 7.5488 96.4467 7.26636 96.8233 7.26636Z" fill="#807976"/>
<path d="M96.8233 13.6682C97.1999 13.6682 97.5765 13.9507 97.5765 14.4214C97.5765 14.8922 97.294 15.1746 96.8233 15.1746C96.4467 15.1746 96.0701 14.8922 96.0701 14.4214C96.0701 13.9507 96.4467 13.6682 96.8233 13.6682Z" fill="#807976"/>
<path d="M96.8233 20.448C97.1999 20.448 97.5765 20.7304 97.5765 21.2012C97.5765 21.5777 97.294 21.9543 96.8233 21.9543C96.4467 21.9543 96.0701 21.6719 96.0701 21.2012C96.0701 20.7304 96.4467 20.448 96.8233 20.448Z" fill="#807976"/>
<path d="M104.167 20.9185C104.544 20.9185 104.92 21.2009 104.92 21.6716C104.92 22.0482 104.638 22.4247 104.167 22.4247C103.79 22.4247 103.414 22.1423 103.414 21.6716C103.414 21.2009 103.79 20.9185 104.167 20.9185Z" fill="#807976"/>
<path d="M104.638 15.5513C105.014 15.5513 105.391 15.8337 105.391 16.3045C105.391 16.6811 105.108 17.0577 104.638 17.0577C104.167 17.0577 103.885 16.7752 103.885 16.3045C103.885 15.9279 104.261 15.5513 104.638 15.5513Z" fill="#807976"/>
<path d="M114.429 15.5513C114.806 15.5513 115.182 15.8337 115.182 16.3045C115.182 16.6811 114.9 17.0577 114.429 17.0577C113.958 17.0577 113.676 16.7752 113.676 16.3045C113.676 15.9279 113.958 15.5513 114.429 15.5513Z" fill="#807976"/>
<path d="M118.29 10.6562C118.666 10.6562 119.043 10.9387 119.043 11.4094C119.043 11.8802 118.76 12.1626 118.29 12.1626C117.819 12.1626 117.536 11.8802 117.536 11.4094C117.631 11.0328 117.913 10.6562 118.29 10.6562Z" fill="#807976"/>
<path d="M117.348 13.6682C117.725 13.6682 118.101 13.9507 118.101 14.4214C118.101 14.8922 117.819 15.1746 117.348 15.1746C116.972 15.1746 116.595 14.8922 116.595 14.4214C116.595 13.9507 116.972 13.6682 117.348 13.6682Z" fill="#807976"/>
<path d="M117.348 7.26636C117.725 7.26636 118.101 7.5488 118.101 8.01955C118.101 8.39616 117.819 8.77277 117.348 8.77277C116.972 8.77277 116.595 8.49031 116.595 8.01955C116.595 7.5488 116.972 7.26636 117.348 7.26636Z" fill="#807976"/>
<path d="M104.638 5.76099C105.014 5.76099 105.391 6.04344 105.391 6.51418C105.391 6.98493 105.108 7.26738 104.638 7.26738C104.167 7.26738 103.885 6.98493 103.885 6.51418C103.885 6.13759 104.261 5.76099 104.638 5.76099Z" fill="#807976"/>
<path d="M113.865 5.76099C114.241 5.76099 114.618 6.04344 114.618 6.51418C114.618 6.98493 114.335 7.26738 113.865 7.26738C113.488 7.26738 113.111 6.98493 113.111 6.51418C113.205 6.13759 113.488 5.76099 113.865 5.76099Z" fill="#807976"/>
<path d="M111.511 20.9185C111.887 20.9185 112.264 21.2009 112.264 21.6716C112.264 22.0482 111.982 22.4247 111.511 22.4247C111.134 22.4247 110.758 22.1423 110.758 21.6716C110.758 21.2009 111.04 20.9185 111.511 20.9185Z" fill="#807976"/>
<path d="M96.8233 33.6289C97.1999 33.6289 97.5765 33.9114 97.5765 34.3822C97.5765 34.7588 97.294 35.1354 96.8233 35.1354C96.4467 35.1354 96.0701 34.853 96.0701 34.3822C96.0701 34.0055 96.4467 33.6289 96.8233 33.6289Z" fill="#807976"/>
<path d="M104.167 33.6289C104.544 33.6289 104.92 33.9114 104.92 34.3822C104.92 34.7588 104.638 35.1354 104.167 35.1354C103.79 35.1354 103.414 34.853 103.414 34.3822C103.414 33.9114 103.79 33.6289 104.167 33.6289Z" fill="#807976"/>
<path d="M104.167 26.8499C104.544 26.8499 104.92 27.1323 104.92 27.6031C104.92 28.0738 104.638 28.3563 104.167 28.3563C103.79 28.3563 103.414 28.0738 103.414 27.6031C103.414 27.1323 103.79 26.8499 104.167 26.8499Z" fill="#807976"/>
<path d="M114.429 26.8499C114.806 26.8499 115.182 27.1323 115.182 27.6031C115.182 28.0738 114.9 28.3563 114.429 28.3563C113.958 28.3563 113.676 28.0738 113.676 27.6031C113.676 27.1323 113.958 26.8499 114.429 26.8499Z" fill="#807976"/>
<path d="M118.76 33.6289C119.137 33.6289 119.513 33.9114 119.513 34.3822C119.513 34.7588 119.231 35.1354 118.76 35.1354C118.384 35.1354 118.007 34.853 118.007 34.3822C118.101 34.0055 118.384 33.6289 118.76 33.6289Z" fill="#807976"/>
<path d="M123.185 25.8149C123.562 25.8149 123.939 26.0974 123.939 26.5682C123.939 27.039 123.656 27.3215 123.185 27.3215C122.809 27.3215 122.432 27.039 122.432 26.5682C122.432 26.0974 122.809 25.8149 123.185 25.8149Z" fill="#807976"/>
<path d="M119.325 19.9775C119.702 19.9775 120.078 20.26 120.078 20.7307C120.078 21.2015 119.796 21.4839 119.325 21.4839C118.854 21.4839 118.572 21.2015 118.572 20.7307C118.572 20.26 118.854 19.9775 119.325 19.9775Z" fill="#807976"/>
<path d="M124.692 17.0596C125.069 17.0596 125.445 17.342 125.445 17.8128C125.445 18.2835 125.163 18.566 124.692 18.566C124.315 18.566 123.939 18.2835 123.939 17.8128C123.939 17.342 124.221 17.0596 124.692 17.0596Z" fill="#807976"/>
<path d="M126.575 12.1628C126.952 12.1628 127.328 12.4453 127.328 12.916C127.328 13.2926 127.046 13.6692 126.575 13.6692C126.198 13.6692 125.822 13.3868 125.822 12.916C125.916 12.4453 126.198 12.1628 126.575 12.1628Z" fill="#807976"/>
<path d="M126.104 6.32544C126.481 6.32544 126.857 6.60788 126.857 7.07862C126.857 7.54937 126.575 7.83182 126.104 7.83182C125.634 7.83182 125.351 7.54937 125.351 7.07862C125.351 6.60788 125.728 6.32544 126.104 6.32544Z" fill="#807976"/>
<path d="M122.715 2.37109C123.091 2.37109 123.468 2.65355 123.468 3.12431C123.468 3.50091 123.185 3.87752 122.715 3.87752C122.338 3.87752 121.961 3.59506 121.961 3.12431C121.961 2.7477 122.338 2.37109 122.715 2.37109Z" fill="#807976"/>
<path d="M116.877 0.394043C117.254 0.394043 117.63 0.676499 117.63 1.14725C117.63 1.61801 117.348 1.90045 116.877 1.90045C116.501 1.90045 116.124 1.61801 116.124 1.14725C116.124 0.77065 116.406 0.394043 116.877 0.394043Z" fill="#807976"/>
<path d="M109.533 0.394043C109.91 0.394043 110.287 0.676499 110.287 1.14725C110.287 1.61801 110.004 1.90045 109.533 1.90045C109.063 1.90045 108.78 1.61801 108.78 1.14725C108.78 0.77065 109.157 0.394043 109.533 0.394043Z" fill="#807976"/>
<path d="M103.131 0.394043C103.508 0.394043 103.884 0.676499 103.884 1.14725C103.884 1.61801 103.602 1.90045 103.131 1.90045C102.66 1.90045 102.378 1.61801 102.378 1.14725C102.472 0.77065 102.755 0.394043 103.131 0.394043Z" fill="#807976"/>
<path d="M128.081 33.6289C128.458 33.6289 128.834 33.9114 128.834 34.3822C128.834 34.7588 128.552 35.1354 128.081 35.1354C127.61 35.1354 127.328 34.853 127.328 34.3822C127.328 33.9114 127.704 33.6289 128.081 33.6289Z" fill="#807976"/>
<path d="M133.448 33.6289C133.824 33.6289 134.201 33.9114 134.201 34.3822C134.201 34.7588 133.918 35.1354 133.448 35.1354C133.071 35.1354 132.694 34.853 132.694 34.3822C132.694 34.0055 133.071 33.6289 133.448 33.6289Z" fill="#807976"/>
<path d="M135.896 27.7905C136.272 27.7905 136.649 28.073 136.649 28.5438C136.649 28.9204 136.366 29.297 135.896 29.297C135.519 29.297 135.143 29.0146 135.143 28.5438C135.143 28.073 135.519 27.7905 135.896 27.7905Z" fill="#807976"/>
<path d="M138.344 21.4844C138.72 21.4844 139.097 21.7668 139.097 22.2376C139.097 22.6142 138.814 22.9909 138.344 22.9909C137.967 22.9909 137.59 22.7084 137.59 22.2376C137.59 21.7668 137.967 21.4844 138.344 21.4844Z" fill="#807976"/>
<path d="M140.791 15.0808C141.168 15.0808 141.544 15.3633 141.544 15.834C141.544 16.3048 141.262 16.5872 140.791 16.5872C140.415 16.5872 140.038 16.3048 140.038 15.834C140.038 15.3633 140.415 15.0808 140.791 15.0808Z" fill="#807976"/>
<path d="M143.24 8.77466C143.616 8.77466 143.993 9.05711 143.993 9.52785C143.993 9.9986 143.71 10.2811 143.24 10.2811C142.863 10.2811 142.486 9.9986 142.486 9.52785C142.486 9.05711 142.863 8.77466 143.24 8.77466Z" fill="#807976"/>
<path d="M146.158 0.958496C146.535 0.958496 146.911 1.24096 146.911 1.71172C146.911 2.18249 146.629 2.46495 146.158 2.46495C145.687 2.46495 145.405 2.18249 145.405 1.71172C145.405 1.24096 145.781 0.958496 146.158 0.958496Z" fill="#807976"/>
<path d="M154.914 0.958496C155.29 0.958496 155.667 1.24096 155.667 1.71172C155.667 2.18249 155.385 2.46495 154.914 2.46495C154.537 2.46495 154.161 2.18249 154.161 1.71172C154.255 1.24096 154.537 0.958496 154.914 0.958496Z" fill="#807976"/>
<path d="M157.833 8.77466C158.209 8.77466 158.586 9.05711 158.586 9.52785C158.586 9.9986 158.304 10.2811 157.833 10.2811C157.456 10.2811 157.08 9.9986 157.08 9.52785C157.174 9.05711 157.456 8.77466 157.833 8.77466Z" fill="#807976"/>
<path d="M150.489 7.73828C150.866 7.73828 151.242 8.02072 151.242 8.49148C151.242 8.86808 150.96 9.24469 150.489 9.24469C150.018 9.24469 149.736 8.96223 149.736 8.49148C149.83 8.11487 150.112 7.73828 150.489 7.73828Z" fill="#807976"/>
<path d="M146.158 19.9775C146.535 19.9775 146.911 20.26 146.911 20.7307C146.911 21.2015 146.629 21.4839 146.158 21.4839C145.687 21.4839 145.405 21.2015 145.405 20.7307C145.405 20.26 145.781 19.9775 146.158 19.9775Z" fill="#807976"/>
<path d="M144.652 25.3445C145.028 25.3445 145.405 25.6269 145.405 26.0977C145.405 26.5685 145.122 26.8509 144.652 26.8509C144.275 26.8509 143.898 26.5685 143.898 26.0977C143.898 25.6269 144.275 25.3445 144.652 25.3445Z" fill="#807976"/>
<path d="M156.421 25.3445C156.797 25.3445 157.174 25.6269 157.174 26.0977C157.174 26.5685 156.891 26.8509 156.421 26.8509C156.044 26.8509 155.667 26.5685 155.667 26.0977C155.667 25.6269 156.044 25.3445 156.421 25.3445Z" fill="#807976"/>
<path d="M159.339 33.6289C159.716 33.6289 160.092 33.9114 160.092 34.3822C160.092 34.7588 159.81 35.1354 159.339 35.1354C158.868 35.1354 158.586 34.853 158.586 34.3822C158.586 33.9114 158.963 33.6289 159.339 33.6289Z" fill="#807976"/>
<path d="M141.733 33.6289C142.109 33.6289 142.486 33.9114 142.486 34.3822C142.486 34.7588 142.203 35.1354 141.733 35.1354C141.356 35.1354 140.979 34.853 140.979 34.3822C140.979 33.9114 141.356 33.6289 141.733 33.6289Z" fill="#807976"/>
<path d="M154.914 19.9775C155.29 19.9775 155.667 20.26 155.667 20.7307C155.667 21.2015 155.385 21.4839 154.914 21.4839C154.537 21.4839 154.161 21.2015 154.161 20.7307C154.161 20.26 154.537 19.9775 154.914 19.9775Z" fill="#807976"/>
<path d="M153.031 14.1401C153.408 14.1401 153.784 14.4226 153.784 14.8933C153.784 15.2699 153.502 15.6465 153.031 15.6465C152.654 15.6465 152.278 15.3641 152.278 14.8933C152.278 14.4226 152.56 14.1401 153.031 14.1401Z" fill="#807976"/>
<path d="M148.135 14.1401C148.512 14.1401 148.888 14.4226 148.888 14.8933C148.888 15.2699 148.606 15.6465 148.135 15.6465C147.758 15.6465 147.382 15.3641 147.382 14.8933C147.382 14.4226 147.664 14.1401 148.135 14.1401Z" fill="#807976"/>
<path d="M160.281 14.6104C160.657 14.6104 161.034 14.8928 161.034 15.3636C161.034 15.7402 160.751 16.1168 160.281 16.1168C159.904 16.1168 159.527 15.8343 159.527 15.3636C159.621 14.8928 159.904 14.6104 160.281 14.6104Z" fill="#807976"/>
<path d="M162.728 21.4844C163.105 21.4844 163.481 21.7668 163.481 22.2376C163.481 22.6142 163.199 22.9909 162.728 22.9909C162.352 22.9909 161.975 22.7084 161.975 22.2376C162.069 21.7668 162.352 21.4844 162.728 21.4844Z" fill="#807976"/>
<path d="M164.706 27.3203C165.082 27.3203 165.459 27.6028 165.459 28.0735C165.459 28.4501 165.177 28.8266 164.706 28.8266C164.329 28.8266 163.953 28.5442 163.953 28.0735C163.953 27.6028 164.329 27.3203 164.706 27.3203Z" fill="#807976"/>
<path d="M167.154 33.6289C167.53 33.6289 167.907 33.9114 167.907 34.3822C167.907 34.7588 167.624 35.1354 167.154 35.1354C166.683 35.1354 166.4 34.853 166.4 34.3822C166.4 34.0055 166.777 33.6289 167.154 33.6289Z" fill="#807976"/>
<path d="M174.497 33.6289C174.874 33.6289 175.251 33.9114 175.251 34.3822C175.251 34.7588 174.968 35.1354 174.497 35.1354C174.027 35.1354 173.744 34.853 173.744 34.3822C173.744 33.9114 174.121 33.6289 174.497 33.6289Z" fill="#807976"/>
<path d="M181.841 33.6289C182.218 33.6289 182.594 33.9114 182.594 34.3822C182.594 34.7588 182.312 35.1354 181.841 35.1354C181.464 35.1354 181.088 34.853 181.088 34.3822C181.088 33.9114 181.37 33.6289 181.841 33.6289Z" fill="#807976"/>
<path d="M195.022 33.6289C195.399 33.6289 195.776 33.9114 195.776 34.3822C195.776 34.7588 195.493 35.1354 195.022 35.1354C194.552 35.1354 194.269 34.853 194.269 34.3822C194.269 33.9114 194.552 33.6289 195.022 33.6289Z" fill="#807976"/>
<path d="M203.778 33.6289C204.155 33.6289 204.531 33.9114 204.531 34.3822C204.531 34.7588 204.249 35.1354 203.778 35.1354C203.401 35.1354 203.025 34.853 203.025 34.3822C203.025 34.0055 203.401 33.6289 203.778 33.6289Z" fill="#807976"/>
<path d="M181.841 11.2207C182.218 11.2207 182.594 11.5032 182.594 11.9739C182.594 12.3505 182.312 12.7271 181.841 12.7271C181.464 12.7271 181.088 12.4446 181.088 11.9739C181.088 11.5032 181.37 11.2207 181.841 11.2207Z" fill="#807976"/>
<path d="M181.841 16.5876C182.218 16.5876 182.594 16.8701 182.594 17.3408C182.594 17.7174 182.312 18.0939 181.841 18.0939C181.464 18.0939 181.088 17.8115 181.088 17.3408C181.088 16.8701 181.37 16.5876 181.841 16.5876Z" fill="#807976"/>
<path d="M181.841 22.4253C182.218 22.4253 182.594 22.7077 182.594 23.1785C182.594 23.6492 182.312 23.9317 181.841 23.9317C181.464 23.9317 181.088 23.6492 181.088 23.1785C181.088 22.7077 181.37 22.4253 181.841 22.4253Z" fill="#807976"/>
<path d="M181.841 28.2625C182.218 28.2625 182.594 28.5449 182.594 29.0157C182.594 29.3923 182.312 29.769 181.841 29.769C181.464 29.769 181.088 29.4865 181.088 29.0157C181.088 28.6391 181.37 28.2625 181.841 28.2625Z" fill="#807976"/>
<path d="M174.497 28.2625C174.874 28.2625 175.251 28.5449 175.251 29.0157C175.251 29.3923 174.968 29.769 174.497 29.769C174.027 29.769 173.744 29.4865 173.744 29.0157C173.744 28.6391 174.121 28.2625 174.497 28.2625Z" fill="#807976"/>
<path d="M174.497 22.4253C174.874 22.4253 175.251 22.7077 175.251 23.1785C175.251 23.6492 174.968 23.9317 174.497 23.9317C174.027 23.9317 173.744 23.6492 173.744 23.1785C173.744 22.7077 174.121 22.4253 174.497 22.4253Z" fill="#807976"/>
<path d="M174.497 16.5876C174.874 16.5876 175.251 16.8701 175.251 17.3408C175.251 17.7174 174.968 18.0939 174.497 18.0939C174.027 18.0939 173.744 17.8115 173.744 17.3408C173.744 16.8701 174.121 16.5876 174.497 16.5876Z" fill="#807976"/>
<path d="M174.497 11.2207C174.874 11.2207 175.251 11.5032 175.251 11.9739C175.251 12.3505 174.968 12.7271 174.497 12.7271C174.027 12.7271 173.744 12.4446 173.744 11.9739C173.744 11.5032 174.121 11.2207 174.497 11.2207Z" fill="#807976"/>
<path d="M174.497 5.29053C174.874 5.29053 175.251 5.57298 175.251 6.04372C175.251 6.42032 174.968 6.79692 174.497 6.79692C174.027 6.79692 173.744 6.51447 173.744 6.04372C173.744 5.66713 174.121 5.29053 174.497 5.29053Z" fill="#807976"/>
<path d="M174.497 0.394043C174.874 0.394043 175.251 0.676499 175.251 1.14725C175.251 1.61801 174.968 1.90045 174.497 1.90045C174.027 1.90045 173.744 1.61801 173.744 1.14725C173.744 0.77065 174.121 0.394043 174.497 0.394043Z" fill="#807976"/>
<path d="M183.253 0.394043C183.63 0.394043 184.006 0.676499 184.006 1.14725C184.006 1.61801 183.724 1.90045 183.253 1.90045C182.877 1.90045 182.5 1.61801 182.5 1.14725C182.594 0.77065 182.877 0.394043 183.253 0.394043Z" fill="#807976"/>
<path d="M197.47 23.8379C197.847 23.8379 198.223 24.1204 198.223 24.5912C198.223 24.9678 197.941 25.3444 197.47 25.3444C197.093 25.3444 196.717 25.0619 196.717 24.5912C196.717 24.2145 196.999 23.8379 197.47 23.8379Z" fill="#807976"/>
<path d="M203.778 26.2854C204.155 26.2854 204.531 26.5678 204.531 27.0386C204.531 27.5093 204.249 27.7917 203.778 27.7917C203.401 27.7917 203.025 27.5093 203.025 27.0386C203.025 26.662 203.401 26.2854 203.778 26.2854Z" fill="#807976"/>
<path d="M203.778 19.9775C204.155 19.9775 204.531 20.26 204.531 20.7307C204.531 21.2015 204.249 21.4839 203.778 21.4839C203.401 21.4839 203.025 21.2015 203.025 20.7307C203.025 20.26 203.401 19.9775 203.778 19.9775Z" fill="#807976"/>
<path d="M203.778 13.1038C204.155 13.1038 204.531 13.3862 204.531 13.857C204.531 14.2336 204.249 14.6102 203.778 14.6102C203.401 14.6102 203.025 14.3277 203.025 13.857C203.025 13.4804 203.401 13.1038 203.778 13.1038Z" fill="#807976"/>
<path d="M203.778 6.7959C204.155 6.7959 204.531 7.07834 204.531 7.54909C204.531 7.92569 204.249 8.30229 203.778 8.30229C203.401 8.30229 203.025 8.01984 203.025 7.54909C203.025 7.07834 203.401 6.7959 203.778 6.7959Z" fill="#807976"/>
<path d="M203.778 0.394043C204.155 0.394043 204.531 0.676499 204.531 1.14725C204.531 1.61801 204.249 1.90045 203.778 1.90045C203.401 1.90045 203.025 1.61801 203.025 1.14725C203.025 0.77065 203.401 0.394043 203.778 0.394043Z" fill="#807976"/>
<path d="M192.01 28.2625C192.386 28.2625 192.763 28.5449 192.763 29.0157C192.763 29.3923 192.48 29.769 192.01 29.769C191.633 29.769 191.256 29.4865 191.256 29.0157C191.35 28.6391 191.633 28.2625 192.01 28.2625Z" fill="#807976"/>
<path d="M188.62 22.897C188.997 22.897 189.373 23.1794 189.373 23.6502C189.373 24.0268 189.091 24.4034 188.62 24.4034C188.243 24.4034 187.867 24.1209 187.867 23.6502C187.961 23.1794 188.243 22.897 188.62 22.897Z" fill="#807976"/>
<path d="M185.701 17.53C186.078 17.53 186.454 17.8125 186.454 18.2832C186.454 18.6598 186.172 19.0365 185.701 19.0365C185.324 19.0365 184.948 18.754 184.948 18.2832C184.948 17.8125 185.324 17.53 185.701 17.53Z" fill="#807976"/>
<path d="M197.47 17.53C197.847 17.53 198.223 17.8125 198.223 18.2832C198.223 18.6598 197.941 19.0365 197.47 19.0365C197.093 19.0365 196.717 18.754 196.717 18.2832C196.717 17.8125 196.999 17.53 197.47 17.53Z" fill="#807976"/>
<path d="M197.47 11.6926C197.847 11.6926 198.223 11.9751 198.223 12.4458C198.223 12.8224 197.941 13.199 197.47 13.199C197.093 13.199 196.717 12.9166 196.717 12.4458C196.717 11.9751 196.999 11.6926 197.47 11.6926Z" fill="#807976"/>
<path d="M197.47 6.32544C197.847 6.32544 198.223 6.60788 198.223 7.07862C198.223 7.54937 197.941 7.83182 197.47 7.83182C197.093 7.83182 196.717 7.54937 196.717 7.07862C196.717 6.60788 196.999 6.32544 197.47 6.32544Z" fill="#807976"/>
<path d="M197.47 0.394043C197.847 0.394043 198.223 0.676499 198.223 1.14725C198.223 1.61801 197.941 1.90045 197.47 1.90045C197.093 1.90045 196.717 1.61801 196.717 1.14725C196.717 0.77065 196.999 0.394043 197.47 0.394043Z" fill="#807976"/>
<path d="M193.987 18.4707C194.363 18.4707 194.74 18.7532 194.74 19.224C194.74 19.6006 194.457 19.9772 193.987 19.9772C193.61 19.9772 193.233 19.6947 193.233 19.224C193.328 18.8473 193.61 18.4707 193.987 18.4707Z" fill="#807976"/>
<path d="M190.597 12.1628C190.974 12.1628 191.35 12.4453 191.35 12.916C191.35 13.2926 191.068 13.6692 190.597 13.6692C190.126 13.6692 189.844 13.3868 189.844 12.916C189.844 12.4453 190.22 12.1628 190.597 12.1628Z" fill="#807976"/>
<path d="M187.207 6.32544C187.584 6.32544 187.96 6.60788 187.96 7.07862C187.96 7.54937 187.678 7.83182 187.207 7.83182C186.831 7.83182 186.454 7.54937 186.454 7.07862C186.454 6.60788 186.737 6.32544 187.207 6.32544Z" fill="#807976"/>
<path d="M213.57 33.6289C213.946 33.6289 214.323 33.9114 214.323 34.3822C214.323 34.7588 214.04 35.1354 213.57 35.1354C213.193 35.1354 212.816 34.853 212.816 34.3822C212.816 33.9114 213.099 33.6289 213.57 33.6289Z" fill="#807976"/>
<path d="M220.913 33.6289C221.29 33.6289 221.667 33.9114 221.667 34.3822C221.667 34.7588 221.384 35.1354 220.913 35.1354C220.537 35.1354 220.16 34.853 220.16 34.3822C220.16 33.9114 220.443 33.6289 220.913 33.6289Z" fill="#807976"/>
<path d="M234.095 33.6289C234.471 33.6289 234.848 33.9114 234.848 34.3822C234.848 34.7588 234.565 35.1354 234.095 35.1354C233.718 35.1354 233.341 34.853 233.341 34.3822C233.341 34.0055 233.624 33.6289 234.095 33.6289Z" fill="#807976"/>
<path d="M242.85 33.6289C243.227 33.6289 243.604 33.9114 243.604 34.3822C243.604 34.7588 243.321 35.1354 242.85 35.1354C242.474 35.1354 242.097 34.853 242.097 34.3822C242.097 34.0055 242.474 33.6289 242.85 33.6289Z" fill="#807976"/>
<path d="M220.913 11.2207C221.29 11.2207 221.667 11.5032 221.667 11.9739C221.667 12.3505 221.384 12.7271 220.913 12.7271C220.537 12.7271 220.16 12.4446 220.16 11.9739C220.16 11.5032 220.443 11.2207 220.913 11.2207Z" fill="#807976"/>
<path d="M220.913 16.5876C221.29 16.5876 221.667 16.8701 221.667 17.3408C221.667 17.7174 221.384 18.0939 220.913 18.0939C220.537 18.0939 220.16 17.8115 220.16 17.3408C220.16 16.8701 220.443 16.5876 220.913 16.5876Z" fill="#807976"/>
<path d="M220.913 22.4253C221.29 22.4253 221.667 22.7077 221.667 23.1785C221.667 23.6492 221.384 23.9317 220.913 23.9317C220.537 23.9317 220.16 23.6492 220.16 23.1785C220.16 22.7077 220.443 22.4253 220.913 22.4253Z" fill="#807976"/>
<path d="M220.913 28.2625C221.29 28.2625 221.667 28.5449 221.667 29.0157C221.667 29.3923 221.384 29.769 220.913 29.769C220.537 29.769 220.16 29.4865 220.16 29.0157C220.16 28.6391 220.443 28.2625 220.913 28.2625Z" fill="#807976"/>
<path d="M213.57 28.2625C213.946 28.2625 214.323 28.5449 214.323 29.0157C214.323 29.3923 214.04 29.769 213.57 29.769C213.193 29.769 212.816 29.4865 212.816 29.0157C212.816 28.6391 213.099 28.2625 213.57 28.2625Z" fill="#807976"/>
<path d="M213.57 22.4253C213.946 22.4253 214.323 22.7077 214.323 23.1785C214.323 23.6492 214.04 23.9317 213.57 23.9317C213.193 23.9317 212.816 23.6492 212.816 23.1785C212.816 22.7077 213.099 22.4253 213.57 22.4253Z" fill="#807976"/>
<path d="M213.57 16.5876C213.946 16.5876 214.323 16.8701 214.323 17.3408C214.323 17.7174 214.04 18.0939 213.57 18.0939C213.193 18.0939 212.816 17.8115 212.816 17.3408C212.816 16.8701 213.099 16.5876 213.57 16.5876Z" fill="#807976"/>
<path d="M213.57 11.2207C213.946 11.2207 214.323 11.5032 214.323 11.9739C214.323 12.3505 214.04 12.7271 213.57 12.7271C213.193 12.7271 212.816 12.4446 212.816 11.9739C212.816 11.5032 213.099 11.2207 213.57 11.2207Z" fill="#807976"/>
<path d="M213.57 5.29053C213.946 5.29053 214.323 5.57298 214.323 6.04372C214.323 6.42032 214.04 6.79692 213.57 6.79692C213.193 6.79692 212.816 6.51447 212.816 6.04372C212.816 5.66713 213.099 5.29053 213.57 5.29053Z" fill="#807976"/>
<path d="M213.57 0.394043C213.946 0.394043 214.323 0.676499 214.323 1.14725C214.323 1.61801 214.04 1.90045 213.57 1.90045C213.193 1.90045 212.816 1.61801 212.816 1.14725C212.816 0.77065 213.099 0.394043 213.57 0.394043Z" fill="#807976"/>
<path d="M222.326 0.394043C222.703 0.394043 223.079 0.676499 223.079 1.14725C223.079 1.61801 222.797 1.90045 222.326 1.90045C221.949 1.90045 221.573 1.61801 221.573 1.14725C221.667 0.77065 221.949 0.394043 222.326 0.394043Z" fill="#807976"/>
<path d="M236.543 23.8379C236.919 23.8379 237.296 24.1204 237.296 24.5912C237.296 24.9678 237.013 25.3444 236.543 25.3444C236.166 25.3444 235.79 25.0619 235.79 24.5912C235.79 24.2145 236.072 23.8379 236.543 23.8379Z" fill="#807976"/>
<path d="M242.85 26.2854C243.227 26.2854 243.604 26.5678 243.604 27.0386C243.604 27.5093 243.321 27.7917 242.85 27.7917C242.474 27.7917 242.097 27.5093 242.097 27.0386C242.097 26.662 242.474 26.2854 242.85 26.2854Z" fill="#807976"/>
<path d="M242.85 19.9775C243.227 19.9775 243.604 20.26 243.604 20.7307C243.604 21.2015 243.321 21.4839 242.85 21.4839C242.474 21.4839 242.097 21.2015 242.097 20.7307C242.097 20.26 242.474 19.9775 242.85 19.9775Z" fill="#807976"/>
<path d="M242.85 13.1038C243.227 13.1038 243.604 13.3862 243.604 13.857C243.604 14.2336 243.321 14.6102 242.85 14.6102C242.474 14.6102 242.097 14.3277 242.097 13.857C242.097 13.4804 242.474 13.1038 242.85 13.1038Z" fill="#807976"/>
<path d="M242.85 6.7959C243.227 6.7959 243.604 7.07834 243.604 7.54909C243.604 7.92569 243.321 8.30229 242.85 8.30229C242.474 8.30229 242.097 8.01984 242.097 7.54909C242.097 7.07834 242.474 6.7959 242.85 6.7959Z" fill="#807976"/>
<path d="M242.85 0.394043C243.227 0.394043 243.604 0.676499 243.604 1.14725C243.604 1.61801 243.321 1.90045 242.85 1.90045C242.474 1.90045 242.097 1.61801 242.097 1.14725C242.097 0.77065 242.474 0.394043 242.85 0.394043Z" fill="#807976"/>
<path d="M253.113 0.394043C253.489 0.394043 253.866 0.676499 253.866 1.14725C253.866 1.61801 253.583 1.90045 253.113 1.90045C252.736 1.90045 252.359 1.61801 252.359 1.14725C252.359 0.77065 252.736 0.394043 253.113 0.394043Z" fill="#807976"/>
<path d="M260.928 0.394043C261.304 0.394043 261.681 0.676499 261.681 1.14725C261.681 1.61801 261.398 1.90045 260.928 1.90045C260.551 1.90045 260.174 1.61801 260.174 1.14725C260.174 0.77065 260.551 0.394043 260.928 0.394043Z" fill="#807976"/>
<path d="M260.928 6.7959C261.304 6.7959 261.681 7.07834 261.681 7.54909C261.681 7.92569 261.398 8.30229 260.928 8.30229C260.551 8.30229 260.174 8.01984 260.174 7.54909C260.174 7.07834 260.551 6.7959 260.928 6.7959Z" fill="#807976"/>
<path d="M260.928 13.6682C261.304 13.6682 261.681 13.9507 261.681 14.4214C261.681 14.8922 261.398 15.1746 260.928 15.1746C260.551 15.1746 260.174 14.8922 260.174 14.4214C260.174 13.9507 260.551 13.6682 260.928 13.6682Z" fill="#807976"/>
<path d="M260.928 20.9185C261.304 20.9185 261.681 21.2009 261.681 21.6716C261.681 22.0482 261.398 22.4247 260.928 22.4247C260.551 22.4247 260.174 22.1423 260.174 21.6716C260.174 21.2009 260.551 20.9185 260.928 20.9185Z" fill="#807976"/>
<path d="M260.928 27.3203C261.304 27.3203 261.681 27.6028 261.681 28.0735C261.681 28.4501 261.398 28.8266 260.928 28.8266C260.551 28.8266 260.174 28.5442 260.174 28.0735C260.174 27.6028 260.551 27.3203 260.928 27.3203Z" fill="#807976"/>
<path d="M260.928 33.6289C261.304 33.6289 261.681 33.9114 261.681 34.3822C261.681 34.7588 261.398 35.1354 260.928 35.1354C260.551 35.1354 260.174 34.853 260.174 34.3822C260.174 33.9114 260.551 33.6289 260.928 33.6289Z" fill="#807976"/>
<path d="M253.113 6.7959C253.489 6.7959 253.866 7.07834 253.866 7.54909C253.866 7.92569 253.583 8.30229 253.113 8.30229C252.736 8.30229 252.359 8.01984 252.359 7.54909C252.359 7.07834 252.736 6.7959 253.113 6.7959Z" fill="#807976"/>
<path d="M253.113 13.6682C253.489 13.6682 253.866 13.9507 253.866 14.4214C253.866 14.8922 253.583 15.1746 253.113 15.1746C252.736 15.1746 252.359 14.8922 252.359 14.4214C252.359 13.9507 252.736 13.6682 253.113 13.6682Z" fill="#807976"/>
<path d="M253.113 20.9185C253.489 20.9185 253.866 21.2009 253.866 21.6716C253.866 22.0482 253.583 22.4247 253.113 22.4247C252.736 22.4247 252.359 22.1423 252.359 21.6716C252.359 21.295 252.736 20.9185 253.113 20.9185Z" fill="#807976"/>
<path d="M253.113 27.3203C253.489 27.3203 253.866 27.6028 253.866 28.0735C253.866 28.4501 253.583 28.8266 253.113 28.8266C252.736 28.8266 252.359 28.5442 252.359 28.0735C252.359 27.6028 252.736 27.3203 253.113 27.3203Z" fill="#807976"/>
<path d="M253.113 33.6289C253.489 33.6289 253.866 33.9114 253.866 34.3822C253.866 34.7588 253.583 35.1354 253.113 35.1354C252.736 35.1354 252.359 34.853 252.359 34.3822C252.359 34.0055 252.736 33.6289 253.113 33.6289Z" fill="#807976"/>
<path d="M231.082 28.2625C231.458 28.2625 231.835 28.5449 231.835 29.0157C231.835 29.3923 231.553 29.769 231.082 29.769C230.705 29.769 230.329 29.4865 230.329 29.0157C230.423 28.6391 230.705 28.2625 231.082 28.2625Z" fill="#807976"/>
<path d="M227.692 22.897C228.069 22.897 228.445 23.1794 228.445 23.6502C228.445 24.0268 228.163 24.4034 227.692 24.4034C227.316 24.4034 226.939 24.1209 226.939 23.6502C227.033 23.1794 227.316 22.897 227.692 22.897Z" fill="#807976"/>
<path d="M224.774 17.53C225.15 17.53 225.527 17.8125 225.527 18.2832C225.527 18.6598 225.245 19.0365 224.774 19.0365C224.397 19.0365 224.021 18.754 224.021 18.2832C224.021 17.8125 224.397 17.53 224.774 17.53Z" fill="#807976"/>
<path d="M236.543 17.53C236.919 17.53 237.296 17.8125 237.296 18.2832C237.296 18.6598 237.013 19.0365 236.543 19.0365C236.166 19.0365 235.79 18.754 235.79 18.2832C235.79 17.8125 236.072 17.53 236.543 17.53Z" fill="#807976"/>
<path d="M236.543 11.6926C236.919 11.6926 237.296 11.9751 237.296 12.4458C237.296 12.8224 237.013 13.199 236.543 13.199C236.166 13.199 235.79 12.9166 235.79 12.4458C235.79 11.9751 236.072 11.6926 236.543 11.6926Z" fill="#807976"/>
<path d="M236.543 6.32544C236.919 6.32544 237.296 6.60788 237.296 7.07862C237.296 7.54937 237.013 7.83182 236.543 7.83182C236.166 7.83182 235.79 7.54937 235.79 7.07862C235.79 6.60788 236.072 6.32544 236.543 6.32544Z" fill="#807976"/>
<path d="M236.543 0.394043C236.919 0.394043 237.296 0.676499 237.296 1.14725C237.296 1.61801 237.013 1.90045 236.543 1.90045C236.166 1.90045 235.79 1.61801 235.79 1.14725C235.79 0.77065 236.072 0.394043 236.543 0.394043Z" fill="#807976"/>
<path d="M233.059 18.4707C233.435 18.4707 233.812 18.7532 233.812 19.224C233.812 19.6006 233.53 19.9772 233.059 19.9772C232.682 19.9772 232.306 19.6947 232.306 19.224C232.4 18.8473 232.682 18.4707 233.059 18.4707Z" fill="#807976"/>
<path d="M229.67 12.1628C230.046 12.1628 230.423 12.4453 230.423 12.916C230.423 13.2926 230.14 13.6692 229.67 13.6692C229.293 13.6692 228.917 13.3868 228.917 12.916C228.917 12.4453 229.293 12.1628 229.67 12.1628Z" fill="#807976"/>
<path d="M226.28 6.32544C226.657 6.32544 227.033 6.60788 227.033 7.07862C227.033 7.54937 226.751 7.83182 226.28 7.83182C225.903 7.83182 225.527 7.54937 225.527 7.07862C225.527 6.60788 225.809 6.32544 226.28 6.32544Z" fill="#807976"/>
<path d="M96.8233 26.8499C97.1999 26.8499 97.5765 27.1323 97.5765 27.6031C97.5765 28.0738 97.294 28.3563 96.8233 28.3563C96.4467 28.3563 96.0701 28.0738 96.0701 27.6031C96.0701 27.1323 96.4467 26.8499 96.8233 26.8499Z" fill="#807976"/>
<path d="M71.4026 0.394043C71.7792 0.394043 72.1558 0.676499 72.1558 1.14725C72.1558 1.61801 71.8734 1.90045 71.4026 1.90045C71.026 1.90045 70.6494 1.61801 70.6494 1.14725C70.7436 0.77065 71.026 0.394043 71.4026 0.394043Z" fill="#807976"/>
<path d="M56.8093 5.76099C57.1859 5.76099 57.5625 6.04344 57.5625 6.51418C57.5625 6.98493 57.2801 7.26738 56.8093 7.26738C56.4327 7.26738 56.0562 6.98493 56.0562 6.51418C56.0562 6.13759 56.3386 5.76099 56.8093 5.76099Z" fill="#807976"/>
<path d="M56.8093 11.2207C57.1859 11.2207 57.5625 11.5032 57.5625 11.9739C57.5625 12.3505 57.2801 12.7271 56.8093 12.7271C56.4327 12.7271 56.0562 12.4446 56.0562 11.9739C56.0562 11.5032 56.3386 11.2207 56.8093 11.2207Z" fill="#807976"/>
<path d="M56.8093 17.0596C57.1859 17.0596 57.5625 17.342 57.5625 17.8128C57.5625 18.2835 57.2801 18.566 56.8093 18.566C56.4327 18.566 56.0562 18.2835 56.0562 17.8128C56.0562 17.342 56.3386 17.0596 56.8093 17.0596Z" fill="#807976"/>
<path d="M56.8093 22.897C57.1859 22.897 57.5625 23.1794 57.5625 23.6502C57.5625 24.0268 57.2801 24.4034 56.8093 24.4034C56.4327 24.4034 56.0562 24.1209 56.0562 23.6502C56.0562 23.1794 56.3386 22.897 56.8093 22.897Z" fill="#807976"/>
<path d="M56.8093 28.7329C57.1859 28.7329 57.5625 29.0153 57.5625 29.4861C57.5625 29.8626 57.2801 30.2392 56.8093 30.2392C56.4327 30.2392 56.0562 29.9568 56.0562 29.4861C56.0562 29.1095 56.3386 28.7329 56.8093 28.7329Z" fill="#807976"/>
<path d="M56.8093 33.6289C57.1859 33.6289 57.5625 33.9114 57.5625 34.3822C57.5625 34.7588 57.2801 35.1354 56.8093 35.1354C56.4327 35.1354 56.0562 34.853 56.0562 34.3822C56.0562 33.9114 56.3386 33.6289 56.8093 33.6289Z" fill="#807976"/>
<path d="M65.5655 28.7329C65.9421 28.7329 66.3187 29.0153 66.3187 29.4861C66.3187 29.8626 66.0362 30.2392 65.5655 30.2392C65.0947 30.2392 64.8123 29.9568 64.8123 29.4861C64.8123 29.1095 65.1889 28.7329 65.5655 28.7329Z" fill="#807976"/>
<path d="M65.5655 19.0352C65.9421 19.0352 66.3187 19.3176 66.3187 19.7883C66.3187 20.1649 66.0362 20.5415 65.5655 20.5415C65.0947 20.5415 64.8123 20.2591 64.8123 19.7883C64.8123 19.3176 65.1889 19.0352 65.5655 19.0352Z" fill="#807976"/>
<path d="M65.5655 13.6682C65.9421 13.6682 66.3187 13.9507 66.3187 14.4214C66.3187 14.8922 66.0362 15.1746 65.5655 15.1746C65.0947 15.1746 64.8123 14.8922 64.8123 14.4214C64.8123 13.9507 65.1889 13.6682 65.5655 13.6682Z" fill="#807976"/>
<path d="M65.5655 5.76099C65.9421 5.76099 66.3187 6.04344 66.3187 6.51418C66.3187 6.98493 66.0362 7.26738 65.5655 7.26738C65.0947 7.26738 64.8123 6.98493 64.8123 6.51418C64.8123 6.13759 65.1889 5.76099 65.5655 5.76099Z" fill="#807976"/>
<path d="M23.1035 0.394043C23.4801 0.394043 23.8567 0.676499 23.8567 1.14725C23.8567 1.61801 23.5743 1.90045 23.1035 1.90045C22.6328 1.90045 22.3503 1.61801 22.3503 1.14725C22.3503 0.77065 22.6328 0.394043 23.1035 0.394043Z" fill="#807976"/>
<path d="M8.887 0.394043C9.2636 0.394043 9.64021 0.676499 9.64021 1.14725C9.64021 1.61801 9.35775 1.90045 8.887 1.90045C8.51039 1.90045 8.13379 1.61801 8.13379 1.14725C8.22794 0.77065 8.51039 0.394043 8.887 0.394043Z" fill="#807976"/>
<path d="M8.887 6.32544C9.2636 6.32544 9.64021 6.60788 9.64021 7.07862C9.64021 7.54937 9.35775 7.83182 8.887 7.83182C8.51039 7.83182 8.13379 7.54937 8.13379 7.07862C8.22794 6.60788 8.51039 6.32544 8.887 6.32544Z" fill="#807976"/>
<path d="M8.887 12.1628C9.2636 12.1628 9.64021 12.4453 9.64021 12.916C9.64021 13.2926 9.35775 13.6692 8.887 13.6692C8.51039 13.6692 8.13379 13.3868 8.13379 12.916C8.22794 12.4453 8.51039 12.1628 8.887 12.1628Z" fill="#807976"/>
<path d="M8.887 17.53C9.2636 17.53 9.64021 17.8125 9.64021 18.2832C9.64021 18.6598 9.35775 19.0365 8.887 19.0365C8.51039 19.0365 8.13379 18.754 8.13379 18.2832C8.22794 17.8125 8.51039 17.53 8.887 17.53Z" fill="#807976"/>
<path d="M8.887 22.897C9.2636 22.897 9.64021 23.1794 9.64021 23.6502C9.64021 24.0268 9.35775 24.4034 8.887 24.4034C8.51039 24.4034 8.13379 24.1209 8.13379 23.6502C8.22794 23.1794 8.51039 22.897 8.887 22.897Z" fill="#807976"/>
<path d="M10.8638 26.8499C11.2404 26.8499 11.6171 27.1323 11.6171 27.6031C11.6171 28.0738 11.3346 28.3563 10.8638 28.3563C10.4872 28.3563 10.1106 28.0738 10.1106 27.6031C10.1106 27.1323 10.4872 26.8499 10.8638 26.8499Z" fill="#807976"/>
<path d="M16.2305 28.7329C16.6071 28.7329 16.9837 29.0153 16.9837 29.4861C16.9837 29.8626 16.7012 30.2392 16.2305 30.2392C15.8539 30.2392 15.4773 29.9568 15.4773 29.4861C15.4773 29.1095 15.8539 28.7329 16.2305 28.7329Z" fill="#807976"/>
<path d="M21.5972 26.8499C21.9738 26.8499 22.3504 27.1323 22.3504 27.6031C22.3504 28.0738 22.0679 28.3563 21.5972 28.3563C21.2206 28.3563 20.844 28.0738 20.844 27.6031C20.844 27.1323 21.2206 26.8499 21.5972 26.8499Z" fill="#807976"/>
<path d="M1.07229 6.32544C1.4489 6.32544 1.8255 6.60788 1.8255 7.07862C1.8255 7.54937 1.54305 7.83182 1.07229 7.83182C0.695693 7.83182 0.319092 7.54937 0.319092 7.07862C0.319092 6.60788 0.695693 6.32544 1.07229 6.32544Z" fill="#807976"/>
<path d="M1.07229 12.1628C1.4489 12.1628 1.8255 12.4453 1.8255 12.916C1.8255 13.2926 1.54305 13.6692 1.07229 13.6692C0.695693 13.6692 0.319092 13.3868 0.319092 12.916C0.413242 12.4453 0.695693 12.1628 1.07229 12.1628Z" fill="#807976"/>
<path d="M1.07229 17.53C1.4489 17.53 1.8255 17.8125 1.8255 18.2832C1.8255 18.6598 1.54305 19.0365 1.07229 19.0365C0.695693 19.0365 0.319092 18.754 0.319092 18.2832C0.413242 17.8125 0.695693 17.53 1.07229 17.53Z" fill="#807976"/>
<path d="M1.07229 22.897C1.4489 22.897 1.8255 23.1794 1.8255 23.6502C1.8255 24.0268 1.54305 24.4034 1.07229 24.4034C0.695693 24.4034 0.319092 24.1209 0.319092 23.6502C0.413242 23.1794 0.695693 22.897 1.07229 22.897Z" fill="#807976"/>
<path d="M2.57864 28.2625C2.95525 28.2625 3.33185 28.5449 3.33185 29.0157C3.33185 29.3923 3.0494 29.769 2.57864 29.769C2.20204 29.769 1.82544 29.4865 1.82544 29.0157C1.82544 28.6391 2.20204 28.2625 2.57864 28.2625Z" fill="#807976"/>
<path d="M29.4117 28.2625C29.7883 28.2625 30.1649 28.5449 30.1649 29.0157C30.1649 29.3923 29.8824 29.769 29.4117 29.769C29.035 29.769 28.6584 29.4865 28.6584 29.0157C28.6584 28.6391 29.035 28.2625 29.4117 28.2625Z" fill="#807976"/>
<path d="M6.90943 32.2168C7.28602 32.2168 7.66261 32.4992 7.66261 32.97C7.66261 33.3466 7.38017 33.7233 6.90943 33.7233C6.43869 33.7233 6.15625 33.4408 6.15625 32.97C6.2504 32.4992 6.53284 32.2168 6.90943 32.2168Z" fill="#807976"/>
<path d="M26.022 31.6523C26.3986 31.6523 26.7752 31.9348 26.7752 32.4056C26.7752 32.7822 26.4928 33.1588 26.022 33.1588C25.6454 33.1588 25.2688 32.8763 25.2688 32.4056C25.2688 32.029 25.6454 31.6523 26.022 31.6523Z" fill="#807976"/>
<path d="M12.8411 34.0999C13.2177 34.0999 13.5943 34.3823 13.5943 34.853C13.5943 35.3238 13.3119 35.6062 12.8411 35.6062C12.4645 35.6062 12.0879 35.3238 12.0879 34.853C12.0879 34.4764 12.3703 34.0999 12.8411 34.0999Z" fill="#807976"/>
<path d="M18.6785 34.0999C19.0551 34.0999 19.4317 34.3823 19.4317 34.853C19.4317 35.3238 19.1493 35.6062 18.6785 35.6062C18.3019 35.6062 17.9253 35.3238 17.9253 34.853C17.9253 34.4764 18.3019 34.0999 18.6785 34.0999Z" fill="#807976"/>
<path d="M30.918 6.32544C31.2946 6.32544 31.6712 6.60788 31.6712 7.07862C31.6712 7.54937 31.3887 7.83182 30.918 7.83182C30.5414 7.83182 30.1648 7.54937 30.1648 7.07862C30.1648 6.60788 30.4472 6.32544 30.918 6.32544Z" fill="#807976"/>
<path d="M30.918 12.1628C31.2946 12.1628 31.6712 12.4453 31.6712 12.916C31.6712 13.2926 31.3887 13.6692 30.918 13.6692C30.5414 13.6692 30.1648 13.3868 30.1648 12.916C30.1648 12.4453 30.4472 12.1628 30.918 12.1628Z" fill="#807976"/>
<path d="M30.918 17.53C31.2946 17.53 31.6712 17.8125 31.6712 18.2832C31.6712 18.6598 31.3887 19.0365 30.918 19.0365C30.5414 19.0365 30.1648 18.754 30.1648 18.2832C30.1648 17.8125 30.4472 17.53 30.918 17.53Z" fill="#807976"/>
<path d="M30.918 22.897C31.2946 22.897 31.6712 23.1794 31.6712 23.6502C31.6712 24.0268 31.3887 24.4034 30.918 24.4034C30.5414 24.4034 30.1648 24.1209 30.1648 23.6502C30.1648 23.1794 30.4472 22.897 30.918 22.897Z" fill="#807976"/>
<path d="M23.1035 6.32544C23.4801 6.32544 23.8567 6.60788 23.8567 7.07862C23.8567 7.54937 23.5743 7.83182 23.1035 7.83182C22.6328 7.83182 22.3503 7.54937 22.3503 7.07862C22.3503 6.60788 22.6328 6.32544 23.1035 6.32544Z" fill="#807976"/>
<path d="M23.1035 12.1628C23.4801 12.1628 23.8567 12.4453 23.8567 12.916C23.8567 13.2926 23.5743 13.6692 23.1035 13.6692C22.6328 13.6692 22.3503 13.3868 22.3503 12.916C22.3503 12.4453 22.6328 12.1628 23.1035 12.1628Z" fill="#807976"/>
<path d="M23.1035 17.53C23.4801 17.53 23.8567 17.8125 23.8567 18.2832C23.8567 18.6598 23.5743 19.0365 23.1035 19.0365C22.6328 19.0365 22.3503 18.754 22.3503 18.2832C22.3503 17.8125 22.6328 17.53 23.1035 17.53Z" fill="#807976"/>
<path d="M23.1035 22.897C23.4801 22.897 23.8567 23.1794 23.8567 23.6502C23.8567 24.0268 23.5743 24.4034 23.1035 24.4034C22.6328 24.4034 22.3503 24.1209 22.3503 23.6502C22.3503 23.1794 22.6328 22.897 23.1035 22.897Z" fill="#807976"/>
<path d="M1.07229 0.394043C1.4489 0.394043 1.8255 0.676499 1.8255 1.14725C1.8255 1.61801 1.54305 1.90045 1.07229 1.90045C0.695693 1.90045 0.319092 1.61801 0.319092 1.14725C0.413242 0.77065 0.695693 0.394043 1.07229 0.394043Z" fill="#807976"/>
<path d="M39.2032 33.6289C39.5798 33.6289 39.9564 33.9114 39.9564 34.3822C39.9564 34.7588 39.6739 35.1354 39.2032 35.1354C38.8266 35.1354 38.45 34.853 38.45 34.3822C38.45 33.9114 38.8266 33.6289 39.2032 33.6289Z" fill="#807976"/>
<path d="M47.9593 33.6289C48.3359 33.6289 48.7124 33.9114 48.7124 34.3822C48.7124 34.7588 48.43 35.1354 47.9593 35.1354C47.5827 35.1354 47.2061 34.853 47.2061 34.3822C47.3002 34.0055 47.5827 33.6289 47.9593 33.6289Z" fill="#807976"/>
<path d="M47.9593 26.8499C48.3359 26.8499 48.7124 27.1323 48.7124 27.6031C48.7124 28.0738 48.43 28.3563 47.9593 28.3563C47.5827 28.3563 47.2061 28.0738 47.2061 27.6031C47.3002 27.1323 47.5827 26.8499 47.9593 26.8499Z" fill="#807976"/>
</svg>
